%TF.GenerationSoftware,KiCad,Pcbnew,5.1.12-84ad8e8a86~92~ubuntu20.04.1*%
%TF.CreationDate,2021-11-18T17:44:13-07:00*%
%TF.ProjectId,snail-bot,736e6169-6c2d-4626-9f74-2e6b69636164,rev?*%
%TF.SameCoordinates,Original*%
%TF.FileFunction,Legend,Top*%
%TF.FilePolarity,Positive*%
%FSLAX46Y46*%
G04 Gerber Fmt 4.6, Leading zero omitted, Abs format (unit mm)*
G04 Created by KiCad (PCBNEW 5.1.12-84ad8e8a86~92~ubuntu20.04.1) date 2021-11-18 17:44:13*
%MOMM*%
%LPD*%
G01*
G04 APERTURE LIST*
%ADD10C,0.200000*%
%ADD11C,0.150000*%
%ADD12C,0.120000*%
%ADD13C,0.127000*%
G04 APERTURE END LIST*
D10*
X68366666Y-79666666D02*
X68500000Y-79733333D01*
X68766666Y-79733333D01*
X68900000Y-79666666D01*
X68966666Y-79533333D01*
X68966666Y-79466666D01*
X68900000Y-79333333D01*
X68766666Y-79266666D01*
X68566666Y-79266666D01*
X68433333Y-79200000D01*
X68366666Y-79066666D01*
X68366666Y-79000000D01*
X68433333Y-78866666D01*
X68566666Y-78800000D01*
X68766666Y-78800000D01*
X68900000Y-78866666D01*
X69566666Y-78800000D02*
X69566666Y-79733333D01*
X69566666Y-78933333D02*
X69633333Y-78866666D01*
X69766666Y-78800000D01*
X69966666Y-78800000D01*
X70100000Y-78866666D01*
X70166666Y-79000000D01*
X70166666Y-79733333D01*
X71433333Y-79733333D02*
X71433333Y-79000000D01*
X71366666Y-78866666D01*
X71233333Y-78800000D01*
X70966666Y-78800000D01*
X70833333Y-78866666D01*
X71433333Y-79666666D02*
X71300000Y-79733333D01*
X70966666Y-79733333D01*
X70833333Y-79666666D01*
X70766666Y-79533333D01*
X70766666Y-79400000D01*
X70833333Y-79266666D01*
X70966666Y-79200000D01*
X71300000Y-79200000D01*
X71433333Y-79133333D01*
X72100000Y-79733333D02*
X72100000Y-78800000D01*
X72100000Y-78333333D02*
X72033333Y-78400000D01*
X72100000Y-78466666D01*
X72166666Y-78400000D01*
X72100000Y-78333333D01*
X72100000Y-78466666D01*
X72966666Y-79733333D02*
X72833333Y-79666666D01*
X72766666Y-79533333D01*
X72766666Y-78333333D01*
X73500000Y-79200000D02*
X74566666Y-79200000D01*
X75233333Y-79733333D02*
X75233333Y-78333333D01*
X75233333Y-78866666D02*
X75366666Y-78800000D01*
X75633333Y-78800000D01*
X75766666Y-78866666D01*
X75833333Y-78933333D01*
X75900000Y-79066666D01*
X75900000Y-79466666D01*
X75833333Y-79600000D01*
X75766666Y-79666666D01*
X75633333Y-79733333D01*
X75366666Y-79733333D01*
X75233333Y-79666666D01*
X76700000Y-79733333D02*
X76566666Y-79666666D01*
X76500000Y-79600000D01*
X76433333Y-79466666D01*
X76433333Y-79066666D01*
X76500000Y-78933333D01*
X76566666Y-78866666D01*
X76700000Y-78800000D01*
X76900000Y-78800000D01*
X77033333Y-78866666D01*
X77100000Y-78933333D01*
X77166666Y-79066666D01*
X77166666Y-79466666D01*
X77100000Y-79600000D01*
X77033333Y-79666666D01*
X76900000Y-79733333D01*
X76700000Y-79733333D01*
X77566666Y-78800000D02*
X78100000Y-78800000D01*
X77766666Y-78333333D02*
X77766666Y-79533333D01*
X77833333Y-79666666D01*
X77966666Y-79733333D01*
X78100000Y-79733333D01*
X79500000Y-78800000D02*
X79833333Y-79733333D01*
X80166666Y-78800000D01*
X81433333Y-79733333D02*
X80633333Y-79733333D01*
X81033333Y-79733333D02*
X81033333Y-78333333D01*
X80900000Y-78533333D01*
X80766666Y-78666666D01*
X80633333Y-78733333D01*
X82033333Y-79600000D02*
X82100000Y-79666666D01*
X82033333Y-79733333D01*
X81966666Y-79666666D01*
X82033333Y-79600000D01*
X82033333Y-79733333D01*
X82966666Y-78333333D02*
X83100000Y-78333333D01*
X83233333Y-78400000D01*
X83300000Y-78466666D01*
X83366666Y-78600000D01*
X83433333Y-78866666D01*
X83433333Y-79200000D01*
X83366666Y-79466666D01*
X83300000Y-79600000D01*
X83233333Y-79666666D01*
X83100000Y-79733333D01*
X82966666Y-79733333D01*
X82833333Y-79666666D01*
X82766666Y-79600000D01*
X82700000Y-79466666D01*
X82633333Y-79200000D01*
X82633333Y-78866666D01*
X82700000Y-78600000D01*
X82766666Y-78466666D01*
X82833333Y-78400000D01*
X82966666Y-78333333D01*
D11*
X114261904Y-70500000D02*
X114166666Y-70452380D01*
X114023809Y-70452380D01*
X113880952Y-70500000D01*
X113785714Y-70595238D01*
X113738095Y-70690476D01*
X113690476Y-70880952D01*
X113690476Y-71023809D01*
X113738095Y-71214285D01*
X113785714Y-71309523D01*
X113880952Y-71404761D01*
X114023809Y-71452380D01*
X114119047Y-71452380D01*
X114261904Y-71404761D01*
X114309523Y-71357142D01*
X114309523Y-71023809D01*
X114119047Y-71023809D01*
X111314285Y-71404761D02*
X111457142Y-71452380D01*
X111695238Y-71452380D01*
X111790476Y-71404761D01*
X111838095Y-71357142D01*
X111885714Y-71261904D01*
X111885714Y-71166666D01*
X111838095Y-71071428D01*
X111790476Y-71023809D01*
X111695238Y-70976190D01*
X111504761Y-70928571D01*
X111409523Y-70880952D01*
X111361904Y-70833333D01*
X111314285Y-70738095D01*
X111314285Y-70642857D01*
X111361904Y-70547619D01*
X111409523Y-70500000D01*
X111504761Y-70452380D01*
X111742857Y-70452380D01*
X111885714Y-70500000D01*
X107766666Y-70452380D02*
X108100000Y-71452380D01*
X108433333Y-70452380D01*
X109338095Y-71357142D02*
X109290476Y-71404761D01*
X109147619Y-71452380D01*
X109052380Y-71452380D01*
X108909523Y-71404761D01*
X108814285Y-71309523D01*
X108766666Y-71214285D01*
X108719047Y-71023809D01*
X108719047Y-70880952D01*
X108766666Y-70690476D01*
X108814285Y-70595238D01*
X108909523Y-70500000D01*
X109052380Y-70452380D01*
X109147619Y-70452380D01*
X109290476Y-70500000D01*
X109338095Y-70547619D01*
X110338095Y-71357142D02*
X110290476Y-71404761D01*
X110147619Y-71452380D01*
X110052380Y-71452380D01*
X109909523Y-71404761D01*
X109814285Y-71309523D01*
X109766666Y-71214285D01*
X109719047Y-71023809D01*
X109719047Y-70880952D01*
X109766666Y-70690476D01*
X109814285Y-70595238D01*
X109909523Y-70500000D01*
X110052380Y-70452380D01*
X110147619Y-70452380D01*
X110290476Y-70500000D01*
X110338095Y-70547619D01*
X102066666Y-66352380D02*
X102400000Y-67352380D01*
X102733333Y-66352380D01*
X103638095Y-67257142D02*
X103590476Y-67304761D01*
X103447619Y-67352380D01*
X103352380Y-67352380D01*
X103209523Y-67304761D01*
X103114285Y-67209523D01*
X103066666Y-67114285D01*
X103019047Y-66923809D01*
X103019047Y-66780952D01*
X103066666Y-66590476D01*
X103114285Y-66495238D01*
X103209523Y-66400000D01*
X103352380Y-66352380D01*
X103447619Y-66352380D01*
X103590476Y-66400000D01*
X103638095Y-66447619D01*
X104638095Y-67257142D02*
X104590476Y-67304761D01*
X104447619Y-67352380D01*
X104352380Y-67352380D01*
X104209523Y-67304761D01*
X104114285Y-67209523D01*
X104066666Y-67114285D01*
X104019047Y-66923809D01*
X104019047Y-66780952D01*
X104066666Y-66590476D01*
X104114285Y-66495238D01*
X104209523Y-66400000D01*
X104352380Y-66352380D01*
X104447619Y-66352380D01*
X104590476Y-66400000D01*
X104638095Y-66447619D01*
X106161904Y-66500000D02*
X106066666Y-66452380D01*
X105923809Y-66452380D01*
X105780952Y-66500000D01*
X105685714Y-66595238D01*
X105638095Y-66690476D01*
X105590476Y-66880952D01*
X105590476Y-67023809D01*
X105638095Y-67214285D01*
X105685714Y-67309523D01*
X105780952Y-67404761D01*
X105923809Y-67452380D01*
X106019047Y-67452380D01*
X106161904Y-67404761D01*
X106209523Y-67357142D01*
X106209523Y-67023809D01*
X106019047Y-67023809D01*
X107976190Y-67352380D02*
X107976190Y-66352380D01*
X108642857Y-66352380D02*
X108833333Y-66352380D01*
X108928571Y-66400000D01*
X109023809Y-66495238D01*
X109071428Y-66685714D01*
X109071428Y-67019047D01*
X109023809Y-67209523D01*
X108928571Y-67304761D01*
X108833333Y-67352380D01*
X108642857Y-67352380D01*
X108547619Y-67304761D01*
X108452380Y-67209523D01*
X108404761Y-67019047D01*
X108404761Y-66685714D01*
X108452380Y-66495238D01*
X108547619Y-66400000D01*
X108642857Y-66352380D01*
X110504761Y-67357142D02*
X110457142Y-67404761D01*
X110314285Y-67452380D01*
X110219047Y-67452380D01*
X110076190Y-67404761D01*
X109980952Y-67309523D01*
X109933333Y-67214285D01*
X109885714Y-67023809D01*
X109885714Y-66880952D01*
X109933333Y-66690476D01*
X109980952Y-66595238D01*
X110076190Y-66500000D01*
X110219047Y-66452380D01*
X110314285Y-66452380D01*
X110457142Y-66500000D01*
X110504761Y-66547619D01*
X111409523Y-67452380D02*
X110933333Y-67452380D01*
X110933333Y-66452380D01*
X111742857Y-67452380D02*
X111742857Y-66452380D01*
X112314285Y-67452380D02*
X111885714Y-66880952D01*
X112314285Y-66452380D02*
X111742857Y-67023809D01*
X92066666Y-63452380D02*
X92685714Y-63452380D01*
X92352380Y-63833333D01*
X92495238Y-63833333D01*
X92590476Y-63880952D01*
X92638095Y-63928571D01*
X92685714Y-64023809D01*
X92685714Y-64261904D01*
X92638095Y-64357142D01*
X92590476Y-64404761D01*
X92495238Y-64452380D01*
X92209523Y-64452380D01*
X92114285Y-64404761D01*
X92066666Y-64357142D01*
X82514285Y-63547619D02*
X82561904Y-63500000D01*
X82657142Y-63452380D01*
X82895238Y-63452380D01*
X82990476Y-63500000D01*
X83038095Y-63547619D01*
X83085714Y-63642857D01*
X83085714Y-63738095D01*
X83038095Y-63880952D01*
X82466666Y-64452380D01*
X83085714Y-64452380D01*
X73485714Y-64452380D02*
X72914285Y-64452380D01*
X73200000Y-64452380D02*
X73200000Y-63452380D01*
X73104761Y-63595238D01*
X73009523Y-63690476D01*
X72914285Y-63738095D01*
X57666666Y-63452380D02*
X58285714Y-63452380D01*
X57952380Y-63833333D01*
X58095238Y-63833333D01*
X58190476Y-63880952D01*
X58238095Y-63928571D01*
X58285714Y-64023809D01*
X58285714Y-64261904D01*
X58238095Y-64357142D01*
X58190476Y-64404761D01*
X58095238Y-64452380D01*
X57809523Y-64452380D01*
X57714285Y-64404761D01*
X57666666Y-64357142D01*
X49114285Y-63547619D02*
X49161904Y-63500000D01*
X49257142Y-63452380D01*
X49495238Y-63452380D01*
X49590476Y-63500000D01*
X49638095Y-63547619D01*
X49685714Y-63642857D01*
X49685714Y-63738095D01*
X49638095Y-63880952D01*
X49066666Y-64452380D01*
X49685714Y-64452380D01*
X41085714Y-64452380D02*
X40514285Y-64452380D01*
X40800000Y-64452380D02*
X40800000Y-63452380D01*
X40704761Y-63595238D01*
X40609523Y-63690476D01*
X40514285Y-63738095D01*
X100085714Y-86452380D02*
X99514285Y-86452380D01*
X99800000Y-86452380D02*
X99800000Y-85452380D01*
X99704761Y-85595238D01*
X99609523Y-85690476D01*
X99514285Y-85738095D01*
X91014285Y-85547619D02*
X91061904Y-85500000D01*
X91157142Y-85452380D01*
X91395238Y-85452380D01*
X91490476Y-85500000D01*
X91538095Y-85547619D01*
X91585714Y-85642857D01*
X91585714Y-85738095D01*
X91538095Y-85880952D01*
X90966666Y-86452380D01*
X91585714Y-86452380D01*
X82366666Y-85452380D02*
X82985714Y-85452380D01*
X82652380Y-85833333D01*
X82795238Y-85833333D01*
X82890476Y-85880952D01*
X82938095Y-85928571D01*
X82985714Y-86023809D01*
X82985714Y-86261904D01*
X82938095Y-86357142D01*
X82890476Y-86404761D01*
X82795238Y-86452380D01*
X82509523Y-86452380D01*
X82414285Y-86404761D01*
X82366666Y-86357142D01*
X66128571Y-68285714D02*
X65366666Y-68571428D01*
X66128571Y-68857142D01*
X66557142Y-68904761D02*
X66700000Y-68952380D01*
X66938095Y-68952380D01*
X67033333Y-68904761D01*
X67080952Y-68857142D01*
X67128571Y-68761904D01*
X67128571Y-68666666D01*
X67080952Y-68571428D01*
X67033333Y-68523809D01*
X66938095Y-68476190D01*
X66747619Y-68428571D01*
X66652380Y-68380952D01*
X66604761Y-68333333D01*
X66557142Y-68238095D01*
X66557142Y-68142857D01*
X66604761Y-68047619D01*
X66652380Y-68000000D01*
X66747619Y-67952380D01*
X66985714Y-67952380D01*
X67128571Y-68000000D01*
X67557142Y-68428571D02*
X67890476Y-68428571D01*
X68033333Y-68952380D02*
X67557142Y-68952380D01*
X67557142Y-67952380D01*
X68033333Y-67952380D01*
X68461904Y-68952380D02*
X68461904Y-67952380D01*
X69033333Y-68952380D01*
X69033333Y-67952380D01*
X69461904Y-68904761D02*
X69604761Y-68952380D01*
X69842857Y-68952380D01*
X69938095Y-68904761D01*
X69985714Y-68857142D01*
X70033333Y-68761904D01*
X70033333Y-68666666D01*
X69985714Y-68571428D01*
X69938095Y-68523809D01*
X69842857Y-68476190D01*
X69652380Y-68428571D01*
X69557142Y-68380952D01*
X69509523Y-68333333D01*
X69461904Y-68238095D01*
X69461904Y-68142857D01*
X69509523Y-68047619D01*
X69557142Y-68000000D01*
X69652380Y-67952380D01*
X69890476Y-67952380D01*
X70033333Y-68000000D01*
X70652380Y-67952380D02*
X70842857Y-67952380D01*
X70938095Y-68000000D01*
X71033333Y-68095238D01*
X71080952Y-68285714D01*
X71080952Y-68619047D01*
X71033333Y-68809523D01*
X70938095Y-68904761D01*
X70842857Y-68952380D01*
X70652380Y-68952380D01*
X70557142Y-68904761D01*
X70461904Y-68809523D01*
X70414285Y-68619047D01*
X70414285Y-68285714D01*
X70461904Y-68095238D01*
X70557142Y-68000000D01*
X70652380Y-67952380D01*
X72080952Y-68952380D02*
X71747619Y-68476190D01*
X71509523Y-68952380D02*
X71509523Y-67952380D01*
X71890476Y-67952380D01*
X71985714Y-68000000D01*
X72033333Y-68047619D01*
X72080952Y-68142857D01*
X72080952Y-68285714D01*
X72033333Y-68380952D01*
X71985714Y-68428571D01*
X71890476Y-68476190D01*
X71509523Y-68476190D01*
X66519047Y-64552380D02*
X66519047Y-63552380D01*
X66852380Y-64266666D01*
X67185714Y-63552380D01*
X67185714Y-64552380D01*
X67852380Y-63552380D02*
X68042857Y-63552380D01*
X68138095Y-63600000D01*
X68233333Y-63695238D01*
X68280952Y-63885714D01*
X68280952Y-64219047D01*
X68233333Y-64409523D01*
X68138095Y-64504761D01*
X68042857Y-64552380D01*
X67852380Y-64552380D01*
X67757142Y-64504761D01*
X67661904Y-64409523D01*
X67614285Y-64219047D01*
X67614285Y-63885714D01*
X67661904Y-63695238D01*
X67757142Y-63600000D01*
X67852380Y-63552380D01*
X68566666Y-63552380D02*
X69138095Y-63552380D01*
X68852380Y-64552380D02*
X68852380Y-63552380D01*
X69661904Y-63552380D02*
X69852380Y-63552380D01*
X69947619Y-63600000D01*
X70042857Y-63695238D01*
X70090476Y-63885714D01*
X70090476Y-64219047D01*
X70042857Y-64409523D01*
X69947619Y-64504761D01*
X69852380Y-64552380D01*
X69661904Y-64552380D01*
X69566666Y-64504761D01*
X69471428Y-64409523D01*
X69423809Y-64219047D01*
X69423809Y-63885714D01*
X69471428Y-63695238D01*
X69566666Y-63600000D01*
X69661904Y-63552380D01*
X71090476Y-64552380D02*
X70757142Y-64076190D01*
X70519047Y-64552380D02*
X70519047Y-63552380D01*
X70900000Y-63552380D01*
X70995238Y-63600000D01*
X71042857Y-63647619D01*
X71090476Y-63742857D01*
X71090476Y-63885714D01*
X71042857Y-63980952D01*
X70995238Y-64028571D01*
X70900000Y-64076190D01*
X70519047Y-64076190D01*
X71519047Y-63885714D02*
X72280952Y-64171428D01*
X71519047Y-64457142D01*
D10*
X107650000Y-86407142D02*
X107864285Y-86478571D01*
X108221428Y-86478571D01*
X108364285Y-86407142D01*
X108435714Y-86335714D01*
X108507142Y-86192857D01*
X108507142Y-86050000D01*
X108435714Y-85907142D01*
X108364285Y-85835714D01*
X108221428Y-85764285D01*
X107935714Y-85692857D01*
X107792857Y-85621428D01*
X107721428Y-85550000D01*
X107650000Y-85407142D01*
X107650000Y-85264285D01*
X107721428Y-85121428D01*
X107792857Y-85050000D01*
X107935714Y-84978571D01*
X108292857Y-84978571D01*
X108507142Y-85050000D01*
X109007142Y-84978571D02*
X109364285Y-86478571D01*
X109650000Y-85407142D01*
X109935714Y-86478571D01*
X110292857Y-84978571D01*
X110864285Y-86478571D02*
X110864285Y-84978571D01*
X111364285Y-84978571D02*
X112221428Y-84978571D01*
X111792857Y-86478571D02*
X111792857Y-84978571D01*
X113578571Y-86335714D02*
X113507142Y-86407142D01*
X113292857Y-86478571D01*
X113150000Y-86478571D01*
X112935714Y-86407142D01*
X112792857Y-86264285D01*
X112721428Y-86121428D01*
X112650000Y-85835714D01*
X112650000Y-85621428D01*
X112721428Y-85335714D01*
X112792857Y-85192857D01*
X112935714Y-85050000D01*
X113150000Y-84978571D01*
X113292857Y-84978571D01*
X113507142Y-85050000D01*
X113578571Y-85121428D01*
X114221428Y-86478571D02*
X114221428Y-84978571D01*
X114221428Y-85692857D02*
X115078571Y-85692857D01*
X115078571Y-86478571D02*
X115078571Y-84978571D01*
D12*
%TO.C,U5*%
X49400000Y-81640000D02*
X45950000Y-81640000D01*
X49400000Y-81640000D02*
X51350000Y-81640000D01*
X49400000Y-86760000D02*
X47450000Y-86760000D01*
X49400000Y-86760000D02*
X51350000Y-86760000D01*
%TO.C,J13*%
X89600000Y-80800000D02*
X89600000Y-86800000D01*
X82000000Y-80800000D02*
X89600000Y-80800000D01*
X82000000Y-86800000D02*
X82000000Y-80800000D01*
X89600000Y-86800000D02*
X82000000Y-86800000D01*
%TO.C,J12*%
X40200000Y-69200000D02*
X40200000Y-63200000D01*
X47800000Y-69200000D02*
X40200000Y-69200000D01*
X47800000Y-63200000D02*
X47800000Y-69200000D01*
X40200000Y-63200000D02*
X47800000Y-63200000D01*
%TO.C,J11*%
X57400000Y-69200000D02*
X57400000Y-63200000D01*
X65000000Y-69200000D02*
X57400000Y-69200000D01*
X65000000Y-63200000D02*
X65000000Y-69200000D01*
X57400000Y-63200000D02*
X65000000Y-63200000D01*
%TO.C,J10*%
X48800000Y-69200000D02*
X48800000Y-63200000D01*
X56400000Y-69200000D02*
X48800000Y-69200000D01*
X56400000Y-63200000D02*
X56400000Y-69200000D01*
X48800000Y-63200000D02*
X56400000Y-63200000D01*
%TO.C,J9*%
X98200000Y-80800000D02*
X98200000Y-86800000D01*
X90600000Y-80800000D02*
X98200000Y-80800000D01*
X90600000Y-86800000D02*
X90600000Y-80800000D01*
X98200000Y-86800000D02*
X90600000Y-86800000D01*
%TO.C,J7*%
X106800000Y-80800000D02*
X106800000Y-86800000D01*
X99200000Y-80800000D02*
X106800000Y-80800000D01*
X99200000Y-86800000D02*
X99200000Y-80800000D01*
X106800000Y-86800000D02*
X99200000Y-86800000D01*
%TO.C,J3*%
X91800000Y-69200000D02*
X91800000Y-63200000D01*
X99400000Y-69200000D02*
X91800000Y-69200000D01*
X99400000Y-63200000D02*
X99400000Y-69200000D01*
X91800000Y-63200000D02*
X99400000Y-63200000D01*
%TO.C,J2*%
X82200000Y-69200000D02*
X82200000Y-63200000D01*
X89800000Y-69200000D02*
X82200000Y-69200000D01*
X89800000Y-63200000D02*
X89800000Y-69200000D01*
X82200000Y-63200000D02*
X89800000Y-63200000D01*
%TO.C,J1*%
X72600000Y-69200000D02*
X72600000Y-63200000D01*
X80200000Y-69200000D02*
X72600000Y-69200000D01*
X80200000Y-63200000D02*
X80200000Y-69200000D01*
X72600000Y-63200000D02*
X80200000Y-63200000D01*
D11*
%TO.C,U1*%
X71250000Y-75825000D02*
X71250000Y-71375000D01*
X64350000Y-77350000D02*
X64350000Y-71375000D01*
D12*
%TO.C,R16*%
X85862779Y-80310000D02*
X85537221Y-80310000D01*
X85862779Y-79290000D02*
X85537221Y-79290000D01*
%TO.C,R15*%
X47990000Y-71062779D02*
X47990000Y-70737221D01*
X49010000Y-71062779D02*
X49010000Y-70737221D01*
%TO.C,R14*%
X62590000Y-71062779D02*
X62590000Y-70737221D01*
X63610000Y-71062779D02*
X63610000Y-70737221D01*
%TO.C,R13*%
X53690000Y-71062779D02*
X53690000Y-70737221D01*
X54710000Y-71062779D02*
X54710000Y-70737221D01*
%TO.C,R12*%
X94662779Y-80310000D02*
X94337221Y-80310000D01*
X94662779Y-79290000D02*
X94337221Y-79290000D01*
%TO.C,R11*%
X106662779Y-78910000D02*
X106337221Y-78910000D01*
X106662779Y-77890000D02*
X106337221Y-77890000D01*
%TO.C,R10*%
X103162779Y-80310000D02*
X102837221Y-80310000D01*
X103162779Y-79290000D02*
X102837221Y-79290000D01*
%TO.C,R9*%
X69762779Y-82310000D02*
X69437221Y-82310000D01*
X69762779Y-81290000D02*
X69437221Y-81290000D01*
%TO.C,R8*%
X48762779Y-79110000D02*
X48437221Y-79110000D01*
X48762779Y-78090000D02*
X48437221Y-78090000D01*
%TO.C,R5*%
X57249721Y-77790000D02*
X57575279Y-77790000D01*
X57249721Y-78810000D02*
X57575279Y-78810000D01*
%TO.C,R3*%
X70390000Y-85462779D02*
X70390000Y-85137221D01*
X71410000Y-85462779D02*
X71410000Y-85137221D01*
%TO.C,R2*%
X72190000Y-84928733D02*
X72190000Y-85271267D01*
X73210000Y-84928733D02*
X73210000Y-85271267D01*
%TO.C,R1*%
X68490000Y-85462779D02*
X68490000Y-85137221D01*
X69510000Y-85462779D02*
X69510000Y-85137221D01*
%TO.C,J8*%
X107590000Y-67570000D02*
X107590000Y-70230000D01*
X112730000Y-67570000D02*
X107590000Y-67570000D01*
X112730000Y-70230000D02*
X107590000Y-70230000D01*
X112730000Y-67570000D02*
X112730000Y-70230000D01*
X114000000Y-67570000D02*
X115330000Y-67570000D01*
X115330000Y-67570000D02*
X115330000Y-68900000D01*
%TO.C,J6*%
X112350000Y-66230000D02*
X112350000Y-63570000D01*
X104670000Y-66230000D02*
X112350000Y-66230000D01*
X104670000Y-63570000D02*
X112350000Y-63570000D01*
X104670000Y-66230000D02*
X104670000Y-63570000D01*
X103400000Y-66230000D02*
X102070000Y-66230000D01*
X102070000Y-66230000D02*
X102070000Y-64900000D01*
D13*
%TO.C,J4*%
X58210000Y-82590000D02*
X58210000Y-84030000D01*
X67150000Y-82590000D02*
X67150000Y-84030000D01*
X67150000Y-86770000D02*
X67150000Y-88000000D01*
X67150000Y-88000000D02*
X58210000Y-88000000D01*
X58210000Y-88000000D02*
X58210000Y-86770000D01*
D10*
X59380000Y-79000000D02*
G75*
G03*
X59380000Y-79000000I-100000J0D01*
G01*
D12*
%TO.C,D4*%
X106665000Y-75100000D02*
X106665000Y-77385000D01*
X106665000Y-77385000D02*
X108135000Y-77385000D01*
X108135000Y-77385000D02*
X108135000Y-75100000D01*
%TO.C,D3*%
X55700000Y-82865000D02*
X53415000Y-82865000D01*
X53415000Y-82865000D02*
X53415000Y-84335000D01*
X53415000Y-84335000D02*
X55700000Y-84335000D01*
%TO.C,D2*%
X55700000Y-84965000D02*
X53415000Y-84965000D01*
X53415000Y-84965000D02*
X53415000Y-86435000D01*
X53415000Y-86435000D02*
X55700000Y-86435000D01*
%TO.C,D1*%
X40650000Y-86550000D02*
X44950000Y-86550000D01*
X44950000Y-86550000D02*
X44950000Y-80850000D01*
X40650000Y-86550000D02*
X40650000Y-80850000D01*
%TO.C,C13*%
X45737221Y-69690000D02*
X46062779Y-69690000D01*
X45737221Y-70710000D02*
X46062779Y-70710000D01*
%TO.C,C12*%
X60337221Y-69690000D02*
X60662779Y-69690000D01*
X60337221Y-70710000D02*
X60662779Y-70710000D01*
%TO.C,C11*%
X51437221Y-69690000D02*
X51762779Y-69690000D01*
X51437221Y-70710000D02*
X51762779Y-70710000D01*
%TO.C,C10*%
X50462779Y-80910000D02*
X50137221Y-80910000D01*
X50462779Y-79890000D02*
X50137221Y-79890000D01*
%TO.C,C9*%
X46937221Y-79890000D02*
X47262779Y-79890000D01*
X46937221Y-80910000D02*
X47262779Y-80910000D01*
%TO.C,C8*%
X99890000Y-64862779D02*
X99890000Y-64537221D01*
X100910000Y-64862779D02*
X100910000Y-64537221D01*
%TO.C,C7*%
X90290000Y-64862779D02*
X90290000Y-64537221D01*
X91310000Y-64862779D02*
X91310000Y-64537221D01*
%TO.C,C6*%
X80690000Y-64862779D02*
X80690000Y-64537221D01*
X81710000Y-64862779D02*
X81710000Y-64537221D01*
%TO.C,C5*%
X62810000Y-75137221D02*
X62810000Y-75462779D01*
X61790000Y-75137221D02*
X61790000Y-75462779D01*
%TO.C,C4*%
X100210000Y-72337221D02*
X100210000Y-72662779D01*
X99190000Y-72337221D02*
X99190000Y-72662779D01*
%TO.C,C3*%
X91410000Y-72237221D02*
X91410000Y-72562779D01*
X90390000Y-72237221D02*
X90390000Y-72562779D01*
%TO.C,C2*%
X83010000Y-72237221D02*
X83010000Y-72562779D01*
X81990000Y-72237221D02*
X81990000Y-72562779D01*
%TO.C,C1*%
X55297936Y-74090000D02*
X56502064Y-74090000D01*
X55297936Y-75910000D02*
X56502064Y-75910000D01*
%TD*%
M02*
