%TF.GenerationSoftware,KiCad,Pcbnew,5.1.12-84ad8e8a86~92~ubuntu20.04.1*%
%TF.CreationDate,2021-11-18T17:44:13-07:00*%
%TF.ProjectId,snail-bot,736e6169-6c2d-4626-9f74-2e6b69636164,rev?*%
%TF.SameCoordinates,Original*%
%TF.FileFunction,Legend,Bot*%
%TF.FilePolarity,Positive*%
%FSLAX46Y46*%
G04 Gerber Fmt 4.6, Leading zero omitted, Abs format (unit mm)*
G04 Created by KiCad (PCBNEW 5.1.12-84ad8e8a86~92~ubuntu20.04.1) date 2021-11-18 17:44:13*
%MOMM*%
%LPD*%
G01*
G04 APERTURE LIST*
%ADD10C,0.120000*%
%ADD11C,0.150000*%
G04 APERTURE END LIST*
D10*
%TO.C,BT1*%
X68300000Y-67400000D02*
G75*
G03*
X70300000Y-69400000I2000000J0D01*
G01*
X86100000Y-69400000D02*
G75*
G03*
X88100000Y-67400000I0J2000000D01*
G01*
X88100000Y-82600000D02*
G75*
G03*
X86100000Y-80600000I-2000000J0D01*
G01*
X70300000Y-80600000D02*
G75*
G03*
X68300000Y-82600000I0J-2000000D01*
G01*
X86100000Y-69400000D02*
X70300000Y-69400000D01*
X70300000Y-80600000D02*
X86100000Y-80600000D01*
X88100000Y-67400000D02*
X106100000Y-67400000D01*
X88100000Y-82600000D02*
X106100000Y-82600000D01*
X50300000Y-82600000D02*
X68300000Y-82600000D01*
X106100000Y-82600000D02*
X106100000Y-67400000D01*
X50300000Y-67400000D02*
X68300000Y-67400000D01*
X50300000Y-82600000D02*
X50300000Y-67400000D01*
X49580000Y-83565000D02*
X106820000Y-83565000D01*
X49580000Y-66435000D02*
X49580000Y-83565000D01*
X106820000Y-66435000D02*
X49580000Y-66435000D01*
X106820000Y-83565000D02*
X106820000Y-66435000D01*
X99510000Y-76060000D02*
X99510000Y-74060000D01*
X102510000Y-79060000D02*
X102510000Y-71060000D01*
X101510000Y-72060000D02*
X101510000Y-78060000D01*
X100510000Y-77060000D02*
X100510000Y-73060000D01*
D11*
X49180952Y-75131428D02*
X48419047Y-75131428D01*
X48800000Y-75512380D02*
X48800000Y-74750476D01*
X107950952Y-75131428D02*
X107189047Y-75131428D01*
%TD*%
M02*
