M48
; DRILL file {KiCad 5.1.12-84ad8e8a86~92~ubuntu20.04.1} date Thu 18 Nov 2021 05:44:15 PM MST
; FORMAT={-:-/ absolute / inch / decimal}
; #@! TF.CreationDate,2021-11-18T17:44:15-07:00
; #@! TF.GenerationSoftware,Kicad,Pcbnew,5.1.12-84ad8e8a86~92~ubuntu20.04.1
; #@! TF.FileFunction,Plated,1,2,PTH
FMAT,2
INCH
T1C0.0118
T2C0.0256
T3C0.0394
T4C0.0402
%
G90
G05
T1
X1.7677Y-2.8543
X1.7874Y-3.1654
X1.7874Y-3.3898
X1.7925Y-3.2624
X1.8425Y-2.815
X1.8529Y-3.1105
X1.9055Y-3.252
X1.9055Y-3.374
X1.9449Y-3.315
X1.9606Y-2.7638
X1.9843Y-3.252
X1.9843Y-3.374
X2.0039Y-2.874
X2.0551Y-3.1654
X2.0984Y-3.126
X2.1024Y-3.2402
X2.1024Y-3.4055
X2.1102Y-2.7087
X2.1772Y-3.0984
X2.3071Y-2.7638
X2.3071Y-3.122
X2.315Y-2.8504
X2.3937Y-2.7992
X2.4483Y-2.8223
X2.4528Y-3.0315
X2.5512Y-2.7283
X2.5748Y-2.685
X2.5787Y-2.9646
X2.5906Y-3.1102
X2.6063Y-2.6969
X2.6496Y-2.9606
X2.6575Y-3.0591
X2.7087Y-3.0551
X2.8071Y-2.8307
X2.815Y-3.2244
X2.8622Y-2.9134
X2.8622Y-3.2717
X2.9016Y-3.1811
X2.9173Y-3.3858
X2.9291Y-2.5157
X2.9724Y-3.0079
X3.0079Y-2.6535
X3.0945Y-2.8701
X3.1496Y-2.5157
X3.2244Y-3.0039
X3.2953Y-3.1772
X3.2992Y-3.3858
X3.315Y-2.5157
X3.3661Y-2.9213
X3.3898Y-2.6535
X3.4016Y-2.8661
X3.4449Y-2.9094
X3.4528Y-3.1654
X3.4567Y-3.3898
X3.5315Y-2.5157
X3.5472Y-3.0433
X3.5472Y-3.185
X3.6378Y-3.3858
X3.6457Y-3.0433
X3.689Y-2.5118
X3.7008Y-2.874
X3.7441Y-3.2126
X3.748Y-2.8622
X3.7638Y-2.6575
X3.7992Y-3.3858
X3.8031Y-3.1417
X3.8858Y-3.1811
X3.9055Y-2.5118
X3.9134Y-2.7677
X3.9291Y-2.6772
X3.9764Y-3.3858
X3.9803Y-2.8386
X4.0Y-2.6417
X4.0148Y-2.8022
X4.063Y-2.8031
X4.0827Y-3.2126
X4.1457Y-3.378
X4.2795Y-3.0551
X4.4331Y-2.5197
X4.5276Y-2.9291
X4.5276Y-3.3858
X4.5315Y-2.5236
T3
X4.0709Y-2.5551
X4.1709Y-2.5551
X4.2709Y-2.5551
X4.2882Y-2.7126
X4.3709Y-2.5551
X4.3882Y-2.7126
X4.4882Y-2.7126
T4
X2.0551Y-2.9528
X4.102Y-2.9528
T2
G00X2.2976Y-3.176
M15
G01X2.2976Y-3.2193
M16
G05
G00X2.2976Y-3.3504
M15
G01X2.2976Y-3.374
M16
G05
G00X2.6378Y-3.176
M15
G01X2.6378Y-3.2193
M16
G05
G00X2.6378Y-3.3504
M15
G01X2.6378Y-3.374
M16
G05
T0
M30
