%TF.GenerationSoftware,KiCad,Pcbnew,5.1.12-84ad8e8a86~92~ubuntu20.04.1*%
%TF.CreationDate,2021-11-18T17:44:13-07:00*%
%TF.ProjectId,snail-bot,736e6169-6c2d-4626-9f74-2e6b69636164,rev?*%
%TF.SameCoordinates,Original*%
%TF.FileFunction,Copper,L2,Bot*%
%TF.FilePolarity,Positive*%
%FSLAX46Y46*%
G04 Gerber Fmt 4.6, Leading zero omitted, Abs format (unit mm)*
G04 Created by KiCad (PCBNEW 5.1.12-84ad8e8a86~92~ubuntu20.04.1) date 2021-11-18 17:44:13*
%MOMM*%
%LPD*%
G01*
G04 APERTURE LIST*
%TA.AperFunction,ComponentPad*%
%ADD10C,0.600000*%
%TD*%
%TA.AperFunction,SMDPad,CuDef*%
%ADD11R,3.000000X5.000000*%
%TD*%
%TA.AperFunction,ComponentPad*%
%ADD12O,1.700000X1.700000*%
%TD*%
%TA.AperFunction,ComponentPad*%
%ADD13R,1.700000X1.700000*%
%TD*%
%TA.AperFunction,ComponentPad*%
%ADD14O,1.050000X2.100000*%
%TD*%
%TA.AperFunction,ComponentPad*%
%ADD15R,2.000000X2.000000*%
%TD*%
%TA.AperFunction,ComponentPad*%
%ADD16C,2.000000*%
%TD*%
%TA.AperFunction,ViaPad*%
%ADD17C,0.600000*%
%TD*%
%TA.AperFunction,Conductor*%
%ADD18C,0.500000*%
%TD*%
%TA.AperFunction,Conductor*%
%ADD19C,0.150000*%
%TD*%
%TA.AperFunction,Conductor*%
%ADD20C,0.250000*%
%TD*%
%TA.AperFunction,Conductor*%
%ADD21C,0.254000*%
%TD*%
%TA.AperFunction,Conductor*%
%ADD22C,0.100000*%
%TD*%
G04 APERTURE END LIST*
D10*
%TO.P,U5,9*%
%TO.N,N/C*%
X48400000Y-82600000D03*
X50400000Y-82600000D03*
X48400000Y-85700000D03*
X50400000Y-85700000D03*
X49400000Y-84200000D03*
D11*
X49400000Y-84200000D03*
%TD*%
D12*
%TO.P,J8,3*%
%TO.N,VCC*%
X108920000Y-68900000D03*
%TO.P,J8,2*%
%TO.N,/SERIAL*%
X111460000Y-68900000D03*
D13*
%TO.P,J8,1*%
%TO.N,GND*%
X114000000Y-68900000D03*
%TD*%
D12*
%TO.P,J6,4*%
%TO.N,/SWCLK*%
X111020000Y-64900000D03*
%TO.P,J6,3*%
%TO.N,/SWDIO*%
X108480000Y-64900000D03*
%TO.P,J6,2*%
%TO.N,GND*%
X105940000Y-64900000D03*
D13*
%TO.P,J6,1*%
%TO.N,VCC*%
X103400000Y-64900000D03*
%TD*%
D14*
%TO.P,J4,S4*%
%TO.N,Net-(J4-PadS1)*%
X67000000Y-85400000D03*
%TO.P,J4,S3*%
X58360000Y-85400000D03*
%TO.P,J4,S2*%
X67000000Y-81220000D03*
%TO.P,J4,S1*%
X58360000Y-81220000D03*
%TD*%
D15*
%TO.P,BT1,1*%
%TO.N,VCC*%
X52200000Y-75000000D03*
D16*
%TO.P,BT1,2*%
%TO.N,GND*%
X104190000Y-75000000D03*
%TD*%
D17*
%TO.N,VCC*%
X53400000Y-86500000D03*
X53400000Y-82300000D03*
X52200000Y-80400000D03*
X76400000Y-67400000D03*
X95600000Y-67500000D03*
X86100000Y-67400000D03*
X87700000Y-80400000D03*
X86400000Y-72800000D03*
X96600000Y-79800000D03*
X95200000Y-72700000D03*
X103200000Y-71200000D03*
%TO.N,GND*%
X73700000Y-80800000D03*
X83800000Y-86000000D03*
X74100000Y-86000000D03*
X83700000Y-80700000D03*
X87800000Y-86100000D03*
X92400000Y-86000000D03*
X90100000Y-80900000D03*
X95100000Y-81600000D03*
X96500000Y-86000000D03*
X101000000Y-86000000D03*
X98700000Y-80800000D03*
X101100000Y-72100000D03*
X94000000Y-73000000D03*
X92600000Y-77300000D03*
X90100000Y-77300000D03*
X87500000Y-73900000D03*
X85500000Y-74200000D03*
X78600000Y-72900000D03*
X81900000Y-76300000D03*
X103700000Y-81600000D03*
X105300000Y-85800000D03*
X115000000Y-86000000D03*
X115100000Y-64100000D03*
X115000000Y-74400000D03*
X112600000Y-64000000D03*
X108700000Y-77600000D03*
X58600000Y-79300000D03*
X65800000Y-79000000D03*
X67500000Y-77700000D03*
X62300000Y-77000000D03*
X60800000Y-71100000D03*
X55300000Y-78700000D03*
X53300000Y-79400000D03*
X75500000Y-76400000D03*
X72700000Y-74000000D03*
X46800000Y-71500000D03*
X44900000Y-72500000D03*
X53600000Y-68800000D03*
%TO.N,/MOTOR_OUT_1B*%
X80000000Y-63900000D03*
X74400000Y-63900000D03*
%TO.N,/MOTOR_OUT_2B*%
X89700000Y-63900000D03*
X84200000Y-63900000D03*
%TO.N,/MOTOR_OUT_3B*%
X99200000Y-63800000D03*
X93700000Y-63800000D03*
%TO.N,+5V*%
X45400000Y-86100000D03*
X45400000Y-80400000D03*
%TO.N,/SENSOR_2*%
X50900000Y-73000000D03*
X49800000Y-70200000D03*
%TO.N,/SENSOR_3*%
X58800000Y-72400000D03*
X58600000Y-70200000D03*
%TO.N,/SERIAL*%
X99400000Y-70300000D03*
X64800000Y-69300000D03*
%TO.N,/SWCLK*%
X65400000Y-68200000D03*
X101600000Y-67100000D03*
%TO.N,/SWDIO*%
X99800000Y-68000000D03*
X66200000Y-68500020D03*
%TO.N,/SW1*%
X101976697Y-71175011D03*
X71300000Y-71900000D03*
%TO.N,Net-(R2-Pad1)*%
X72700000Y-83100000D03*
X67300000Y-75200000D03*
%TO.N,Net-(R8-Pad2)*%
X45530073Y-82865699D03*
X47062510Y-79007755D03*
%TO.N,Net-(R9-Pad1)*%
X68800000Y-77600000D03*
X71500000Y-81900000D03*
%TO.N,/SENSOR_ENABLE*%
X65500000Y-75300000D03*
X62187500Y-71687500D03*
%TD*%
D18*
%TO.N,VCC*%
X53286996Y-82413004D02*
X53400000Y-82300000D01*
X53286996Y-86341384D02*
X53286996Y-82413004D01*
X52200000Y-75000000D02*
X52200000Y-80400000D01*
X52200000Y-75000000D02*
X52200000Y-67600000D01*
X52400000Y-67400000D02*
X76400000Y-67400000D01*
X52200000Y-67600000D02*
X52400000Y-67400000D01*
X95500000Y-67400000D02*
X95600000Y-67500000D01*
X98200000Y-64900000D02*
X103400000Y-64900000D01*
X95600000Y-67500000D02*
X98200000Y-64900000D01*
X86100000Y-67400000D02*
X95500000Y-67400000D01*
X76400000Y-67400000D02*
X86100000Y-67400000D01*
D19*
X86400000Y-79100000D02*
X86400000Y-72800000D01*
X87700000Y-80400000D02*
X86400000Y-79100000D01*
X96600000Y-74100000D02*
X95200000Y-72700000D01*
X96600000Y-79800000D02*
X96600000Y-74100000D01*
D18*
X103717919Y-64900000D02*
X103400000Y-64900000D01*
X107717919Y-68900000D02*
X103717919Y-64900000D01*
X108920000Y-68900000D02*
X107717919Y-68900000D01*
X103400000Y-71000000D02*
X103200000Y-71200000D01*
X103400000Y-64900000D02*
X103400000Y-71000000D01*
D20*
%TO.N,GND*%
X63000000Y-77700000D02*
X62300000Y-77000000D01*
X67500000Y-77700000D02*
X63000000Y-77700000D01*
X45900000Y-71500000D02*
X44900000Y-72500000D01*
X46800000Y-71500000D02*
X45900000Y-71500000D01*
D18*
X105940000Y-64900000D02*
X107500000Y-66460000D01*
%TO.N,/MOTOR_OUT_1B*%
X80000000Y-63900000D02*
X74400000Y-63900000D01*
%TO.N,/MOTOR_OUT_2B*%
X89700000Y-63900000D02*
X84200000Y-63900000D01*
%TO.N,/MOTOR_OUT_3B*%
X99200000Y-63800000D02*
X93700000Y-63800000D01*
%TO.N,+5V*%
X45400000Y-86100000D02*
X44780072Y-85480072D01*
X44780072Y-85480072D02*
X44780072Y-81019928D01*
X44780072Y-81019928D02*
X45400000Y-80400000D01*
D19*
%TO.N,/SENSOR_2*%
X50900000Y-71300000D02*
X49800000Y-70200000D01*
X50900000Y-73000000D02*
X50900000Y-71300000D01*
%TO.N,/SENSOR_3*%
X58800000Y-70400000D02*
X58600000Y-70200000D01*
X58800000Y-72400000D02*
X58800000Y-70400000D01*
%TO.N,/SERIAL*%
X99400000Y-70300000D02*
X99000000Y-69900000D01*
X65400000Y-69900000D02*
X64800000Y-69300000D01*
X99000000Y-69900000D02*
X65400000Y-69900000D01*
%TO.N,/SWCLK*%
X75698998Y-67925010D02*
X76123999Y-68350011D01*
X65674990Y-67925010D02*
X75698998Y-67925010D01*
X65400000Y-68200000D02*
X65674990Y-67925010D01*
X76123999Y-68350011D02*
X98549989Y-68350011D01*
X99800000Y-67100000D02*
X101600000Y-67100000D01*
X98549989Y-68350011D02*
X99800000Y-67100000D01*
%TO.N,/SWDIO*%
X99800000Y-68000000D02*
X99099978Y-68700022D01*
X99099978Y-68700022D02*
X66400002Y-68700022D01*
X66400002Y-68700022D02*
X66200000Y-68500020D01*
%TO.N,/SW1*%
X72575011Y-71175011D02*
X101976697Y-71175011D01*
X72024989Y-71175011D02*
X71300000Y-71900000D01*
X72575011Y-71175011D02*
X72024989Y-71175011D01*
%TO.N,Net-(R2-Pad1)*%
X72700000Y-80600000D02*
X67300000Y-75200000D01*
X72700000Y-83100000D02*
X72700000Y-80600000D01*
D20*
%TO.N,Net-(R8-Pad2)*%
X45530073Y-82865699D02*
X47062510Y-81333262D01*
X47062510Y-81333262D02*
X47062510Y-79007755D01*
D19*
%TO.N,Net-(R9-Pad1)*%
X71500000Y-80300000D02*
X71500000Y-81900000D01*
X68800000Y-77600000D02*
X71500000Y-80300000D01*
%TO.N,/SENSOR_ENABLE*%
X65500000Y-75300000D02*
X62187500Y-71987500D01*
X62187500Y-71987500D02*
X62187500Y-71687500D01*
%TD*%
D21*
%TO.N,GND*%
X115340000Y-67646112D02*
X115301185Y-67598815D01*
X115204494Y-67519463D01*
X115094180Y-67460498D01*
X114974482Y-67424188D01*
X114850000Y-67411928D01*
X114285750Y-67415000D01*
X114127000Y-67573750D01*
X114127000Y-68773000D01*
X114147000Y-68773000D01*
X114147000Y-69027000D01*
X114127000Y-69027000D01*
X114127000Y-70226250D01*
X114285750Y-70385000D01*
X114850000Y-70388072D01*
X114974482Y-70375812D01*
X115094180Y-70339502D01*
X115204494Y-70280537D01*
X115301185Y-70201185D01*
X115340000Y-70153888D01*
X115340001Y-86340000D01*
X68086307Y-86340000D01*
X68143215Y-86152400D01*
X68160000Y-85981979D01*
X68160000Y-84818021D01*
X68143215Y-84647600D01*
X68076885Y-84428940D01*
X67969171Y-84227421D01*
X67824212Y-84050788D01*
X67647578Y-83905829D01*
X67446059Y-83798115D01*
X67227399Y-83731785D01*
X67000000Y-83709388D01*
X66772600Y-83731785D01*
X66553940Y-83798115D01*
X66352421Y-83905829D01*
X66175788Y-84050788D01*
X66030829Y-84227422D01*
X65923115Y-84428941D01*
X65856785Y-84647601D01*
X65840000Y-84818022D01*
X65840000Y-85981979D01*
X65856785Y-86152400D01*
X65913693Y-86340000D01*
X59446307Y-86340000D01*
X59503215Y-86152400D01*
X59520000Y-85981979D01*
X59520000Y-84818021D01*
X59503215Y-84647600D01*
X59436885Y-84428940D01*
X59329171Y-84227421D01*
X59184212Y-84050788D01*
X59007578Y-83905829D01*
X58806059Y-83798115D01*
X58587399Y-83731785D01*
X58360000Y-83709388D01*
X58132600Y-83731785D01*
X57913940Y-83798115D01*
X57712421Y-83905829D01*
X57535788Y-84050788D01*
X57390829Y-84227422D01*
X57283115Y-84428941D01*
X57216785Y-84647601D01*
X57200000Y-84818022D01*
X57200000Y-85981979D01*
X57216785Y-86152400D01*
X57273693Y-86340000D01*
X54321491Y-86340000D01*
X54299068Y-86227271D01*
X54228586Y-86057111D01*
X54171996Y-85972418D01*
X54171996Y-82827582D01*
X54192283Y-82797220D01*
X54379748Y-82874870D01*
X54757449Y-82950000D01*
X55142551Y-82950000D01*
X55520252Y-82874870D01*
X55876040Y-82727498D01*
X56196240Y-82513547D01*
X56468547Y-82241240D01*
X56682498Y-81921040D01*
X56829870Y-81565252D01*
X56905000Y-81187551D01*
X56905000Y-80802449D01*
X56872294Y-80638022D01*
X57200000Y-80638022D01*
X57200000Y-81801979D01*
X57216785Y-81972400D01*
X57283115Y-82191060D01*
X57390830Y-82392579D01*
X57535789Y-82569212D01*
X57712422Y-82714171D01*
X57913941Y-82821885D01*
X58132601Y-82888215D01*
X58360000Y-82910612D01*
X58587400Y-82888215D01*
X58806060Y-82821885D01*
X59007579Y-82714171D01*
X59184212Y-82569212D01*
X59205062Y-82543806D01*
X59323428Y-82622896D01*
X59502686Y-82697147D01*
X59692986Y-82735000D01*
X59887014Y-82735000D01*
X60077314Y-82697147D01*
X60256572Y-82622896D01*
X60417901Y-82515099D01*
X60555099Y-82377901D01*
X60662896Y-82216572D01*
X60737147Y-82037314D01*
X60775000Y-81847014D01*
X60775000Y-81652986D01*
X64585000Y-81652986D01*
X64585000Y-81847014D01*
X64622853Y-82037314D01*
X64697104Y-82216572D01*
X64804901Y-82377901D01*
X64942099Y-82515099D01*
X65103428Y-82622896D01*
X65282686Y-82697147D01*
X65472986Y-82735000D01*
X65667014Y-82735000D01*
X65857314Y-82697147D01*
X66036572Y-82622896D01*
X66154939Y-82543806D01*
X66175789Y-82569212D01*
X66352422Y-82714171D01*
X66553941Y-82821885D01*
X66772601Y-82888215D01*
X67000000Y-82910612D01*
X67227400Y-82888215D01*
X67446060Y-82821885D01*
X67647579Y-82714171D01*
X67824212Y-82569212D01*
X67969171Y-82392579D01*
X68076885Y-82191060D01*
X68143215Y-81972400D01*
X68160000Y-81801979D01*
X68160000Y-80638021D01*
X68143215Y-80467600D01*
X68076885Y-80248940D01*
X67969171Y-80047421D01*
X67824212Y-79870788D01*
X67647578Y-79725829D01*
X67446059Y-79618115D01*
X67227399Y-79551785D01*
X67000000Y-79529388D01*
X66772600Y-79551785D01*
X66553940Y-79618115D01*
X66352421Y-79725829D01*
X66175788Y-79870788D01*
X66030829Y-80047422D01*
X65923115Y-80248941D01*
X65856785Y-80467601D01*
X65840000Y-80638022D01*
X65840000Y-80799409D01*
X65667014Y-80765000D01*
X65472986Y-80765000D01*
X65282686Y-80802853D01*
X65103428Y-80877104D01*
X64942099Y-80984901D01*
X64804901Y-81122099D01*
X64697104Y-81283428D01*
X64622853Y-81462686D01*
X64585000Y-81652986D01*
X60775000Y-81652986D01*
X60737147Y-81462686D01*
X60662896Y-81283428D01*
X60555099Y-81122099D01*
X60417901Y-80984901D01*
X60256572Y-80877104D01*
X60077314Y-80802853D01*
X59887014Y-80765000D01*
X59692986Y-80765000D01*
X59520000Y-80799409D01*
X59520000Y-80638021D01*
X59503215Y-80467600D01*
X59436885Y-80248940D01*
X59329171Y-80047421D01*
X59184212Y-79870788D01*
X59007578Y-79725829D01*
X58806059Y-79618115D01*
X58587399Y-79551785D01*
X58360000Y-79529388D01*
X58132600Y-79551785D01*
X57913940Y-79618115D01*
X57712421Y-79725829D01*
X57535788Y-79870788D01*
X57390829Y-80047422D01*
X57283115Y-80248941D01*
X57216785Y-80467601D01*
X57200000Y-80638022D01*
X56872294Y-80638022D01*
X56829870Y-80424748D01*
X56682498Y-80068960D01*
X56468547Y-79748760D01*
X56196240Y-79476453D01*
X55876040Y-79262502D01*
X55520252Y-79115130D01*
X55142551Y-79040000D01*
X54757449Y-79040000D01*
X54379748Y-79115130D01*
X54023960Y-79262502D01*
X53703760Y-79476453D01*
X53431453Y-79748760D01*
X53217502Y-80068960D01*
X53129655Y-80281041D01*
X53099068Y-80127271D01*
X53085000Y-80093308D01*
X53085000Y-76638072D01*
X53200000Y-76638072D01*
X53324482Y-76625812D01*
X53444180Y-76589502D01*
X53554494Y-76530537D01*
X53651185Y-76451185D01*
X53730537Y-76354494D01*
X53789502Y-76244180D01*
X53825812Y-76124482D01*
X53838072Y-76000000D01*
X53838072Y-74000000D01*
X53825812Y-73875518D01*
X53789502Y-73755820D01*
X53730537Y-73645506D01*
X53651185Y-73548815D01*
X53554494Y-73469463D01*
X53444180Y-73410498D01*
X53324482Y-73374188D01*
X53200000Y-73361928D01*
X53085000Y-73361928D01*
X53085000Y-70107911D01*
X57665000Y-70107911D01*
X57665000Y-70292089D01*
X57700932Y-70472729D01*
X57771414Y-70642889D01*
X57873738Y-70796028D01*
X58003972Y-70926262D01*
X58090001Y-70983744D01*
X58090000Y-71787710D01*
X58073738Y-71803972D01*
X57971414Y-71957111D01*
X57900932Y-72127271D01*
X57865000Y-72307911D01*
X57865000Y-72492089D01*
X57900932Y-72672729D01*
X57971414Y-72842889D01*
X58073738Y-72996028D01*
X58203972Y-73126262D01*
X58357111Y-73228586D01*
X58527271Y-73299068D01*
X58707911Y-73335000D01*
X58892089Y-73335000D01*
X59072729Y-73299068D01*
X59242889Y-73228586D01*
X59396028Y-73126262D01*
X59526262Y-72996028D01*
X59628586Y-72842889D01*
X59699068Y-72672729D01*
X59735000Y-72492089D01*
X59735000Y-72307911D01*
X59699068Y-72127271D01*
X59628586Y-71957111D01*
X59526262Y-71803972D01*
X59510000Y-71787710D01*
X59510000Y-71595411D01*
X61252500Y-71595411D01*
X61252500Y-71779589D01*
X61288432Y-71960229D01*
X61358914Y-72130389D01*
X61461238Y-72283528D01*
X61591472Y-72413762D01*
X61652065Y-72454249D01*
X61683025Y-72491974D01*
X61710117Y-72514208D01*
X64565000Y-75369092D01*
X64565000Y-75392089D01*
X64600932Y-75572729D01*
X64671414Y-75742889D01*
X64773738Y-75896028D01*
X64903972Y-76026262D01*
X65057111Y-76128586D01*
X65227271Y-76199068D01*
X65407911Y-76235000D01*
X65592089Y-76235000D01*
X65772729Y-76199068D01*
X65942889Y-76128586D01*
X66096028Y-76026262D01*
X66226262Y-75896028D01*
X66328586Y-75742889D01*
X66399068Y-75572729D01*
X66413111Y-75502132D01*
X66471414Y-75642889D01*
X66573738Y-75796028D01*
X66703972Y-75926262D01*
X66857111Y-76028586D01*
X67027271Y-76099068D01*
X67207911Y-76135000D01*
X67230909Y-76135000D01*
X68086809Y-76990901D01*
X68073738Y-77003972D01*
X67971414Y-77157111D01*
X67900932Y-77327271D01*
X67865000Y-77507911D01*
X67865000Y-77692089D01*
X67900932Y-77872729D01*
X67971414Y-78042889D01*
X68073738Y-78196028D01*
X68203972Y-78326262D01*
X68357111Y-78428586D01*
X68527271Y-78499068D01*
X68707911Y-78535000D01*
X68730909Y-78535000D01*
X70790000Y-80594091D01*
X70790001Y-81287709D01*
X70773738Y-81303972D01*
X70671414Y-81457111D01*
X70600932Y-81627271D01*
X70565000Y-81807911D01*
X70565000Y-81992089D01*
X70600932Y-82172729D01*
X70671414Y-82342889D01*
X70773738Y-82496028D01*
X70903972Y-82626262D01*
X71057111Y-82728586D01*
X71227271Y-82799068D01*
X71407911Y-82835000D01*
X71592089Y-82835000D01*
X71772729Y-82799068D01*
X71820874Y-82779126D01*
X71800932Y-82827271D01*
X71765000Y-83007911D01*
X71765000Y-83192089D01*
X71800932Y-83372729D01*
X71871414Y-83542889D01*
X71973738Y-83696028D01*
X72103972Y-83826262D01*
X72257111Y-83928586D01*
X72427271Y-83999068D01*
X72607911Y-84035000D01*
X72792089Y-84035000D01*
X72972729Y-83999068D01*
X73142889Y-83928586D01*
X73296028Y-83826262D01*
X73426262Y-83696028D01*
X73528586Y-83542889D01*
X73599068Y-83372729D01*
X73635000Y-83192089D01*
X73635000Y-83007911D01*
X73599068Y-82827271D01*
X73528586Y-82657111D01*
X73426262Y-82503972D01*
X73410000Y-82487710D01*
X73410000Y-80634874D01*
X73413435Y-80599999D01*
X73407445Y-80539185D01*
X73399727Y-80460816D01*
X73359128Y-80326980D01*
X73293200Y-80203637D01*
X73204475Y-80095525D01*
X73177384Y-80073292D01*
X68235000Y-75130909D01*
X68235000Y-75107911D01*
X68199068Y-74927271D01*
X68128586Y-74757111D01*
X68026262Y-74603972D01*
X67896028Y-74473738D01*
X67742889Y-74371414D01*
X67572729Y-74300932D01*
X67392089Y-74265000D01*
X67207911Y-74265000D01*
X67027271Y-74300932D01*
X66857111Y-74371414D01*
X66703972Y-74473738D01*
X66573738Y-74603972D01*
X66471414Y-74757111D01*
X66400932Y-74927271D01*
X66386889Y-74997868D01*
X66328586Y-74857111D01*
X66226262Y-74703972D01*
X66096028Y-74573738D01*
X65942889Y-74471414D01*
X65772729Y-74400932D01*
X65592089Y-74365000D01*
X65569092Y-74365000D01*
X63099468Y-71895377D01*
X63122500Y-71779589D01*
X63122500Y-71595411D01*
X63086568Y-71414771D01*
X63016086Y-71244611D01*
X62913762Y-71091472D01*
X62783528Y-70961238D01*
X62630389Y-70858914D01*
X62460229Y-70788432D01*
X62279589Y-70752500D01*
X62095411Y-70752500D01*
X61914771Y-70788432D01*
X61744611Y-70858914D01*
X61591472Y-70961238D01*
X61461238Y-71091472D01*
X61358914Y-71244611D01*
X61288432Y-71414771D01*
X61252500Y-71595411D01*
X59510000Y-71595411D01*
X59510000Y-70434875D01*
X59513337Y-70400995D01*
X59535000Y-70292089D01*
X59535000Y-70107911D01*
X59499068Y-69927271D01*
X59428586Y-69757111D01*
X59326262Y-69603972D01*
X59196028Y-69473738D01*
X59042889Y-69371414D01*
X58872729Y-69300932D01*
X58692089Y-69265000D01*
X58507911Y-69265000D01*
X58327271Y-69300932D01*
X58157111Y-69371414D01*
X58003972Y-69473738D01*
X57873738Y-69603972D01*
X57771414Y-69757111D01*
X57700932Y-69927271D01*
X57665000Y-70107911D01*
X53085000Y-70107911D01*
X53085000Y-68285000D01*
X64465000Y-68285000D01*
X64465000Y-68292089D01*
X64489743Y-68416477D01*
X64357111Y-68471414D01*
X64203972Y-68573738D01*
X64073738Y-68703972D01*
X63971414Y-68857111D01*
X63900932Y-69027271D01*
X63865000Y-69207911D01*
X63865000Y-69392089D01*
X63900932Y-69572729D01*
X63971414Y-69742889D01*
X64073738Y-69896028D01*
X64203972Y-70026262D01*
X64357111Y-70128586D01*
X64527271Y-70199068D01*
X64707911Y-70235000D01*
X64730908Y-70235000D01*
X64873292Y-70377384D01*
X64895525Y-70404475D01*
X65003637Y-70493200D01*
X65126980Y-70559128D01*
X65260816Y-70599727D01*
X65365123Y-70610000D01*
X65365124Y-70610000D01*
X65399999Y-70613435D01*
X65434874Y-70610000D01*
X71594278Y-70610000D01*
X71520514Y-70670536D01*
X71498281Y-70697627D01*
X71230908Y-70965000D01*
X71207911Y-70965000D01*
X71027271Y-71000932D01*
X70857111Y-71071414D01*
X70703972Y-71173738D01*
X70573738Y-71303972D01*
X70471414Y-71457111D01*
X70400932Y-71627271D01*
X70365000Y-71807911D01*
X70365000Y-71992089D01*
X70400932Y-72172729D01*
X70471414Y-72342889D01*
X70573738Y-72496028D01*
X70703972Y-72626262D01*
X70857111Y-72728586D01*
X71027271Y-72799068D01*
X71207911Y-72835000D01*
X71392089Y-72835000D01*
X71572729Y-72799068D01*
X71742889Y-72728586D01*
X71896028Y-72626262D01*
X72026262Y-72496028D01*
X72128586Y-72342889D01*
X72199068Y-72172729D01*
X72235000Y-71992089D01*
X72235000Y-71969092D01*
X72319081Y-71885011D01*
X86207310Y-71885011D01*
X86127271Y-71900932D01*
X85957111Y-71971414D01*
X85803972Y-72073738D01*
X85673738Y-72203972D01*
X85571414Y-72357111D01*
X85500932Y-72527271D01*
X85465000Y-72707911D01*
X85465000Y-72892089D01*
X85500932Y-73072729D01*
X85571414Y-73242889D01*
X85673738Y-73396028D01*
X85690001Y-73412291D01*
X85690000Y-79065125D01*
X85686565Y-79100000D01*
X85690000Y-79134875D01*
X85690000Y-79134876D01*
X85700273Y-79239183D01*
X85740872Y-79373019D01*
X85806800Y-79496362D01*
X85895525Y-79604474D01*
X85922617Y-79626708D01*
X86765000Y-80469091D01*
X86765000Y-80492089D01*
X86800932Y-80672729D01*
X86871414Y-80842889D01*
X86973738Y-80996028D01*
X87103972Y-81126262D01*
X87257111Y-81228586D01*
X87427271Y-81299068D01*
X87607911Y-81335000D01*
X87792089Y-81335000D01*
X87972729Y-81299068D01*
X88142889Y-81228586D01*
X88296028Y-81126262D01*
X88426262Y-80996028D01*
X88528586Y-80842889D01*
X88599068Y-80672729D01*
X88635000Y-80492089D01*
X88635000Y-80307911D01*
X88599068Y-80127271D01*
X88528586Y-79957111D01*
X88426262Y-79803972D01*
X88296028Y-79673738D01*
X88142889Y-79571414D01*
X87972729Y-79500932D01*
X87792089Y-79465000D01*
X87769091Y-79465000D01*
X87110000Y-78805909D01*
X87110000Y-73412290D01*
X87126262Y-73396028D01*
X87228586Y-73242889D01*
X87299068Y-73072729D01*
X87335000Y-72892089D01*
X87335000Y-72707911D01*
X87299068Y-72527271D01*
X87228586Y-72357111D01*
X87126262Y-72203972D01*
X86996028Y-72073738D01*
X86842889Y-71971414D01*
X86672729Y-71900932D01*
X86592690Y-71885011D01*
X94736762Y-71885011D01*
X94603972Y-71973738D01*
X94473738Y-72103972D01*
X94371414Y-72257111D01*
X94300932Y-72427271D01*
X94265000Y-72607911D01*
X94265000Y-72792089D01*
X94300932Y-72972729D01*
X94371414Y-73142889D01*
X94473738Y-73296028D01*
X94603972Y-73426262D01*
X94757111Y-73528586D01*
X94927271Y-73599068D01*
X95107911Y-73635000D01*
X95130909Y-73635000D01*
X95890001Y-74394093D01*
X95890000Y-79187710D01*
X95873738Y-79203972D01*
X95771414Y-79357111D01*
X95700932Y-79527271D01*
X95665000Y-79707911D01*
X95665000Y-79892089D01*
X95700932Y-80072729D01*
X95771414Y-80242889D01*
X95873738Y-80396028D01*
X96003972Y-80526262D01*
X96157111Y-80628586D01*
X96327271Y-80699068D01*
X96507911Y-80735000D01*
X96692089Y-80735000D01*
X96872729Y-80699068D01*
X97042889Y-80628586D01*
X97196028Y-80526262D01*
X97326262Y-80396028D01*
X97428586Y-80242889D01*
X97499068Y-80072729D01*
X97535000Y-79892089D01*
X97535000Y-79707911D01*
X97499068Y-79527271D01*
X97428586Y-79357111D01*
X97326262Y-79203972D01*
X97310000Y-79187710D01*
X97310000Y-76135413D01*
X103234192Y-76135413D01*
X103329956Y-76399814D01*
X103619571Y-76540704D01*
X103931108Y-76622384D01*
X104252595Y-76641718D01*
X104571675Y-76597961D01*
X104876088Y-76492795D01*
X105050044Y-76399814D01*
X105145808Y-76135413D01*
X104190000Y-75179605D01*
X103234192Y-76135413D01*
X97310000Y-76135413D01*
X97310000Y-75062595D01*
X102548282Y-75062595D01*
X102592039Y-75381675D01*
X102697205Y-75686088D01*
X102790186Y-75860044D01*
X103054587Y-75955808D01*
X104010395Y-75000000D01*
X104369605Y-75000000D01*
X105325413Y-75955808D01*
X105589814Y-75860044D01*
X105730704Y-75570429D01*
X105812384Y-75258892D01*
X105831718Y-74937405D01*
X105810115Y-74779872D01*
X109665000Y-74779872D01*
X109665000Y-75220128D01*
X109750890Y-75651925D01*
X109919369Y-76058669D01*
X110163962Y-76424729D01*
X110475271Y-76736038D01*
X110841331Y-76980631D01*
X111248075Y-77149110D01*
X111679872Y-77235000D01*
X112120128Y-77235000D01*
X112551925Y-77149110D01*
X112958669Y-76980631D01*
X113324729Y-76736038D01*
X113636038Y-76424729D01*
X113880631Y-76058669D01*
X114049110Y-75651925D01*
X114135000Y-75220128D01*
X114135000Y-74779872D01*
X114049110Y-74348075D01*
X113880631Y-73941331D01*
X113636038Y-73575271D01*
X113324729Y-73263962D01*
X112958669Y-73019369D01*
X112551925Y-72850890D01*
X112120128Y-72765000D01*
X111679872Y-72765000D01*
X111248075Y-72850890D01*
X110841331Y-73019369D01*
X110475271Y-73263962D01*
X110163962Y-73575271D01*
X109919369Y-73941331D01*
X109750890Y-74348075D01*
X109665000Y-74779872D01*
X105810115Y-74779872D01*
X105787961Y-74618325D01*
X105682795Y-74313912D01*
X105589814Y-74139956D01*
X105325413Y-74044192D01*
X104369605Y-75000000D01*
X104010395Y-75000000D01*
X103054587Y-74044192D01*
X102790186Y-74139956D01*
X102649296Y-74429571D01*
X102567616Y-74741108D01*
X102548282Y-75062595D01*
X97310000Y-75062595D01*
X97310000Y-74134875D01*
X97313435Y-74100000D01*
X97310000Y-74065123D01*
X97299727Y-73960816D01*
X97270537Y-73864587D01*
X103234192Y-73864587D01*
X104190000Y-74820395D01*
X105145808Y-73864587D01*
X105050044Y-73600186D01*
X104760429Y-73459296D01*
X104448892Y-73377616D01*
X104127405Y-73358282D01*
X103808325Y-73402039D01*
X103503912Y-73507205D01*
X103329956Y-73600186D01*
X103234192Y-73864587D01*
X97270537Y-73864587D01*
X97259128Y-73826980D01*
X97193200Y-73703637D01*
X97104475Y-73595525D01*
X97077384Y-73573292D01*
X96135000Y-72630909D01*
X96135000Y-72607911D01*
X96099068Y-72427271D01*
X96028586Y-72257111D01*
X95926262Y-72103972D01*
X95796028Y-71973738D01*
X95663238Y-71885011D01*
X101364407Y-71885011D01*
X101380669Y-71901273D01*
X101533808Y-72003597D01*
X101703968Y-72074079D01*
X101884608Y-72110011D01*
X102068786Y-72110011D01*
X102249426Y-72074079D01*
X102419586Y-72003597D01*
X102572725Y-71901273D01*
X102575854Y-71898144D01*
X102603972Y-71926262D01*
X102757111Y-72028586D01*
X102927271Y-72099068D01*
X103107911Y-72135000D01*
X103292089Y-72135000D01*
X103472729Y-72099068D01*
X103642889Y-72028586D01*
X103796028Y-71926262D01*
X103926262Y-71796028D01*
X104028586Y-71642889D01*
X104040119Y-71615046D01*
X104139411Y-71494059D01*
X104221589Y-71340313D01*
X104272195Y-71173490D01*
X104285000Y-71043477D01*
X104285000Y-71043469D01*
X104289281Y-71000000D01*
X104285000Y-70956531D01*
X104285000Y-66718659D01*
X107061389Y-69495049D01*
X107089102Y-69528817D01*
X107122870Y-69556530D01*
X107122872Y-69556532D01*
X107179994Y-69603411D01*
X107223860Y-69639411D01*
X107377606Y-69721589D01*
X107544429Y-69772195D01*
X107674442Y-69785000D01*
X107674452Y-69785000D01*
X107717918Y-69789281D01*
X107727569Y-69788330D01*
X107766525Y-69846632D01*
X107973368Y-70053475D01*
X108216589Y-70215990D01*
X108486842Y-70327932D01*
X108773740Y-70385000D01*
X109066260Y-70385000D01*
X109353158Y-70327932D01*
X109623411Y-70215990D01*
X109866632Y-70053475D01*
X110073475Y-69846632D01*
X110190000Y-69672240D01*
X110306525Y-69846632D01*
X110513368Y-70053475D01*
X110756589Y-70215990D01*
X111026842Y-70327932D01*
X111313740Y-70385000D01*
X111606260Y-70385000D01*
X111893158Y-70327932D01*
X112163411Y-70215990D01*
X112406632Y-70053475D01*
X112538487Y-69921620D01*
X112560498Y-69994180D01*
X112619463Y-70104494D01*
X112698815Y-70201185D01*
X112795506Y-70280537D01*
X112905820Y-70339502D01*
X113025518Y-70375812D01*
X113150000Y-70388072D01*
X113714250Y-70385000D01*
X113873000Y-70226250D01*
X113873000Y-69027000D01*
X113853000Y-69027000D01*
X113853000Y-68773000D01*
X113873000Y-68773000D01*
X113873000Y-67573750D01*
X113714250Y-67415000D01*
X113150000Y-67411928D01*
X113025518Y-67424188D01*
X112905820Y-67460498D01*
X112795506Y-67519463D01*
X112698815Y-67598815D01*
X112619463Y-67695506D01*
X112560498Y-67805820D01*
X112538487Y-67878380D01*
X112406632Y-67746525D01*
X112163411Y-67584010D01*
X111893158Y-67472068D01*
X111606260Y-67415000D01*
X111313740Y-67415000D01*
X111026842Y-67472068D01*
X110756589Y-67584010D01*
X110513368Y-67746525D01*
X110306525Y-67953368D01*
X110190000Y-68127760D01*
X110073475Y-67953368D01*
X109866632Y-67746525D01*
X109623411Y-67584010D01*
X109353158Y-67472068D01*
X109066260Y-67415000D01*
X108773740Y-67415000D01*
X108486842Y-67472068D01*
X108216589Y-67584010D01*
X107973368Y-67746525D01*
X107894695Y-67825198D01*
X106384423Y-66314926D01*
X106444099Y-66296825D01*
X106706920Y-66171641D01*
X106940269Y-65997588D01*
X107135178Y-65781355D01*
X107204805Y-65664466D01*
X107326525Y-65846632D01*
X107533368Y-66053475D01*
X107776589Y-66215990D01*
X108046842Y-66327932D01*
X108333740Y-66385000D01*
X108626260Y-66385000D01*
X108913158Y-66327932D01*
X109183411Y-66215990D01*
X109426632Y-66053475D01*
X109633475Y-65846632D01*
X109750000Y-65672240D01*
X109866525Y-65846632D01*
X110073368Y-66053475D01*
X110316589Y-66215990D01*
X110586842Y-66327932D01*
X110873740Y-66385000D01*
X111166260Y-66385000D01*
X111453158Y-66327932D01*
X111723411Y-66215990D01*
X111966632Y-66053475D01*
X112173475Y-65846632D01*
X112335990Y-65603411D01*
X112447932Y-65333158D01*
X112505000Y-65046260D01*
X112505000Y-64753740D01*
X112447932Y-64466842D01*
X112335990Y-64196589D01*
X112173475Y-63953368D01*
X111966632Y-63746525D01*
X111837138Y-63660000D01*
X115340000Y-63660000D01*
X115340000Y-67646112D01*
%TA.AperFunction,Conductor*%
D22*
G36*
X115340000Y-67646112D02*
G01*
X115301185Y-67598815D01*
X115204494Y-67519463D01*
X115094180Y-67460498D01*
X114974482Y-67424188D01*
X114850000Y-67411928D01*
X114285750Y-67415000D01*
X114127000Y-67573750D01*
X114127000Y-68773000D01*
X114147000Y-68773000D01*
X114147000Y-69027000D01*
X114127000Y-69027000D01*
X114127000Y-70226250D01*
X114285750Y-70385000D01*
X114850000Y-70388072D01*
X114974482Y-70375812D01*
X115094180Y-70339502D01*
X115204494Y-70280537D01*
X115301185Y-70201185D01*
X115340000Y-70153888D01*
X115340001Y-86340000D01*
X68086307Y-86340000D01*
X68143215Y-86152400D01*
X68160000Y-85981979D01*
X68160000Y-84818021D01*
X68143215Y-84647600D01*
X68076885Y-84428940D01*
X67969171Y-84227421D01*
X67824212Y-84050788D01*
X67647578Y-83905829D01*
X67446059Y-83798115D01*
X67227399Y-83731785D01*
X67000000Y-83709388D01*
X66772600Y-83731785D01*
X66553940Y-83798115D01*
X66352421Y-83905829D01*
X66175788Y-84050788D01*
X66030829Y-84227422D01*
X65923115Y-84428941D01*
X65856785Y-84647601D01*
X65840000Y-84818022D01*
X65840000Y-85981979D01*
X65856785Y-86152400D01*
X65913693Y-86340000D01*
X59446307Y-86340000D01*
X59503215Y-86152400D01*
X59520000Y-85981979D01*
X59520000Y-84818021D01*
X59503215Y-84647600D01*
X59436885Y-84428940D01*
X59329171Y-84227421D01*
X59184212Y-84050788D01*
X59007578Y-83905829D01*
X58806059Y-83798115D01*
X58587399Y-83731785D01*
X58360000Y-83709388D01*
X58132600Y-83731785D01*
X57913940Y-83798115D01*
X57712421Y-83905829D01*
X57535788Y-84050788D01*
X57390829Y-84227422D01*
X57283115Y-84428941D01*
X57216785Y-84647601D01*
X57200000Y-84818022D01*
X57200000Y-85981979D01*
X57216785Y-86152400D01*
X57273693Y-86340000D01*
X54321491Y-86340000D01*
X54299068Y-86227271D01*
X54228586Y-86057111D01*
X54171996Y-85972418D01*
X54171996Y-82827582D01*
X54192283Y-82797220D01*
X54379748Y-82874870D01*
X54757449Y-82950000D01*
X55142551Y-82950000D01*
X55520252Y-82874870D01*
X55876040Y-82727498D01*
X56196240Y-82513547D01*
X56468547Y-82241240D01*
X56682498Y-81921040D01*
X56829870Y-81565252D01*
X56905000Y-81187551D01*
X56905000Y-80802449D01*
X56872294Y-80638022D01*
X57200000Y-80638022D01*
X57200000Y-81801979D01*
X57216785Y-81972400D01*
X57283115Y-82191060D01*
X57390830Y-82392579D01*
X57535789Y-82569212D01*
X57712422Y-82714171D01*
X57913941Y-82821885D01*
X58132601Y-82888215D01*
X58360000Y-82910612D01*
X58587400Y-82888215D01*
X58806060Y-82821885D01*
X59007579Y-82714171D01*
X59184212Y-82569212D01*
X59205062Y-82543806D01*
X59323428Y-82622896D01*
X59502686Y-82697147D01*
X59692986Y-82735000D01*
X59887014Y-82735000D01*
X60077314Y-82697147D01*
X60256572Y-82622896D01*
X60417901Y-82515099D01*
X60555099Y-82377901D01*
X60662896Y-82216572D01*
X60737147Y-82037314D01*
X60775000Y-81847014D01*
X60775000Y-81652986D01*
X64585000Y-81652986D01*
X64585000Y-81847014D01*
X64622853Y-82037314D01*
X64697104Y-82216572D01*
X64804901Y-82377901D01*
X64942099Y-82515099D01*
X65103428Y-82622896D01*
X65282686Y-82697147D01*
X65472986Y-82735000D01*
X65667014Y-82735000D01*
X65857314Y-82697147D01*
X66036572Y-82622896D01*
X66154939Y-82543806D01*
X66175789Y-82569212D01*
X66352422Y-82714171D01*
X66553941Y-82821885D01*
X66772601Y-82888215D01*
X67000000Y-82910612D01*
X67227400Y-82888215D01*
X67446060Y-82821885D01*
X67647579Y-82714171D01*
X67824212Y-82569212D01*
X67969171Y-82392579D01*
X68076885Y-82191060D01*
X68143215Y-81972400D01*
X68160000Y-81801979D01*
X68160000Y-80638021D01*
X68143215Y-80467600D01*
X68076885Y-80248940D01*
X67969171Y-80047421D01*
X67824212Y-79870788D01*
X67647578Y-79725829D01*
X67446059Y-79618115D01*
X67227399Y-79551785D01*
X67000000Y-79529388D01*
X66772600Y-79551785D01*
X66553940Y-79618115D01*
X66352421Y-79725829D01*
X66175788Y-79870788D01*
X66030829Y-80047422D01*
X65923115Y-80248941D01*
X65856785Y-80467601D01*
X65840000Y-80638022D01*
X65840000Y-80799409D01*
X65667014Y-80765000D01*
X65472986Y-80765000D01*
X65282686Y-80802853D01*
X65103428Y-80877104D01*
X64942099Y-80984901D01*
X64804901Y-81122099D01*
X64697104Y-81283428D01*
X64622853Y-81462686D01*
X64585000Y-81652986D01*
X60775000Y-81652986D01*
X60737147Y-81462686D01*
X60662896Y-81283428D01*
X60555099Y-81122099D01*
X60417901Y-80984901D01*
X60256572Y-80877104D01*
X60077314Y-80802853D01*
X59887014Y-80765000D01*
X59692986Y-80765000D01*
X59520000Y-80799409D01*
X59520000Y-80638021D01*
X59503215Y-80467600D01*
X59436885Y-80248940D01*
X59329171Y-80047421D01*
X59184212Y-79870788D01*
X59007578Y-79725829D01*
X58806059Y-79618115D01*
X58587399Y-79551785D01*
X58360000Y-79529388D01*
X58132600Y-79551785D01*
X57913940Y-79618115D01*
X57712421Y-79725829D01*
X57535788Y-79870788D01*
X57390829Y-80047422D01*
X57283115Y-80248941D01*
X57216785Y-80467601D01*
X57200000Y-80638022D01*
X56872294Y-80638022D01*
X56829870Y-80424748D01*
X56682498Y-80068960D01*
X56468547Y-79748760D01*
X56196240Y-79476453D01*
X55876040Y-79262502D01*
X55520252Y-79115130D01*
X55142551Y-79040000D01*
X54757449Y-79040000D01*
X54379748Y-79115130D01*
X54023960Y-79262502D01*
X53703760Y-79476453D01*
X53431453Y-79748760D01*
X53217502Y-80068960D01*
X53129655Y-80281041D01*
X53099068Y-80127271D01*
X53085000Y-80093308D01*
X53085000Y-76638072D01*
X53200000Y-76638072D01*
X53324482Y-76625812D01*
X53444180Y-76589502D01*
X53554494Y-76530537D01*
X53651185Y-76451185D01*
X53730537Y-76354494D01*
X53789502Y-76244180D01*
X53825812Y-76124482D01*
X53838072Y-76000000D01*
X53838072Y-74000000D01*
X53825812Y-73875518D01*
X53789502Y-73755820D01*
X53730537Y-73645506D01*
X53651185Y-73548815D01*
X53554494Y-73469463D01*
X53444180Y-73410498D01*
X53324482Y-73374188D01*
X53200000Y-73361928D01*
X53085000Y-73361928D01*
X53085000Y-70107911D01*
X57665000Y-70107911D01*
X57665000Y-70292089D01*
X57700932Y-70472729D01*
X57771414Y-70642889D01*
X57873738Y-70796028D01*
X58003972Y-70926262D01*
X58090001Y-70983744D01*
X58090000Y-71787710D01*
X58073738Y-71803972D01*
X57971414Y-71957111D01*
X57900932Y-72127271D01*
X57865000Y-72307911D01*
X57865000Y-72492089D01*
X57900932Y-72672729D01*
X57971414Y-72842889D01*
X58073738Y-72996028D01*
X58203972Y-73126262D01*
X58357111Y-73228586D01*
X58527271Y-73299068D01*
X58707911Y-73335000D01*
X58892089Y-73335000D01*
X59072729Y-73299068D01*
X59242889Y-73228586D01*
X59396028Y-73126262D01*
X59526262Y-72996028D01*
X59628586Y-72842889D01*
X59699068Y-72672729D01*
X59735000Y-72492089D01*
X59735000Y-72307911D01*
X59699068Y-72127271D01*
X59628586Y-71957111D01*
X59526262Y-71803972D01*
X59510000Y-71787710D01*
X59510000Y-71595411D01*
X61252500Y-71595411D01*
X61252500Y-71779589D01*
X61288432Y-71960229D01*
X61358914Y-72130389D01*
X61461238Y-72283528D01*
X61591472Y-72413762D01*
X61652065Y-72454249D01*
X61683025Y-72491974D01*
X61710117Y-72514208D01*
X64565000Y-75369092D01*
X64565000Y-75392089D01*
X64600932Y-75572729D01*
X64671414Y-75742889D01*
X64773738Y-75896028D01*
X64903972Y-76026262D01*
X65057111Y-76128586D01*
X65227271Y-76199068D01*
X65407911Y-76235000D01*
X65592089Y-76235000D01*
X65772729Y-76199068D01*
X65942889Y-76128586D01*
X66096028Y-76026262D01*
X66226262Y-75896028D01*
X66328586Y-75742889D01*
X66399068Y-75572729D01*
X66413111Y-75502132D01*
X66471414Y-75642889D01*
X66573738Y-75796028D01*
X66703972Y-75926262D01*
X66857111Y-76028586D01*
X67027271Y-76099068D01*
X67207911Y-76135000D01*
X67230909Y-76135000D01*
X68086809Y-76990901D01*
X68073738Y-77003972D01*
X67971414Y-77157111D01*
X67900932Y-77327271D01*
X67865000Y-77507911D01*
X67865000Y-77692089D01*
X67900932Y-77872729D01*
X67971414Y-78042889D01*
X68073738Y-78196028D01*
X68203972Y-78326262D01*
X68357111Y-78428586D01*
X68527271Y-78499068D01*
X68707911Y-78535000D01*
X68730909Y-78535000D01*
X70790000Y-80594091D01*
X70790001Y-81287709D01*
X70773738Y-81303972D01*
X70671414Y-81457111D01*
X70600932Y-81627271D01*
X70565000Y-81807911D01*
X70565000Y-81992089D01*
X70600932Y-82172729D01*
X70671414Y-82342889D01*
X70773738Y-82496028D01*
X70903972Y-82626262D01*
X71057111Y-82728586D01*
X71227271Y-82799068D01*
X71407911Y-82835000D01*
X71592089Y-82835000D01*
X71772729Y-82799068D01*
X71820874Y-82779126D01*
X71800932Y-82827271D01*
X71765000Y-83007911D01*
X71765000Y-83192089D01*
X71800932Y-83372729D01*
X71871414Y-83542889D01*
X71973738Y-83696028D01*
X72103972Y-83826262D01*
X72257111Y-83928586D01*
X72427271Y-83999068D01*
X72607911Y-84035000D01*
X72792089Y-84035000D01*
X72972729Y-83999068D01*
X73142889Y-83928586D01*
X73296028Y-83826262D01*
X73426262Y-83696028D01*
X73528586Y-83542889D01*
X73599068Y-83372729D01*
X73635000Y-83192089D01*
X73635000Y-83007911D01*
X73599068Y-82827271D01*
X73528586Y-82657111D01*
X73426262Y-82503972D01*
X73410000Y-82487710D01*
X73410000Y-80634874D01*
X73413435Y-80599999D01*
X73407445Y-80539185D01*
X73399727Y-80460816D01*
X73359128Y-80326980D01*
X73293200Y-80203637D01*
X73204475Y-80095525D01*
X73177384Y-80073292D01*
X68235000Y-75130909D01*
X68235000Y-75107911D01*
X68199068Y-74927271D01*
X68128586Y-74757111D01*
X68026262Y-74603972D01*
X67896028Y-74473738D01*
X67742889Y-74371414D01*
X67572729Y-74300932D01*
X67392089Y-74265000D01*
X67207911Y-74265000D01*
X67027271Y-74300932D01*
X66857111Y-74371414D01*
X66703972Y-74473738D01*
X66573738Y-74603972D01*
X66471414Y-74757111D01*
X66400932Y-74927271D01*
X66386889Y-74997868D01*
X66328586Y-74857111D01*
X66226262Y-74703972D01*
X66096028Y-74573738D01*
X65942889Y-74471414D01*
X65772729Y-74400932D01*
X65592089Y-74365000D01*
X65569092Y-74365000D01*
X63099468Y-71895377D01*
X63122500Y-71779589D01*
X63122500Y-71595411D01*
X63086568Y-71414771D01*
X63016086Y-71244611D01*
X62913762Y-71091472D01*
X62783528Y-70961238D01*
X62630389Y-70858914D01*
X62460229Y-70788432D01*
X62279589Y-70752500D01*
X62095411Y-70752500D01*
X61914771Y-70788432D01*
X61744611Y-70858914D01*
X61591472Y-70961238D01*
X61461238Y-71091472D01*
X61358914Y-71244611D01*
X61288432Y-71414771D01*
X61252500Y-71595411D01*
X59510000Y-71595411D01*
X59510000Y-70434875D01*
X59513337Y-70400995D01*
X59535000Y-70292089D01*
X59535000Y-70107911D01*
X59499068Y-69927271D01*
X59428586Y-69757111D01*
X59326262Y-69603972D01*
X59196028Y-69473738D01*
X59042889Y-69371414D01*
X58872729Y-69300932D01*
X58692089Y-69265000D01*
X58507911Y-69265000D01*
X58327271Y-69300932D01*
X58157111Y-69371414D01*
X58003972Y-69473738D01*
X57873738Y-69603972D01*
X57771414Y-69757111D01*
X57700932Y-69927271D01*
X57665000Y-70107911D01*
X53085000Y-70107911D01*
X53085000Y-68285000D01*
X64465000Y-68285000D01*
X64465000Y-68292089D01*
X64489743Y-68416477D01*
X64357111Y-68471414D01*
X64203972Y-68573738D01*
X64073738Y-68703972D01*
X63971414Y-68857111D01*
X63900932Y-69027271D01*
X63865000Y-69207911D01*
X63865000Y-69392089D01*
X63900932Y-69572729D01*
X63971414Y-69742889D01*
X64073738Y-69896028D01*
X64203972Y-70026262D01*
X64357111Y-70128586D01*
X64527271Y-70199068D01*
X64707911Y-70235000D01*
X64730908Y-70235000D01*
X64873292Y-70377384D01*
X64895525Y-70404475D01*
X65003637Y-70493200D01*
X65126980Y-70559128D01*
X65260816Y-70599727D01*
X65365123Y-70610000D01*
X65365124Y-70610000D01*
X65399999Y-70613435D01*
X65434874Y-70610000D01*
X71594278Y-70610000D01*
X71520514Y-70670536D01*
X71498281Y-70697627D01*
X71230908Y-70965000D01*
X71207911Y-70965000D01*
X71027271Y-71000932D01*
X70857111Y-71071414D01*
X70703972Y-71173738D01*
X70573738Y-71303972D01*
X70471414Y-71457111D01*
X70400932Y-71627271D01*
X70365000Y-71807911D01*
X70365000Y-71992089D01*
X70400932Y-72172729D01*
X70471414Y-72342889D01*
X70573738Y-72496028D01*
X70703972Y-72626262D01*
X70857111Y-72728586D01*
X71027271Y-72799068D01*
X71207911Y-72835000D01*
X71392089Y-72835000D01*
X71572729Y-72799068D01*
X71742889Y-72728586D01*
X71896028Y-72626262D01*
X72026262Y-72496028D01*
X72128586Y-72342889D01*
X72199068Y-72172729D01*
X72235000Y-71992089D01*
X72235000Y-71969092D01*
X72319081Y-71885011D01*
X86207310Y-71885011D01*
X86127271Y-71900932D01*
X85957111Y-71971414D01*
X85803972Y-72073738D01*
X85673738Y-72203972D01*
X85571414Y-72357111D01*
X85500932Y-72527271D01*
X85465000Y-72707911D01*
X85465000Y-72892089D01*
X85500932Y-73072729D01*
X85571414Y-73242889D01*
X85673738Y-73396028D01*
X85690001Y-73412291D01*
X85690000Y-79065125D01*
X85686565Y-79100000D01*
X85690000Y-79134875D01*
X85690000Y-79134876D01*
X85700273Y-79239183D01*
X85740872Y-79373019D01*
X85806800Y-79496362D01*
X85895525Y-79604474D01*
X85922617Y-79626708D01*
X86765000Y-80469091D01*
X86765000Y-80492089D01*
X86800932Y-80672729D01*
X86871414Y-80842889D01*
X86973738Y-80996028D01*
X87103972Y-81126262D01*
X87257111Y-81228586D01*
X87427271Y-81299068D01*
X87607911Y-81335000D01*
X87792089Y-81335000D01*
X87972729Y-81299068D01*
X88142889Y-81228586D01*
X88296028Y-81126262D01*
X88426262Y-80996028D01*
X88528586Y-80842889D01*
X88599068Y-80672729D01*
X88635000Y-80492089D01*
X88635000Y-80307911D01*
X88599068Y-80127271D01*
X88528586Y-79957111D01*
X88426262Y-79803972D01*
X88296028Y-79673738D01*
X88142889Y-79571414D01*
X87972729Y-79500932D01*
X87792089Y-79465000D01*
X87769091Y-79465000D01*
X87110000Y-78805909D01*
X87110000Y-73412290D01*
X87126262Y-73396028D01*
X87228586Y-73242889D01*
X87299068Y-73072729D01*
X87335000Y-72892089D01*
X87335000Y-72707911D01*
X87299068Y-72527271D01*
X87228586Y-72357111D01*
X87126262Y-72203972D01*
X86996028Y-72073738D01*
X86842889Y-71971414D01*
X86672729Y-71900932D01*
X86592690Y-71885011D01*
X94736762Y-71885011D01*
X94603972Y-71973738D01*
X94473738Y-72103972D01*
X94371414Y-72257111D01*
X94300932Y-72427271D01*
X94265000Y-72607911D01*
X94265000Y-72792089D01*
X94300932Y-72972729D01*
X94371414Y-73142889D01*
X94473738Y-73296028D01*
X94603972Y-73426262D01*
X94757111Y-73528586D01*
X94927271Y-73599068D01*
X95107911Y-73635000D01*
X95130909Y-73635000D01*
X95890001Y-74394093D01*
X95890000Y-79187710D01*
X95873738Y-79203972D01*
X95771414Y-79357111D01*
X95700932Y-79527271D01*
X95665000Y-79707911D01*
X95665000Y-79892089D01*
X95700932Y-80072729D01*
X95771414Y-80242889D01*
X95873738Y-80396028D01*
X96003972Y-80526262D01*
X96157111Y-80628586D01*
X96327271Y-80699068D01*
X96507911Y-80735000D01*
X96692089Y-80735000D01*
X96872729Y-80699068D01*
X97042889Y-80628586D01*
X97196028Y-80526262D01*
X97326262Y-80396028D01*
X97428586Y-80242889D01*
X97499068Y-80072729D01*
X97535000Y-79892089D01*
X97535000Y-79707911D01*
X97499068Y-79527271D01*
X97428586Y-79357111D01*
X97326262Y-79203972D01*
X97310000Y-79187710D01*
X97310000Y-76135413D01*
X103234192Y-76135413D01*
X103329956Y-76399814D01*
X103619571Y-76540704D01*
X103931108Y-76622384D01*
X104252595Y-76641718D01*
X104571675Y-76597961D01*
X104876088Y-76492795D01*
X105050044Y-76399814D01*
X105145808Y-76135413D01*
X104190000Y-75179605D01*
X103234192Y-76135413D01*
X97310000Y-76135413D01*
X97310000Y-75062595D01*
X102548282Y-75062595D01*
X102592039Y-75381675D01*
X102697205Y-75686088D01*
X102790186Y-75860044D01*
X103054587Y-75955808D01*
X104010395Y-75000000D01*
X104369605Y-75000000D01*
X105325413Y-75955808D01*
X105589814Y-75860044D01*
X105730704Y-75570429D01*
X105812384Y-75258892D01*
X105831718Y-74937405D01*
X105810115Y-74779872D01*
X109665000Y-74779872D01*
X109665000Y-75220128D01*
X109750890Y-75651925D01*
X109919369Y-76058669D01*
X110163962Y-76424729D01*
X110475271Y-76736038D01*
X110841331Y-76980631D01*
X111248075Y-77149110D01*
X111679872Y-77235000D01*
X112120128Y-77235000D01*
X112551925Y-77149110D01*
X112958669Y-76980631D01*
X113324729Y-76736038D01*
X113636038Y-76424729D01*
X113880631Y-76058669D01*
X114049110Y-75651925D01*
X114135000Y-75220128D01*
X114135000Y-74779872D01*
X114049110Y-74348075D01*
X113880631Y-73941331D01*
X113636038Y-73575271D01*
X113324729Y-73263962D01*
X112958669Y-73019369D01*
X112551925Y-72850890D01*
X112120128Y-72765000D01*
X111679872Y-72765000D01*
X111248075Y-72850890D01*
X110841331Y-73019369D01*
X110475271Y-73263962D01*
X110163962Y-73575271D01*
X109919369Y-73941331D01*
X109750890Y-74348075D01*
X109665000Y-74779872D01*
X105810115Y-74779872D01*
X105787961Y-74618325D01*
X105682795Y-74313912D01*
X105589814Y-74139956D01*
X105325413Y-74044192D01*
X104369605Y-75000000D01*
X104010395Y-75000000D01*
X103054587Y-74044192D01*
X102790186Y-74139956D01*
X102649296Y-74429571D01*
X102567616Y-74741108D01*
X102548282Y-75062595D01*
X97310000Y-75062595D01*
X97310000Y-74134875D01*
X97313435Y-74100000D01*
X97310000Y-74065123D01*
X97299727Y-73960816D01*
X97270537Y-73864587D01*
X103234192Y-73864587D01*
X104190000Y-74820395D01*
X105145808Y-73864587D01*
X105050044Y-73600186D01*
X104760429Y-73459296D01*
X104448892Y-73377616D01*
X104127405Y-73358282D01*
X103808325Y-73402039D01*
X103503912Y-73507205D01*
X103329956Y-73600186D01*
X103234192Y-73864587D01*
X97270537Y-73864587D01*
X97259128Y-73826980D01*
X97193200Y-73703637D01*
X97104475Y-73595525D01*
X97077384Y-73573292D01*
X96135000Y-72630909D01*
X96135000Y-72607911D01*
X96099068Y-72427271D01*
X96028586Y-72257111D01*
X95926262Y-72103972D01*
X95796028Y-71973738D01*
X95663238Y-71885011D01*
X101364407Y-71885011D01*
X101380669Y-71901273D01*
X101533808Y-72003597D01*
X101703968Y-72074079D01*
X101884608Y-72110011D01*
X102068786Y-72110011D01*
X102249426Y-72074079D01*
X102419586Y-72003597D01*
X102572725Y-71901273D01*
X102575854Y-71898144D01*
X102603972Y-71926262D01*
X102757111Y-72028586D01*
X102927271Y-72099068D01*
X103107911Y-72135000D01*
X103292089Y-72135000D01*
X103472729Y-72099068D01*
X103642889Y-72028586D01*
X103796028Y-71926262D01*
X103926262Y-71796028D01*
X104028586Y-71642889D01*
X104040119Y-71615046D01*
X104139411Y-71494059D01*
X104221589Y-71340313D01*
X104272195Y-71173490D01*
X104285000Y-71043477D01*
X104285000Y-71043469D01*
X104289281Y-71000000D01*
X104285000Y-70956531D01*
X104285000Y-66718659D01*
X107061389Y-69495049D01*
X107089102Y-69528817D01*
X107122870Y-69556530D01*
X107122872Y-69556532D01*
X107179994Y-69603411D01*
X107223860Y-69639411D01*
X107377606Y-69721589D01*
X107544429Y-69772195D01*
X107674442Y-69785000D01*
X107674452Y-69785000D01*
X107717918Y-69789281D01*
X107727569Y-69788330D01*
X107766525Y-69846632D01*
X107973368Y-70053475D01*
X108216589Y-70215990D01*
X108486842Y-70327932D01*
X108773740Y-70385000D01*
X109066260Y-70385000D01*
X109353158Y-70327932D01*
X109623411Y-70215990D01*
X109866632Y-70053475D01*
X110073475Y-69846632D01*
X110190000Y-69672240D01*
X110306525Y-69846632D01*
X110513368Y-70053475D01*
X110756589Y-70215990D01*
X111026842Y-70327932D01*
X111313740Y-70385000D01*
X111606260Y-70385000D01*
X111893158Y-70327932D01*
X112163411Y-70215990D01*
X112406632Y-70053475D01*
X112538487Y-69921620D01*
X112560498Y-69994180D01*
X112619463Y-70104494D01*
X112698815Y-70201185D01*
X112795506Y-70280537D01*
X112905820Y-70339502D01*
X113025518Y-70375812D01*
X113150000Y-70388072D01*
X113714250Y-70385000D01*
X113873000Y-70226250D01*
X113873000Y-69027000D01*
X113853000Y-69027000D01*
X113853000Y-68773000D01*
X113873000Y-68773000D01*
X113873000Y-67573750D01*
X113714250Y-67415000D01*
X113150000Y-67411928D01*
X113025518Y-67424188D01*
X112905820Y-67460498D01*
X112795506Y-67519463D01*
X112698815Y-67598815D01*
X112619463Y-67695506D01*
X112560498Y-67805820D01*
X112538487Y-67878380D01*
X112406632Y-67746525D01*
X112163411Y-67584010D01*
X111893158Y-67472068D01*
X111606260Y-67415000D01*
X111313740Y-67415000D01*
X111026842Y-67472068D01*
X110756589Y-67584010D01*
X110513368Y-67746525D01*
X110306525Y-67953368D01*
X110190000Y-68127760D01*
X110073475Y-67953368D01*
X109866632Y-67746525D01*
X109623411Y-67584010D01*
X109353158Y-67472068D01*
X109066260Y-67415000D01*
X108773740Y-67415000D01*
X108486842Y-67472068D01*
X108216589Y-67584010D01*
X107973368Y-67746525D01*
X107894695Y-67825198D01*
X106384423Y-66314926D01*
X106444099Y-66296825D01*
X106706920Y-66171641D01*
X106940269Y-65997588D01*
X107135178Y-65781355D01*
X107204805Y-65664466D01*
X107326525Y-65846632D01*
X107533368Y-66053475D01*
X107776589Y-66215990D01*
X108046842Y-66327932D01*
X108333740Y-66385000D01*
X108626260Y-66385000D01*
X108913158Y-66327932D01*
X109183411Y-66215990D01*
X109426632Y-66053475D01*
X109633475Y-65846632D01*
X109750000Y-65672240D01*
X109866525Y-65846632D01*
X110073368Y-66053475D01*
X110316589Y-66215990D01*
X110586842Y-66327932D01*
X110873740Y-66385000D01*
X111166260Y-66385000D01*
X111453158Y-66327932D01*
X111723411Y-66215990D01*
X111966632Y-66053475D01*
X112173475Y-65846632D01*
X112335990Y-65603411D01*
X112447932Y-65333158D01*
X112505000Y-65046260D01*
X112505000Y-64753740D01*
X112447932Y-64466842D01*
X112335990Y-64196589D01*
X112173475Y-63953368D01*
X111966632Y-63746525D01*
X111837138Y-63660000D01*
X115340000Y-63660000D01*
X115340000Y-67646112D01*
G37*
%TD.AperFunction*%
D21*
X73465000Y-63807911D02*
X73465000Y-63992089D01*
X73500932Y-64172729D01*
X73571414Y-64342889D01*
X73673738Y-64496028D01*
X73803972Y-64626262D01*
X73957111Y-64728586D01*
X74127271Y-64799068D01*
X74307911Y-64835000D01*
X74492089Y-64835000D01*
X74672729Y-64799068D01*
X74706692Y-64785000D01*
X79693308Y-64785000D01*
X79727271Y-64799068D01*
X79907911Y-64835000D01*
X80092089Y-64835000D01*
X80272729Y-64799068D01*
X80442889Y-64728586D01*
X80596028Y-64626262D01*
X80726262Y-64496028D01*
X80828586Y-64342889D01*
X80899068Y-64172729D01*
X80935000Y-63992089D01*
X80935000Y-63807911D01*
X80905578Y-63660000D01*
X83294422Y-63660000D01*
X83265000Y-63807911D01*
X83265000Y-63992089D01*
X83300932Y-64172729D01*
X83371414Y-64342889D01*
X83473738Y-64496028D01*
X83603972Y-64626262D01*
X83757111Y-64728586D01*
X83927271Y-64799068D01*
X84107911Y-64835000D01*
X84292089Y-64835000D01*
X84472729Y-64799068D01*
X84506692Y-64785000D01*
X89393308Y-64785000D01*
X89427271Y-64799068D01*
X89607911Y-64835000D01*
X89792089Y-64835000D01*
X89972729Y-64799068D01*
X90142889Y-64728586D01*
X90296028Y-64626262D01*
X90426262Y-64496028D01*
X90528586Y-64342889D01*
X90599068Y-64172729D01*
X90635000Y-63992089D01*
X90635000Y-63807911D01*
X90605578Y-63660000D01*
X92774530Y-63660000D01*
X92765000Y-63707911D01*
X92765000Y-63892089D01*
X92800932Y-64072729D01*
X92871414Y-64242889D01*
X92973738Y-64396028D01*
X93103972Y-64526262D01*
X93257111Y-64628586D01*
X93427271Y-64699068D01*
X93607911Y-64735000D01*
X93792089Y-64735000D01*
X93972729Y-64699068D01*
X94006692Y-64685000D01*
X97163421Y-64685000D01*
X95333422Y-66515000D01*
X86406692Y-66515000D01*
X86372729Y-66500932D01*
X86192089Y-66465000D01*
X86007911Y-66465000D01*
X85827271Y-66500932D01*
X85793308Y-66515000D01*
X76706692Y-66515000D01*
X76672729Y-66500932D01*
X76492089Y-66465000D01*
X76307911Y-66465000D01*
X76127271Y-66500932D01*
X76093308Y-66515000D01*
X52443469Y-66515000D01*
X52400000Y-66510719D01*
X52356531Y-66515000D01*
X52356523Y-66515000D01*
X52226510Y-66527805D01*
X52059687Y-66578411D01*
X51905941Y-66660589D01*
X51771183Y-66771183D01*
X51743466Y-66804956D01*
X51604952Y-66943470D01*
X51571184Y-66971183D01*
X51543471Y-67004951D01*
X51543468Y-67004954D01*
X51460590Y-67105941D01*
X51378412Y-67259687D01*
X51327805Y-67426510D01*
X51310719Y-67600000D01*
X51315001Y-67643479D01*
X51315001Y-70710910D01*
X50735000Y-70130909D01*
X50735000Y-70107911D01*
X50699068Y-69927271D01*
X50628586Y-69757111D01*
X50526262Y-69603972D01*
X50396028Y-69473738D01*
X50242889Y-69371414D01*
X50072729Y-69300932D01*
X49892089Y-69265000D01*
X49707911Y-69265000D01*
X49527271Y-69300932D01*
X49357111Y-69371414D01*
X49203972Y-69473738D01*
X49073738Y-69603972D01*
X48971414Y-69757111D01*
X48900932Y-69927271D01*
X48865000Y-70107911D01*
X48865000Y-70292089D01*
X48900932Y-70472729D01*
X48971414Y-70642889D01*
X49073738Y-70796028D01*
X49203972Y-70926262D01*
X49357111Y-71028586D01*
X49527271Y-71099068D01*
X49707911Y-71135000D01*
X49730909Y-71135000D01*
X50190001Y-71594092D01*
X50190000Y-72387710D01*
X50173738Y-72403972D01*
X50071414Y-72557111D01*
X50000932Y-72727271D01*
X49965000Y-72907911D01*
X49965000Y-73092089D01*
X50000932Y-73272729D01*
X50071414Y-73442889D01*
X50173738Y-73596028D01*
X50303972Y-73726262D01*
X50457111Y-73828586D01*
X50574040Y-73877019D01*
X50561928Y-74000000D01*
X50561928Y-76000000D01*
X50574188Y-76124482D01*
X50610498Y-76244180D01*
X50669463Y-76354494D01*
X50748815Y-76451185D01*
X50845506Y-76530537D01*
X50955820Y-76589502D01*
X51075518Y-76625812D01*
X51200000Y-76638072D01*
X51315000Y-76638072D01*
X51315001Y-80093305D01*
X51300932Y-80127271D01*
X51265000Y-80307911D01*
X51265000Y-80492089D01*
X51300932Y-80672729D01*
X51371414Y-80842889D01*
X51473738Y-80996028D01*
X51603972Y-81126262D01*
X51757111Y-81228586D01*
X51927271Y-81299068D01*
X52107911Y-81335000D01*
X52292089Y-81335000D01*
X52472729Y-81299068D01*
X52642889Y-81228586D01*
X52796028Y-81126262D01*
X52926262Y-80996028D01*
X52995000Y-80893154D01*
X52995000Y-81187551D01*
X53044282Y-81435307D01*
X52957111Y-81471414D01*
X52803972Y-81573738D01*
X52673738Y-81703972D01*
X52571414Y-81857111D01*
X52539658Y-81933777D01*
X52465408Y-82072691D01*
X52414801Y-82239514D01*
X52397715Y-82413004D01*
X52401997Y-82456483D01*
X52401996Y-86340000D01*
X51538072Y-86340000D01*
X51538072Y-81700000D01*
X51525812Y-81575518D01*
X51489502Y-81455820D01*
X51430537Y-81345506D01*
X51351185Y-81248815D01*
X51254494Y-81169463D01*
X51144180Y-81110498D01*
X51024482Y-81074188D01*
X50900000Y-81061928D01*
X47900000Y-81061928D01*
X47822510Y-81069560D01*
X47822510Y-79553290D01*
X47891096Y-79450644D01*
X47961578Y-79280484D01*
X47997510Y-79099844D01*
X47997510Y-78915666D01*
X47961578Y-78735026D01*
X47891096Y-78564866D01*
X47788772Y-78411727D01*
X47658538Y-78281493D01*
X47505399Y-78179169D01*
X47335239Y-78108687D01*
X47154599Y-78072755D01*
X46970421Y-78072755D01*
X46789781Y-78108687D01*
X46619621Y-78179169D01*
X46466482Y-78281493D01*
X46336248Y-78411727D01*
X46233924Y-78564866D01*
X46163442Y-78735026D01*
X46127510Y-78915666D01*
X46127510Y-79099844D01*
X46163442Y-79280484D01*
X46233924Y-79450644D01*
X46302511Y-79553292D01*
X46302511Y-80144577D01*
X46299068Y-80127271D01*
X46228586Y-79957111D01*
X46126262Y-79803972D01*
X45996028Y-79673738D01*
X45842889Y-79571414D01*
X45672729Y-79500932D01*
X45492089Y-79465000D01*
X45307911Y-79465000D01*
X45127271Y-79500932D01*
X44957111Y-79571414D01*
X44803972Y-79673738D01*
X44673738Y-79803972D01*
X44571414Y-79957111D01*
X44557345Y-79991076D01*
X44185023Y-80363399D01*
X44151256Y-80391111D01*
X44123543Y-80424879D01*
X44123540Y-80424882D01*
X44040662Y-80525869D01*
X43958484Y-80679615D01*
X43907877Y-80846438D01*
X43890791Y-81019928D01*
X43895073Y-81063407D01*
X43895072Y-85436603D01*
X43890791Y-85480072D01*
X43895072Y-85523541D01*
X43895072Y-85523548D01*
X43907877Y-85653561D01*
X43958483Y-85820384D01*
X44040661Y-85974130D01*
X44151255Y-86108889D01*
X44185028Y-86136606D01*
X44388422Y-86340000D01*
X40660000Y-86340000D01*
X40660000Y-74779872D01*
X42165000Y-74779872D01*
X42165000Y-75220128D01*
X42250890Y-75651925D01*
X42419369Y-76058669D01*
X42663962Y-76424729D01*
X42975271Y-76736038D01*
X43341331Y-76980631D01*
X43748075Y-77149110D01*
X44179872Y-77235000D01*
X44620128Y-77235000D01*
X45051925Y-77149110D01*
X45458669Y-76980631D01*
X45824729Y-76736038D01*
X46136038Y-76424729D01*
X46380631Y-76058669D01*
X46549110Y-75651925D01*
X46635000Y-75220128D01*
X46635000Y-74779872D01*
X46549110Y-74348075D01*
X46380631Y-73941331D01*
X46136038Y-73575271D01*
X45824729Y-73263962D01*
X45458669Y-73019369D01*
X45051925Y-72850890D01*
X44620128Y-72765000D01*
X44179872Y-72765000D01*
X43748075Y-72850890D01*
X43341331Y-73019369D01*
X42975271Y-73263962D01*
X42663962Y-73575271D01*
X42419369Y-73941331D01*
X42250890Y-74348075D01*
X42165000Y-74779872D01*
X40660000Y-74779872D01*
X40660000Y-63660000D01*
X73494422Y-63660000D01*
X73465000Y-63807911D01*
%TA.AperFunction,Conductor*%
D22*
G36*
X73465000Y-63807911D02*
G01*
X73465000Y-63992089D01*
X73500932Y-64172729D01*
X73571414Y-64342889D01*
X73673738Y-64496028D01*
X73803972Y-64626262D01*
X73957111Y-64728586D01*
X74127271Y-64799068D01*
X74307911Y-64835000D01*
X74492089Y-64835000D01*
X74672729Y-64799068D01*
X74706692Y-64785000D01*
X79693308Y-64785000D01*
X79727271Y-64799068D01*
X79907911Y-64835000D01*
X80092089Y-64835000D01*
X80272729Y-64799068D01*
X80442889Y-64728586D01*
X80596028Y-64626262D01*
X80726262Y-64496028D01*
X80828586Y-64342889D01*
X80899068Y-64172729D01*
X80935000Y-63992089D01*
X80935000Y-63807911D01*
X80905578Y-63660000D01*
X83294422Y-63660000D01*
X83265000Y-63807911D01*
X83265000Y-63992089D01*
X83300932Y-64172729D01*
X83371414Y-64342889D01*
X83473738Y-64496028D01*
X83603972Y-64626262D01*
X83757111Y-64728586D01*
X83927271Y-64799068D01*
X84107911Y-64835000D01*
X84292089Y-64835000D01*
X84472729Y-64799068D01*
X84506692Y-64785000D01*
X89393308Y-64785000D01*
X89427271Y-64799068D01*
X89607911Y-64835000D01*
X89792089Y-64835000D01*
X89972729Y-64799068D01*
X90142889Y-64728586D01*
X90296028Y-64626262D01*
X90426262Y-64496028D01*
X90528586Y-64342889D01*
X90599068Y-64172729D01*
X90635000Y-63992089D01*
X90635000Y-63807911D01*
X90605578Y-63660000D01*
X92774530Y-63660000D01*
X92765000Y-63707911D01*
X92765000Y-63892089D01*
X92800932Y-64072729D01*
X92871414Y-64242889D01*
X92973738Y-64396028D01*
X93103972Y-64526262D01*
X93257111Y-64628586D01*
X93427271Y-64699068D01*
X93607911Y-64735000D01*
X93792089Y-64735000D01*
X93972729Y-64699068D01*
X94006692Y-64685000D01*
X97163421Y-64685000D01*
X95333422Y-66515000D01*
X86406692Y-66515000D01*
X86372729Y-66500932D01*
X86192089Y-66465000D01*
X86007911Y-66465000D01*
X85827271Y-66500932D01*
X85793308Y-66515000D01*
X76706692Y-66515000D01*
X76672729Y-66500932D01*
X76492089Y-66465000D01*
X76307911Y-66465000D01*
X76127271Y-66500932D01*
X76093308Y-66515000D01*
X52443469Y-66515000D01*
X52400000Y-66510719D01*
X52356531Y-66515000D01*
X52356523Y-66515000D01*
X52226510Y-66527805D01*
X52059687Y-66578411D01*
X51905941Y-66660589D01*
X51771183Y-66771183D01*
X51743466Y-66804956D01*
X51604952Y-66943470D01*
X51571184Y-66971183D01*
X51543471Y-67004951D01*
X51543468Y-67004954D01*
X51460590Y-67105941D01*
X51378412Y-67259687D01*
X51327805Y-67426510D01*
X51310719Y-67600000D01*
X51315001Y-67643479D01*
X51315001Y-70710910D01*
X50735000Y-70130909D01*
X50735000Y-70107911D01*
X50699068Y-69927271D01*
X50628586Y-69757111D01*
X50526262Y-69603972D01*
X50396028Y-69473738D01*
X50242889Y-69371414D01*
X50072729Y-69300932D01*
X49892089Y-69265000D01*
X49707911Y-69265000D01*
X49527271Y-69300932D01*
X49357111Y-69371414D01*
X49203972Y-69473738D01*
X49073738Y-69603972D01*
X48971414Y-69757111D01*
X48900932Y-69927271D01*
X48865000Y-70107911D01*
X48865000Y-70292089D01*
X48900932Y-70472729D01*
X48971414Y-70642889D01*
X49073738Y-70796028D01*
X49203972Y-70926262D01*
X49357111Y-71028586D01*
X49527271Y-71099068D01*
X49707911Y-71135000D01*
X49730909Y-71135000D01*
X50190001Y-71594092D01*
X50190000Y-72387710D01*
X50173738Y-72403972D01*
X50071414Y-72557111D01*
X50000932Y-72727271D01*
X49965000Y-72907911D01*
X49965000Y-73092089D01*
X50000932Y-73272729D01*
X50071414Y-73442889D01*
X50173738Y-73596028D01*
X50303972Y-73726262D01*
X50457111Y-73828586D01*
X50574040Y-73877019D01*
X50561928Y-74000000D01*
X50561928Y-76000000D01*
X50574188Y-76124482D01*
X50610498Y-76244180D01*
X50669463Y-76354494D01*
X50748815Y-76451185D01*
X50845506Y-76530537D01*
X50955820Y-76589502D01*
X51075518Y-76625812D01*
X51200000Y-76638072D01*
X51315000Y-76638072D01*
X51315001Y-80093305D01*
X51300932Y-80127271D01*
X51265000Y-80307911D01*
X51265000Y-80492089D01*
X51300932Y-80672729D01*
X51371414Y-80842889D01*
X51473738Y-80996028D01*
X51603972Y-81126262D01*
X51757111Y-81228586D01*
X51927271Y-81299068D01*
X52107911Y-81335000D01*
X52292089Y-81335000D01*
X52472729Y-81299068D01*
X52642889Y-81228586D01*
X52796028Y-81126262D01*
X52926262Y-80996028D01*
X52995000Y-80893154D01*
X52995000Y-81187551D01*
X53044282Y-81435307D01*
X52957111Y-81471414D01*
X52803972Y-81573738D01*
X52673738Y-81703972D01*
X52571414Y-81857111D01*
X52539658Y-81933777D01*
X52465408Y-82072691D01*
X52414801Y-82239514D01*
X52397715Y-82413004D01*
X52401997Y-82456483D01*
X52401996Y-86340000D01*
X51538072Y-86340000D01*
X51538072Y-81700000D01*
X51525812Y-81575518D01*
X51489502Y-81455820D01*
X51430537Y-81345506D01*
X51351185Y-81248815D01*
X51254494Y-81169463D01*
X51144180Y-81110498D01*
X51024482Y-81074188D01*
X50900000Y-81061928D01*
X47900000Y-81061928D01*
X47822510Y-81069560D01*
X47822510Y-79553290D01*
X47891096Y-79450644D01*
X47961578Y-79280484D01*
X47997510Y-79099844D01*
X47997510Y-78915666D01*
X47961578Y-78735026D01*
X47891096Y-78564866D01*
X47788772Y-78411727D01*
X47658538Y-78281493D01*
X47505399Y-78179169D01*
X47335239Y-78108687D01*
X47154599Y-78072755D01*
X46970421Y-78072755D01*
X46789781Y-78108687D01*
X46619621Y-78179169D01*
X46466482Y-78281493D01*
X46336248Y-78411727D01*
X46233924Y-78564866D01*
X46163442Y-78735026D01*
X46127510Y-78915666D01*
X46127510Y-79099844D01*
X46163442Y-79280484D01*
X46233924Y-79450644D01*
X46302511Y-79553292D01*
X46302511Y-80144577D01*
X46299068Y-80127271D01*
X46228586Y-79957111D01*
X46126262Y-79803972D01*
X45996028Y-79673738D01*
X45842889Y-79571414D01*
X45672729Y-79500932D01*
X45492089Y-79465000D01*
X45307911Y-79465000D01*
X45127271Y-79500932D01*
X44957111Y-79571414D01*
X44803972Y-79673738D01*
X44673738Y-79803972D01*
X44571414Y-79957111D01*
X44557345Y-79991076D01*
X44185023Y-80363399D01*
X44151256Y-80391111D01*
X44123543Y-80424879D01*
X44123540Y-80424882D01*
X44040662Y-80525869D01*
X43958484Y-80679615D01*
X43907877Y-80846438D01*
X43890791Y-81019928D01*
X43895073Y-81063407D01*
X43895072Y-85436603D01*
X43890791Y-85480072D01*
X43895072Y-85523541D01*
X43895072Y-85523548D01*
X43907877Y-85653561D01*
X43958483Y-85820384D01*
X44040661Y-85974130D01*
X44151255Y-86108889D01*
X44185028Y-86136606D01*
X44388422Y-86340000D01*
X40660000Y-86340000D01*
X40660000Y-74779872D01*
X42165000Y-74779872D01*
X42165000Y-75220128D01*
X42250890Y-75651925D01*
X42419369Y-76058669D01*
X42663962Y-76424729D01*
X42975271Y-76736038D01*
X43341331Y-76980631D01*
X43748075Y-77149110D01*
X44179872Y-77235000D01*
X44620128Y-77235000D01*
X45051925Y-77149110D01*
X45458669Y-76980631D01*
X45824729Y-76736038D01*
X46136038Y-76424729D01*
X46380631Y-76058669D01*
X46549110Y-75651925D01*
X46635000Y-75220128D01*
X46635000Y-74779872D01*
X46549110Y-74348075D01*
X46380631Y-73941331D01*
X46136038Y-73575271D01*
X45824729Y-73263962D01*
X45458669Y-73019369D01*
X45051925Y-72850890D01*
X44620128Y-72765000D01*
X44179872Y-72765000D01*
X43748075Y-72850890D01*
X43341331Y-73019369D01*
X42975271Y-73263962D01*
X42663962Y-73575271D01*
X42419369Y-73941331D01*
X42250890Y-74348075D01*
X42165000Y-74779872D01*
X40660000Y-74779872D01*
X40660000Y-63660000D01*
X73494422Y-63660000D01*
X73465000Y-63807911D01*
G37*
%TD.AperFunction*%
D21*
X106067000Y-64773000D02*
X106087000Y-64773000D01*
X106087000Y-65027000D01*
X106067000Y-65027000D01*
X106067000Y-65047000D01*
X105813000Y-65047000D01*
X105813000Y-65027000D01*
X105793000Y-65027000D01*
X105793000Y-64773000D01*
X105813000Y-64773000D01*
X105813000Y-64753000D01*
X106067000Y-64753000D01*
X106067000Y-64773000D01*
%TA.AperFunction,Conductor*%
D22*
G36*
X106067000Y-64773000D02*
G01*
X106087000Y-64773000D01*
X106087000Y-65027000D01*
X106067000Y-65027000D01*
X106067000Y-65047000D01*
X105813000Y-65047000D01*
X105813000Y-65027000D01*
X105793000Y-65027000D01*
X105793000Y-64773000D01*
X105813000Y-64773000D01*
X105813000Y-64753000D01*
X106067000Y-64753000D01*
X106067000Y-64773000D01*
G37*
%TD.AperFunction*%
%TD*%
M02*
