%TF.GenerationSoftware,KiCad,Pcbnew,5.1.12-84ad8e8a86~92~ubuntu20.04.1*%
%TF.CreationDate,2021-11-18T17:44:13-07:00*%
%TF.ProjectId,snail-bot,736e6169-6c2d-4626-9f74-2e6b69636164,rev?*%
%TF.SameCoordinates,Original*%
%TF.FileFunction,Copper,L1,Top*%
%TF.FilePolarity,Positive*%
%FSLAX46Y46*%
G04 Gerber Fmt 4.6, Leading zero omitted, Abs format (unit mm)*
G04 Created by KiCad (PCBNEW 5.1.12-84ad8e8a86~92~ubuntu20.04.1) date 2021-11-18 17:44:13*
%MOMM*%
%LPD*%
G01*
G04 APERTURE LIST*
%TA.AperFunction,SMDPad,CuDef*%
%ADD10R,2.700000X3.800000*%
%TD*%
%TA.AperFunction,ComponentPad*%
%ADD11C,0.600000*%
%TD*%
%TA.AperFunction,SMDPad,CuDef*%
%ADD12R,1.500000X2.300000*%
%TD*%
%TA.AperFunction,SMDPad,CuDef*%
%ADD13R,0.700000X3.500000*%
%TD*%
%TA.AperFunction,SMDPad,CuDef*%
%ADD14R,0.600000X2.200000*%
%TD*%
%TA.AperFunction,SMDPad,CuDef*%
%ADD15R,0.450000X1.450000*%
%TD*%
%TA.AperFunction,ComponentPad*%
%ADD16O,1.700000X1.700000*%
%TD*%
%TA.AperFunction,ComponentPad*%
%ADD17R,1.700000X1.700000*%
%TD*%
%TA.AperFunction,ComponentPad*%
%ADD18O,1.050000X2.100000*%
%TD*%
%TA.AperFunction,SMDPad,CuDef*%
%ADD19R,0.600000X1.450000*%
%TD*%
%TA.AperFunction,SMDPad,CuDef*%
%ADD20R,0.300000X1.450000*%
%TD*%
%TA.AperFunction,SMDPad,CuDef*%
%ADD21R,2.300000X2.500000*%
%TD*%
%TA.AperFunction,ComponentPad*%
%ADD22R,2.000000X2.000000*%
%TD*%
%TA.AperFunction,ComponentPad*%
%ADD23C,2.000000*%
%TD*%
%TA.AperFunction,ViaPad*%
%ADD24C,0.600000*%
%TD*%
%TA.AperFunction,Conductor*%
%ADD25C,0.500000*%
%TD*%
%TA.AperFunction,Conductor*%
%ADD26C,0.250000*%
%TD*%
%TA.AperFunction,Conductor*%
%ADD27C,0.150000*%
%TD*%
%TA.AperFunction,Conductor*%
%ADD28C,0.254000*%
%TD*%
%TA.AperFunction,Conductor*%
%ADD29C,0.100000*%
%TD*%
G04 APERTURE END LIST*
D10*
%TO.P,U5,9*%
%TO.N,N/C*%
X49400000Y-84200000D03*
%TO.P,U5,8*%
%TO.N,VCC*%
%TA.AperFunction,SMDPad,CuDef*%
G36*
G01*
X51200000Y-82445000D02*
X51200000Y-82145000D01*
G75*
G02*
X51350000Y-81995000I150000J0D01*
G01*
X52700000Y-81995000D01*
G75*
G02*
X52850000Y-82145000I0J-150000D01*
G01*
X52850000Y-82445000D01*
G75*
G02*
X52700000Y-82595000I-150000J0D01*
G01*
X51350000Y-82595000D01*
G75*
G02*
X51200000Y-82445000I0J150000D01*
G01*
G37*
%TD.AperFunction*%
%TO.P,U5,7*%
%TO.N,Net-(D3-Pad1)*%
%TA.AperFunction,SMDPad,CuDef*%
G36*
G01*
X51200000Y-83715000D02*
X51200000Y-83415000D01*
G75*
G02*
X51350000Y-83265000I150000J0D01*
G01*
X52700000Y-83265000D01*
G75*
G02*
X52850000Y-83415000I0J-150000D01*
G01*
X52850000Y-83715000D01*
G75*
G02*
X52700000Y-83865000I-150000J0D01*
G01*
X51350000Y-83865000D01*
G75*
G02*
X51200000Y-83715000I0J150000D01*
G01*
G37*
%TD.AperFunction*%
%TO.P,U5,6*%
%TO.N,Net-(D2-Pad1)*%
%TA.AperFunction,SMDPad,CuDef*%
G36*
G01*
X51200000Y-84985000D02*
X51200000Y-84685000D01*
G75*
G02*
X51350000Y-84535000I150000J0D01*
G01*
X52700000Y-84535000D01*
G75*
G02*
X52850000Y-84685000I0J-150000D01*
G01*
X52850000Y-84985000D01*
G75*
G02*
X52700000Y-85135000I-150000J0D01*
G01*
X51350000Y-85135000D01*
G75*
G02*
X51200000Y-84985000I0J150000D01*
G01*
G37*
%TD.AperFunction*%
%TO.P,U5,5*%
%TO.N,VCC*%
%TA.AperFunction,SMDPad,CuDef*%
G36*
G01*
X51200000Y-86255000D02*
X51200000Y-85955000D01*
G75*
G02*
X51350000Y-85805000I150000J0D01*
G01*
X52700000Y-85805000D01*
G75*
G02*
X52850000Y-85955000I0J-150000D01*
G01*
X52850000Y-86255000D01*
G75*
G02*
X52700000Y-86405000I-150000J0D01*
G01*
X51350000Y-86405000D01*
G75*
G02*
X51200000Y-86255000I0J150000D01*
G01*
G37*
%TD.AperFunction*%
%TO.P,U5,4*%
%TO.N,+5V*%
%TA.AperFunction,SMDPad,CuDef*%
G36*
G01*
X45950000Y-86255000D02*
X45950000Y-85955000D01*
G75*
G02*
X46100000Y-85805000I150000J0D01*
G01*
X47450000Y-85805000D01*
G75*
G02*
X47600000Y-85955000I0J-150000D01*
G01*
X47600000Y-86255000D01*
G75*
G02*
X47450000Y-86405000I-150000J0D01*
G01*
X46100000Y-86405000D01*
G75*
G02*
X45950000Y-86255000I0J150000D01*
G01*
G37*
%TD.AperFunction*%
%TO.P,U5,3*%
%TO.N,GND*%
%TA.AperFunction,SMDPad,CuDef*%
G36*
G01*
X45950000Y-84985000D02*
X45950000Y-84685000D01*
G75*
G02*
X46100000Y-84535000I150000J0D01*
G01*
X47450000Y-84535000D01*
G75*
G02*
X47600000Y-84685000I0J-150000D01*
G01*
X47600000Y-84985000D01*
G75*
G02*
X47450000Y-85135000I-150000J0D01*
G01*
X46100000Y-85135000D01*
G75*
G02*
X45950000Y-84985000I0J150000D01*
G01*
G37*
%TD.AperFunction*%
%TO.P,U5,2*%
%TO.N,Net-(R8-Pad2)*%
%TA.AperFunction,SMDPad,CuDef*%
G36*
G01*
X45950000Y-83715000D02*
X45950000Y-83415000D01*
G75*
G02*
X46100000Y-83265000I150000J0D01*
G01*
X47450000Y-83265000D01*
G75*
G02*
X47600000Y-83415000I0J-150000D01*
G01*
X47600000Y-83715000D01*
G75*
G02*
X47450000Y-83865000I-150000J0D01*
G01*
X46100000Y-83865000D01*
G75*
G02*
X45950000Y-83715000I0J150000D01*
G01*
G37*
%TD.AperFunction*%
%TO.P,U5,1*%
%TO.N,GND*%
%TA.AperFunction,SMDPad,CuDef*%
G36*
G01*
X45950000Y-82445000D02*
X45950000Y-82145000D01*
G75*
G02*
X46100000Y-81995000I150000J0D01*
G01*
X47450000Y-81995000D01*
G75*
G02*
X47600000Y-82145000I0J-150000D01*
G01*
X47600000Y-82445000D01*
G75*
G02*
X47450000Y-82595000I-150000J0D01*
G01*
X46100000Y-82595000D01*
G75*
G02*
X45950000Y-82445000I0J150000D01*
G01*
G37*
%TD.AperFunction*%
D11*
%TO.P,U5,9*%
%TO.N,N/C*%
X48400000Y-82600000D03*
X50400000Y-82600000D03*
X48400000Y-85700000D03*
X50400000Y-85700000D03*
X49400000Y-84200000D03*
%TD*%
D12*
%TO.P,J13,~*%
%TO.N,N/C*%
X83000000Y-82800000D03*
X88600000Y-82800000D03*
D13*
%TO.P,J13,2*%
%TO.N,/SW3*%
X85050000Y-84800000D03*
%TO.P,J13,1*%
%TO.N,GND*%
X86550000Y-84800000D03*
%TD*%
D12*
%TO.P,J12,~*%
%TO.N,N/C*%
X46800000Y-67200000D03*
X41200000Y-67200000D03*
D13*
%TO.P,J12,2*%
%TO.N,Net-(J12-Pad2)*%
X44750000Y-65200000D03*
%TO.P,J12,1*%
%TO.N,/SENSOR_1*%
X43250000Y-65200000D03*
%TD*%
D12*
%TO.P,J11,~*%
%TO.N,N/C*%
X64000000Y-67200000D03*
X58400000Y-67200000D03*
D13*
%TO.P,J11,2*%
%TO.N,Net-(J11-Pad2)*%
X61950000Y-65200000D03*
%TO.P,J11,1*%
%TO.N,/SENSOR_3*%
X60450000Y-65200000D03*
%TD*%
D12*
%TO.P,J10,~*%
%TO.N,N/C*%
X55400000Y-67200000D03*
X49800000Y-67200000D03*
D13*
%TO.P,J10,2*%
%TO.N,Net-(J10-Pad2)*%
X53350000Y-65200000D03*
%TO.P,J10,1*%
%TO.N,/SENSOR_2*%
X51850000Y-65200000D03*
%TD*%
D12*
%TO.P,J9,~*%
%TO.N,N/C*%
X91600000Y-82800000D03*
X97200000Y-82800000D03*
D13*
%TO.P,J9,2*%
%TO.N,/SW2*%
X93650000Y-84800000D03*
%TO.P,J9,1*%
%TO.N,GND*%
X95150000Y-84800000D03*
%TD*%
D12*
%TO.P,J7,~*%
%TO.N,N/C*%
X100200000Y-82800000D03*
X105800000Y-82800000D03*
D13*
%TO.P,J7,2*%
%TO.N,/SW1*%
X102250000Y-84800000D03*
%TO.P,J7,1*%
%TO.N,GND*%
X103750000Y-84800000D03*
%TD*%
D12*
%TO.P,J3,~*%
%TO.N,N/C*%
X98400000Y-67200000D03*
X92800000Y-67200000D03*
D13*
%TO.P,J3,2*%
%TO.N,/MOTOR_OUT_3A*%
X96350000Y-65200000D03*
%TO.P,J3,1*%
%TO.N,/MOTOR_OUT_3B*%
X94850000Y-65200000D03*
%TD*%
D12*
%TO.P,J2,~*%
%TO.N,N/C*%
X88800000Y-67200000D03*
X83200000Y-67200000D03*
D13*
%TO.P,J2,2*%
%TO.N,/MOTOR_OUT_2A*%
X86750000Y-65200000D03*
%TO.P,J2,1*%
%TO.N,/MOTOR_OUT_2B*%
X85250000Y-65200000D03*
%TD*%
D12*
%TO.P,J1,~*%
%TO.N,N/C*%
X79200000Y-67200000D03*
X73600000Y-67200000D03*
D13*
%TO.P,J1,2*%
%TO.N,/MOTOR_OUT_1A*%
X77150000Y-65200000D03*
%TO.P,J1,1*%
%TO.N,/MOTOR_OUT_1B*%
X75650000Y-65200000D03*
%TD*%
D14*
%TO.P,U4,5*%
%TO.N,GND*%
X93895000Y-76200000D03*
%TO.P,U4,6*%
%TO.N,/MOTOR_SIGNAL_3A*%
X95165000Y-76200000D03*
%TO.P,U4,8*%
%TO.N,GND*%
X97705000Y-76200000D03*
%TO.P,U4,4*%
%TO.N,/MOTOR_OUT_3B*%
X93895000Y-71000000D03*
%TO.P,U4,3*%
%TO.N,VCC*%
X95165000Y-71000000D03*
%TO.P,U4,1*%
%TO.N,/MOTOR_OUT_3A*%
X97705000Y-71000000D03*
%TO.P,U4,7*%
%TO.N,/MOTOR_SIGNAL_3B*%
X96435000Y-76200000D03*
%TO.P,U4,2*%
%TO.N,VCC*%
X96435000Y-71000000D03*
%TD*%
%TO.P,U3,5*%
%TO.N,GND*%
X85095000Y-76200000D03*
%TO.P,U3,6*%
%TO.N,/MOTOR_SIGNAL_2A*%
X86365000Y-76200000D03*
%TO.P,U3,8*%
%TO.N,GND*%
X88905000Y-76200000D03*
%TO.P,U3,4*%
%TO.N,/MOTOR_OUT_2B*%
X85095000Y-71000000D03*
%TO.P,U3,3*%
%TO.N,VCC*%
X86365000Y-71000000D03*
%TO.P,U3,1*%
%TO.N,/MOTOR_OUT_2A*%
X88905000Y-71000000D03*
%TO.P,U3,7*%
%TO.N,/MOTOR_SIGNAL_2B*%
X87635000Y-76200000D03*
%TO.P,U3,2*%
%TO.N,VCC*%
X87635000Y-71000000D03*
%TD*%
%TO.P,U2,5*%
%TO.N,GND*%
X76695000Y-76200000D03*
%TO.P,U2,6*%
%TO.N,/MOTOR_SIGNAL_1A*%
X77965000Y-76200000D03*
%TO.P,U2,8*%
%TO.N,GND*%
X80505000Y-76200000D03*
%TO.P,U2,4*%
%TO.N,/MOTOR_OUT_1B*%
X76695000Y-71000000D03*
%TO.P,U2,3*%
%TO.N,VCC*%
X77965000Y-71000000D03*
%TO.P,U2,1*%
%TO.N,/MOTOR_OUT_1A*%
X80505000Y-71000000D03*
%TO.P,U2,7*%
%TO.N,/MOTOR_SIGNAL_1B*%
X79235000Y-76200000D03*
%TO.P,U2,2*%
%TO.N,VCC*%
X79235000Y-71000000D03*
%TD*%
D15*
%TO.P,U1,20*%
%TO.N,/SERIAL*%
X64875000Y-70650000D03*
%TO.P,U1,19*%
%TO.N,/SWCLK*%
X65525000Y-70650000D03*
%TO.P,U1,18*%
%TO.N,/SWDIO*%
X66175000Y-70650000D03*
%TO.P,U1,17*%
%TO.N,/MOTOR_SIGNAL_3B*%
X66825000Y-70650000D03*
%TO.P,U1,16*%
%TO.N,/MOTOR_SIGNAL_3A*%
X67475000Y-70650000D03*
%TO.P,U1,15*%
%TO.N,/MOTOR_SIGNAL_2B*%
X68125000Y-70650000D03*
%TO.P,U1,14*%
%TO.N,/MOTOR_SIGNAL_2A*%
X68775000Y-70650000D03*
%TO.P,U1,13*%
%TO.N,/MOTOR_SIGNAL_1A*%
X69425000Y-70650000D03*
%TO.P,U1,12*%
%TO.N,/MOTOR_SIGNAL_1B*%
X70075000Y-70650000D03*
%TO.P,U1,11*%
%TO.N,/SW1*%
X70725000Y-70650000D03*
%TO.P,U1,10*%
%TO.N,/SENSOR_3*%
X70725000Y-76550000D03*
%TO.P,U1,9*%
%TO.N,/SENSOR_2*%
X70075000Y-76550000D03*
%TO.P,U1,8*%
%TO.N,/SENSOR_1*%
X69425000Y-76550000D03*
%TO.P,U1,7*%
%TO.N,Net-(R9-Pad1)*%
X68775000Y-76550000D03*
%TO.P,U1,6*%
%TO.N,Net-(R2-Pad1)*%
X68125000Y-76550000D03*
%TO.P,U1,5*%
%TO.N,GND*%
X67475000Y-76550000D03*
%TO.P,U1,4*%
%TO.N,VCC*%
X66825000Y-76550000D03*
%TO.P,U1,3*%
%TO.N,/SW2*%
X66175000Y-76550000D03*
%TO.P,U1,2*%
%TO.N,/SENSOR_ENABLE*%
X65525000Y-76550000D03*
%TO.P,U1,1*%
%TO.N,/SW3*%
X64875000Y-76550000D03*
%TD*%
%TO.P,R16,2*%
%TO.N,/SW3*%
%TA.AperFunction,SMDPad,CuDef*%
G36*
G01*
X85350000Y-79543750D02*
X85350000Y-80056250D01*
G75*
G02*
X85131250Y-80275000I-218750J0D01*
G01*
X84693750Y-80275000D01*
G75*
G02*
X84475000Y-80056250I0J218750D01*
G01*
X84475000Y-79543750D01*
G75*
G02*
X84693750Y-79325000I218750J0D01*
G01*
X85131250Y-79325000D01*
G75*
G02*
X85350000Y-79543750I0J-218750D01*
G01*
G37*
%TD.AperFunction*%
%TO.P,R16,1*%
%TO.N,VCC*%
%TA.AperFunction,SMDPad,CuDef*%
G36*
G01*
X86925000Y-79543750D02*
X86925000Y-80056250D01*
G75*
G02*
X86706250Y-80275000I-218750J0D01*
G01*
X86268750Y-80275000D01*
G75*
G02*
X86050000Y-80056250I0J218750D01*
G01*
X86050000Y-79543750D01*
G75*
G02*
X86268750Y-79325000I218750J0D01*
G01*
X86706250Y-79325000D01*
G75*
G02*
X86925000Y-79543750I0J-218750D01*
G01*
G37*
%TD.AperFunction*%
%TD*%
%TO.P,R15,2*%
%TO.N,Net-(J12-Pad2)*%
%TA.AperFunction,SMDPad,CuDef*%
G36*
G01*
X48756250Y-70550000D02*
X48243750Y-70550000D01*
G75*
G02*
X48025000Y-70331250I0J218750D01*
G01*
X48025000Y-69893750D01*
G75*
G02*
X48243750Y-69675000I218750J0D01*
G01*
X48756250Y-69675000D01*
G75*
G02*
X48975000Y-69893750I0J-218750D01*
G01*
X48975000Y-70331250D01*
G75*
G02*
X48756250Y-70550000I-218750J0D01*
G01*
G37*
%TD.AperFunction*%
%TO.P,R15,1*%
%TO.N,/SENSOR_ENABLE*%
%TA.AperFunction,SMDPad,CuDef*%
G36*
G01*
X48756250Y-72125000D02*
X48243750Y-72125000D01*
G75*
G02*
X48025000Y-71906250I0J218750D01*
G01*
X48025000Y-71468750D01*
G75*
G02*
X48243750Y-71250000I218750J0D01*
G01*
X48756250Y-71250000D01*
G75*
G02*
X48975000Y-71468750I0J-218750D01*
G01*
X48975000Y-71906250D01*
G75*
G02*
X48756250Y-72125000I-218750J0D01*
G01*
G37*
%TD.AperFunction*%
%TD*%
%TO.P,R14,2*%
%TO.N,Net-(J11-Pad2)*%
%TA.AperFunction,SMDPad,CuDef*%
G36*
G01*
X63356250Y-70550000D02*
X62843750Y-70550000D01*
G75*
G02*
X62625000Y-70331250I0J218750D01*
G01*
X62625000Y-69893750D01*
G75*
G02*
X62843750Y-69675000I218750J0D01*
G01*
X63356250Y-69675000D01*
G75*
G02*
X63575000Y-69893750I0J-218750D01*
G01*
X63575000Y-70331250D01*
G75*
G02*
X63356250Y-70550000I-218750J0D01*
G01*
G37*
%TD.AperFunction*%
%TO.P,R14,1*%
%TO.N,/SENSOR_ENABLE*%
%TA.AperFunction,SMDPad,CuDef*%
G36*
G01*
X63356250Y-72125000D02*
X62843750Y-72125000D01*
G75*
G02*
X62625000Y-71906250I0J218750D01*
G01*
X62625000Y-71468750D01*
G75*
G02*
X62843750Y-71250000I218750J0D01*
G01*
X63356250Y-71250000D01*
G75*
G02*
X63575000Y-71468750I0J-218750D01*
G01*
X63575000Y-71906250D01*
G75*
G02*
X63356250Y-72125000I-218750J0D01*
G01*
G37*
%TD.AperFunction*%
%TD*%
%TO.P,R13,2*%
%TO.N,Net-(J10-Pad2)*%
%TA.AperFunction,SMDPad,CuDef*%
G36*
G01*
X54456250Y-70550000D02*
X53943750Y-70550000D01*
G75*
G02*
X53725000Y-70331250I0J218750D01*
G01*
X53725000Y-69893750D01*
G75*
G02*
X53943750Y-69675000I218750J0D01*
G01*
X54456250Y-69675000D01*
G75*
G02*
X54675000Y-69893750I0J-218750D01*
G01*
X54675000Y-70331250D01*
G75*
G02*
X54456250Y-70550000I-218750J0D01*
G01*
G37*
%TD.AperFunction*%
%TO.P,R13,1*%
%TO.N,/SENSOR_ENABLE*%
%TA.AperFunction,SMDPad,CuDef*%
G36*
G01*
X54456250Y-72125000D02*
X53943750Y-72125000D01*
G75*
G02*
X53725000Y-71906250I0J218750D01*
G01*
X53725000Y-71468750D01*
G75*
G02*
X53943750Y-71250000I218750J0D01*
G01*
X54456250Y-71250000D01*
G75*
G02*
X54675000Y-71468750I0J-218750D01*
G01*
X54675000Y-71906250D01*
G75*
G02*
X54456250Y-72125000I-218750J0D01*
G01*
G37*
%TD.AperFunction*%
%TD*%
%TO.P,R12,2*%
%TO.N,/SW2*%
%TA.AperFunction,SMDPad,CuDef*%
G36*
G01*
X94150000Y-79543750D02*
X94150000Y-80056250D01*
G75*
G02*
X93931250Y-80275000I-218750J0D01*
G01*
X93493750Y-80275000D01*
G75*
G02*
X93275000Y-80056250I0J218750D01*
G01*
X93275000Y-79543750D01*
G75*
G02*
X93493750Y-79325000I218750J0D01*
G01*
X93931250Y-79325000D01*
G75*
G02*
X94150000Y-79543750I0J-218750D01*
G01*
G37*
%TD.AperFunction*%
%TO.P,R12,1*%
%TO.N,VCC*%
%TA.AperFunction,SMDPad,CuDef*%
G36*
G01*
X95725000Y-79543750D02*
X95725000Y-80056250D01*
G75*
G02*
X95506250Y-80275000I-218750J0D01*
G01*
X95068750Y-80275000D01*
G75*
G02*
X94850000Y-80056250I0J218750D01*
G01*
X94850000Y-79543750D01*
G75*
G02*
X95068750Y-79325000I218750J0D01*
G01*
X95506250Y-79325000D01*
G75*
G02*
X95725000Y-79543750I0J-218750D01*
G01*
G37*
%TD.AperFunction*%
%TD*%
%TO.P,R11,2*%
%TO.N,GND*%
%TA.AperFunction,SMDPad,CuDef*%
G36*
G01*
X106150000Y-78143750D02*
X106150000Y-78656250D01*
G75*
G02*
X105931250Y-78875000I-218750J0D01*
G01*
X105493750Y-78875000D01*
G75*
G02*
X105275000Y-78656250I0J218750D01*
G01*
X105275000Y-78143750D01*
G75*
G02*
X105493750Y-77925000I218750J0D01*
G01*
X105931250Y-77925000D01*
G75*
G02*
X106150000Y-78143750I0J-218750D01*
G01*
G37*
%TD.AperFunction*%
%TO.P,R11,1*%
%TO.N,Net-(D4-Pad1)*%
%TA.AperFunction,SMDPad,CuDef*%
G36*
G01*
X107725000Y-78143750D02*
X107725000Y-78656250D01*
G75*
G02*
X107506250Y-78875000I-218750J0D01*
G01*
X107068750Y-78875000D01*
G75*
G02*
X106850000Y-78656250I0J218750D01*
G01*
X106850000Y-78143750D01*
G75*
G02*
X107068750Y-77925000I218750J0D01*
G01*
X107506250Y-77925000D01*
G75*
G02*
X107725000Y-78143750I0J-218750D01*
G01*
G37*
%TD.AperFunction*%
%TD*%
%TO.P,R10,2*%
%TO.N,/SW1*%
%TA.AperFunction,SMDPad,CuDef*%
G36*
G01*
X102650000Y-79543750D02*
X102650000Y-80056250D01*
G75*
G02*
X102431250Y-80275000I-218750J0D01*
G01*
X101993750Y-80275000D01*
G75*
G02*
X101775000Y-80056250I0J218750D01*
G01*
X101775000Y-79543750D01*
G75*
G02*
X101993750Y-79325000I218750J0D01*
G01*
X102431250Y-79325000D01*
G75*
G02*
X102650000Y-79543750I0J-218750D01*
G01*
G37*
%TD.AperFunction*%
%TO.P,R10,1*%
%TO.N,VCC*%
%TA.AperFunction,SMDPad,CuDef*%
G36*
G01*
X104225000Y-79543750D02*
X104225000Y-80056250D01*
G75*
G02*
X104006250Y-80275000I-218750J0D01*
G01*
X103568750Y-80275000D01*
G75*
G02*
X103350000Y-80056250I0J218750D01*
G01*
X103350000Y-79543750D01*
G75*
G02*
X103568750Y-79325000I218750J0D01*
G01*
X104006250Y-79325000D01*
G75*
G02*
X104225000Y-79543750I0J-218750D01*
G01*
G37*
%TD.AperFunction*%
%TD*%
%TO.P,R9,2*%
%TO.N,+5V*%
%TA.AperFunction,SMDPad,CuDef*%
G36*
G01*
X69250000Y-81543750D02*
X69250000Y-82056250D01*
G75*
G02*
X69031250Y-82275000I-218750J0D01*
G01*
X68593750Y-82275000D01*
G75*
G02*
X68375000Y-82056250I0J218750D01*
G01*
X68375000Y-81543750D01*
G75*
G02*
X68593750Y-81325000I218750J0D01*
G01*
X69031250Y-81325000D01*
G75*
G02*
X69250000Y-81543750I0J-218750D01*
G01*
G37*
%TD.AperFunction*%
%TO.P,R9,1*%
%TO.N,Net-(R9-Pad1)*%
%TA.AperFunction,SMDPad,CuDef*%
G36*
G01*
X70825000Y-81543750D02*
X70825000Y-82056250D01*
G75*
G02*
X70606250Y-82275000I-218750J0D01*
G01*
X70168750Y-82275000D01*
G75*
G02*
X69950000Y-82056250I0J218750D01*
G01*
X69950000Y-81543750D01*
G75*
G02*
X70168750Y-81325000I218750J0D01*
G01*
X70606250Y-81325000D01*
G75*
G02*
X70825000Y-81543750I0J-218750D01*
G01*
G37*
%TD.AperFunction*%
%TD*%
%TO.P,R8,2*%
%TO.N,Net-(R8-Pad2)*%
%TA.AperFunction,SMDPad,CuDef*%
G36*
G01*
X48250000Y-78343750D02*
X48250000Y-78856250D01*
G75*
G02*
X48031250Y-79075000I-218750J0D01*
G01*
X47593750Y-79075000D01*
G75*
G02*
X47375000Y-78856250I0J218750D01*
G01*
X47375000Y-78343750D01*
G75*
G02*
X47593750Y-78125000I218750J0D01*
G01*
X48031250Y-78125000D01*
G75*
G02*
X48250000Y-78343750I0J-218750D01*
G01*
G37*
%TD.AperFunction*%
%TO.P,R8,1*%
%TO.N,GND*%
%TA.AperFunction,SMDPad,CuDef*%
G36*
G01*
X49825000Y-78343750D02*
X49825000Y-78856250D01*
G75*
G02*
X49606250Y-79075000I-218750J0D01*
G01*
X49168750Y-79075000D01*
G75*
G02*
X48950000Y-78856250I0J218750D01*
G01*
X48950000Y-78343750D01*
G75*
G02*
X49168750Y-78125000I218750J0D01*
G01*
X49606250Y-78125000D01*
G75*
G02*
X49825000Y-78343750I0J-218750D01*
G01*
G37*
%TD.AperFunction*%
%TD*%
%TO.P,R5,2*%
%TO.N,+5V*%
%TA.AperFunction,SMDPad,CuDef*%
G36*
G01*
X57762500Y-78556250D02*
X57762500Y-78043750D01*
G75*
G02*
X57981250Y-77825000I218750J0D01*
G01*
X58418750Y-77825000D01*
G75*
G02*
X58637500Y-78043750I0J-218750D01*
G01*
X58637500Y-78556250D01*
G75*
G02*
X58418750Y-78775000I-218750J0D01*
G01*
X57981250Y-78775000D01*
G75*
G02*
X57762500Y-78556250I0J218750D01*
G01*
G37*
%TD.AperFunction*%
%TO.P,R5,1*%
%TO.N,Net-(D2-Pad2)*%
%TA.AperFunction,SMDPad,CuDef*%
G36*
G01*
X56187500Y-78556250D02*
X56187500Y-78043750D01*
G75*
G02*
X56406250Y-77825000I218750J0D01*
G01*
X56843750Y-77825000D01*
G75*
G02*
X57062500Y-78043750I0J-218750D01*
G01*
X57062500Y-78556250D01*
G75*
G02*
X56843750Y-78775000I-218750J0D01*
G01*
X56406250Y-78775000D01*
G75*
G02*
X56187500Y-78556250I0J218750D01*
G01*
G37*
%TD.AperFunction*%
%TD*%
%TO.P,R3,2*%
%TO.N,Net-(J4-PadB5)*%
%TA.AperFunction,SMDPad,CuDef*%
G36*
G01*
X71156250Y-84950000D02*
X70643750Y-84950000D01*
G75*
G02*
X70425000Y-84731250I0J218750D01*
G01*
X70425000Y-84293750D01*
G75*
G02*
X70643750Y-84075000I218750J0D01*
G01*
X71156250Y-84075000D01*
G75*
G02*
X71375000Y-84293750I0J-218750D01*
G01*
X71375000Y-84731250D01*
G75*
G02*
X71156250Y-84950000I-218750J0D01*
G01*
G37*
%TD.AperFunction*%
%TO.P,R3,1*%
%TO.N,GND*%
%TA.AperFunction,SMDPad,CuDef*%
G36*
G01*
X71156250Y-86525000D02*
X70643750Y-86525000D01*
G75*
G02*
X70425000Y-86306250I0J218750D01*
G01*
X70425000Y-85868750D01*
G75*
G02*
X70643750Y-85650000I218750J0D01*
G01*
X71156250Y-85650000D01*
G75*
G02*
X71375000Y-85868750I0J-218750D01*
G01*
X71375000Y-86306250D01*
G75*
G02*
X71156250Y-86525000I-218750J0D01*
G01*
G37*
%TD.AperFunction*%
%TD*%
%TO.P,R2,1*%
%TO.N,Net-(R2-Pad1)*%
%TA.AperFunction,SMDPad,CuDef*%
G36*
G01*
X72462500Y-83700000D02*
X72937500Y-83700000D01*
G75*
G02*
X73175000Y-83937500I0J-237500D01*
G01*
X73175000Y-84512500D01*
G75*
G02*
X72937500Y-84750000I-237500J0D01*
G01*
X72462500Y-84750000D01*
G75*
G02*
X72225000Y-84512500I0J237500D01*
G01*
X72225000Y-83937500D01*
G75*
G02*
X72462500Y-83700000I237500J0D01*
G01*
G37*
%TD.AperFunction*%
%TO.P,R2,2*%
%TO.N,GND*%
%TA.AperFunction,SMDPad,CuDef*%
G36*
G01*
X72462500Y-85450000D02*
X72937500Y-85450000D01*
G75*
G02*
X73175000Y-85687500I0J-237500D01*
G01*
X73175000Y-86262500D01*
G75*
G02*
X72937500Y-86500000I-237500J0D01*
G01*
X72462500Y-86500000D01*
G75*
G02*
X72225000Y-86262500I0J237500D01*
G01*
X72225000Y-85687500D01*
G75*
G02*
X72462500Y-85450000I237500J0D01*
G01*
G37*
%TD.AperFunction*%
%TD*%
%TO.P,R1,2*%
%TO.N,Net-(J4-PadA5)*%
%TA.AperFunction,SMDPad,CuDef*%
G36*
G01*
X69256250Y-84950000D02*
X68743750Y-84950000D01*
G75*
G02*
X68525000Y-84731250I0J218750D01*
G01*
X68525000Y-84293750D01*
G75*
G02*
X68743750Y-84075000I218750J0D01*
G01*
X69256250Y-84075000D01*
G75*
G02*
X69475000Y-84293750I0J-218750D01*
G01*
X69475000Y-84731250D01*
G75*
G02*
X69256250Y-84950000I-218750J0D01*
G01*
G37*
%TD.AperFunction*%
%TO.P,R1,1*%
%TO.N,GND*%
%TA.AperFunction,SMDPad,CuDef*%
G36*
G01*
X69256250Y-86525000D02*
X68743750Y-86525000D01*
G75*
G02*
X68525000Y-86306250I0J218750D01*
G01*
X68525000Y-85868750D01*
G75*
G02*
X68743750Y-85650000I218750J0D01*
G01*
X69256250Y-85650000D01*
G75*
G02*
X69475000Y-85868750I0J-218750D01*
G01*
X69475000Y-86306250D01*
G75*
G02*
X69256250Y-86525000I-218750J0D01*
G01*
G37*
%TD.AperFunction*%
%TD*%
D16*
%TO.P,J8,3*%
%TO.N,VCC*%
X108920000Y-68900000D03*
%TO.P,J8,2*%
%TO.N,/SERIAL*%
X111460000Y-68900000D03*
D17*
%TO.P,J8,1*%
%TO.N,GND*%
X114000000Y-68900000D03*
%TD*%
D16*
%TO.P,J6,4*%
%TO.N,/SWCLK*%
X111020000Y-64900000D03*
%TO.P,J6,3*%
%TO.N,/SWDIO*%
X108480000Y-64900000D03*
%TO.P,J6,2*%
%TO.N,GND*%
X105940000Y-64900000D03*
D17*
%TO.P,J6,1*%
%TO.N,VCC*%
X103400000Y-64900000D03*
%TD*%
D18*
%TO.P,J4,S4*%
%TO.N,Net-(J4-PadS1)*%
X67000000Y-85400000D03*
%TO.P,J4,S3*%
X58360000Y-85400000D03*
%TO.P,J4,S2*%
X67000000Y-81220000D03*
%TO.P,J4,S1*%
X58360000Y-81220000D03*
D19*
%TO.P,J4,B1A12*%
%TO.N,GND*%
X65930000Y-80305000D03*
%TO.P,J4,B4A9*%
%TO.N,+5V*%
X65130000Y-80305000D03*
D20*
%TO.P,J4,B5*%
%TO.N,Net-(J4-PadB5)*%
X64430000Y-80305000D03*
%TO.P,J4,A8*%
%TO.N,Net-(J4-PadA8)*%
X63930000Y-80305000D03*
%TO.P,J4,B6*%
%TO.N,Net-(J4-PadB6)*%
X63430000Y-80305000D03*
%TO.P,J4,A7*%
%TO.N,Net-(J4-PadA7)*%
X62930000Y-80305000D03*
%TO.P,J4,B8*%
%TO.N,Net-(J4-PadB8)*%
X60930000Y-80305000D03*
%TO.P,J4,A5*%
%TO.N,Net-(J4-PadA5)*%
X61430000Y-80305000D03*
%TO.P,J4,B7*%
%TO.N,Net-(J4-PadB7)*%
X61930000Y-80305000D03*
%TO.P,J4,A6*%
%TO.N,Net-(J4-PadA6)*%
X62430000Y-80305000D03*
D19*
%TO.P,J4,A4B9*%
%TO.N,+5V*%
X60230000Y-80305000D03*
%TO.P,J4,A1B12*%
%TO.N,GND*%
X59430000Y-80305000D03*
%TD*%
%TO.P,D4,2*%
%TO.N,/SERIAL*%
%TA.AperFunction,SMDPad,CuDef*%
G36*
G01*
X107656250Y-75550000D02*
X107143750Y-75550000D01*
G75*
G02*
X106925000Y-75331250I0J218750D01*
G01*
X106925000Y-74893750D01*
G75*
G02*
X107143750Y-74675000I218750J0D01*
G01*
X107656250Y-74675000D01*
G75*
G02*
X107875000Y-74893750I0J-218750D01*
G01*
X107875000Y-75331250D01*
G75*
G02*
X107656250Y-75550000I-218750J0D01*
G01*
G37*
%TD.AperFunction*%
%TO.P,D4,1*%
%TO.N,Net-(D4-Pad1)*%
%TA.AperFunction,SMDPad,CuDef*%
G36*
G01*
X107656250Y-77125000D02*
X107143750Y-77125000D01*
G75*
G02*
X106925000Y-76906250I0J218750D01*
G01*
X106925000Y-76468750D01*
G75*
G02*
X107143750Y-76250000I218750J0D01*
G01*
X107656250Y-76250000D01*
G75*
G02*
X107875000Y-76468750I0J-218750D01*
G01*
X107875000Y-76906250D01*
G75*
G02*
X107656250Y-77125000I-218750J0D01*
G01*
G37*
%TD.AperFunction*%
%TD*%
%TO.P,D3,2*%
%TO.N,Net-(D2-Pad2)*%
%TA.AperFunction,SMDPad,CuDef*%
G36*
G01*
X55250000Y-83856250D02*
X55250000Y-83343750D01*
G75*
G02*
X55468750Y-83125000I218750J0D01*
G01*
X55906250Y-83125000D01*
G75*
G02*
X56125000Y-83343750I0J-218750D01*
G01*
X56125000Y-83856250D01*
G75*
G02*
X55906250Y-84075000I-218750J0D01*
G01*
X55468750Y-84075000D01*
G75*
G02*
X55250000Y-83856250I0J218750D01*
G01*
G37*
%TD.AperFunction*%
%TO.P,D3,1*%
%TO.N,Net-(D3-Pad1)*%
%TA.AperFunction,SMDPad,CuDef*%
G36*
G01*
X53675000Y-83856250D02*
X53675000Y-83343750D01*
G75*
G02*
X53893750Y-83125000I218750J0D01*
G01*
X54331250Y-83125000D01*
G75*
G02*
X54550000Y-83343750I0J-218750D01*
G01*
X54550000Y-83856250D01*
G75*
G02*
X54331250Y-84075000I-218750J0D01*
G01*
X53893750Y-84075000D01*
G75*
G02*
X53675000Y-83856250I0J218750D01*
G01*
G37*
%TD.AperFunction*%
%TD*%
%TO.P,D2,2*%
%TO.N,Net-(D2-Pad2)*%
%TA.AperFunction,SMDPad,CuDef*%
G36*
G01*
X55250000Y-85956250D02*
X55250000Y-85443750D01*
G75*
G02*
X55468750Y-85225000I218750J0D01*
G01*
X55906250Y-85225000D01*
G75*
G02*
X56125000Y-85443750I0J-218750D01*
G01*
X56125000Y-85956250D01*
G75*
G02*
X55906250Y-86175000I-218750J0D01*
G01*
X55468750Y-86175000D01*
G75*
G02*
X55250000Y-85956250I0J218750D01*
G01*
G37*
%TD.AperFunction*%
%TO.P,D2,1*%
%TO.N,Net-(D2-Pad1)*%
%TA.AperFunction,SMDPad,CuDef*%
G36*
G01*
X53675000Y-85956250D02*
X53675000Y-85443750D01*
G75*
G02*
X53893750Y-85225000I218750J0D01*
G01*
X54331250Y-85225000D01*
G75*
G02*
X54550000Y-85443750I0J-218750D01*
G01*
X54550000Y-85956250D01*
G75*
G02*
X54331250Y-86175000I-218750J0D01*
G01*
X53893750Y-86175000D01*
G75*
G02*
X53675000Y-85956250I0J218750D01*
G01*
G37*
%TD.AperFunction*%
%TD*%
D21*
%TO.P,D1,2*%
%TO.N,GND*%
X42800000Y-80850000D03*
%TO.P,D1,1*%
%TO.N,+5V*%
X42800000Y-85150000D03*
%TD*%
%TO.P,C13,2*%
%TO.N,GND*%
%TA.AperFunction,SMDPad,CuDef*%
G36*
G01*
X46250000Y-70456250D02*
X46250000Y-69943750D01*
G75*
G02*
X46468750Y-69725000I218750J0D01*
G01*
X46906250Y-69725000D01*
G75*
G02*
X47125000Y-69943750I0J-218750D01*
G01*
X47125000Y-70456250D01*
G75*
G02*
X46906250Y-70675000I-218750J0D01*
G01*
X46468750Y-70675000D01*
G75*
G02*
X46250000Y-70456250I0J218750D01*
G01*
G37*
%TD.AperFunction*%
%TO.P,C13,1*%
%TO.N,/SENSOR_1*%
%TA.AperFunction,SMDPad,CuDef*%
G36*
G01*
X44675000Y-70456250D02*
X44675000Y-69943750D01*
G75*
G02*
X44893750Y-69725000I218750J0D01*
G01*
X45331250Y-69725000D01*
G75*
G02*
X45550000Y-69943750I0J-218750D01*
G01*
X45550000Y-70456250D01*
G75*
G02*
X45331250Y-70675000I-218750J0D01*
G01*
X44893750Y-70675000D01*
G75*
G02*
X44675000Y-70456250I0J218750D01*
G01*
G37*
%TD.AperFunction*%
%TD*%
%TO.P,C12,2*%
%TO.N,GND*%
%TA.AperFunction,SMDPad,CuDef*%
G36*
G01*
X60850000Y-70456250D02*
X60850000Y-69943750D01*
G75*
G02*
X61068750Y-69725000I218750J0D01*
G01*
X61506250Y-69725000D01*
G75*
G02*
X61725000Y-69943750I0J-218750D01*
G01*
X61725000Y-70456250D01*
G75*
G02*
X61506250Y-70675000I-218750J0D01*
G01*
X61068750Y-70675000D01*
G75*
G02*
X60850000Y-70456250I0J218750D01*
G01*
G37*
%TD.AperFunction*%
%TO.P,C12,1*%
%TO.N,/SENSOR_3*%
%TA.AperFunction,SMDPad,CuDef*%
G36*
G01*
X59275000Y-70456250D02*
X59275000Y-69943750D01*
G75*
G02*
X59493750Y-69725000I218750J0D01*
G01*
X59931250Y-69725000D01*
G75*
G02*
X60150000Y-69943750I0J-218750D01*
G01*
X60150000Y-70456250D01*
G75*
G02*
X59931250Y-70675000I-218750J0D01*
G01*
X59493750Y-70675000D01*
G75*
G02*
X59275000Y-70456250I0J218750D01*
G01*
G37*
%TD.AperFunction*%
%TD*%
%TO.P,C11,2*%
%TO.N,GND*%
%TA.AperFunction,SMDPad,CuDef*%
G36*
G01*
X51950000Y-70456250D02*
X51950000Y-69943750D01*
G75*
G02*
X52168750Y-69725000I218750J0D01*
G01*
X52606250Y-69725000D01*
G75*
G02*
X52825000Y-69943750I0J-218750D01*
G01*
X52825000Y-70456250D01*
G75*
G02*
X52606250Y-70675000I-218750J0D01*
G01*
X52168750Y-70675000D01*
G75*
G02*
X51950000Y-70456250I0J218750D01*
G01*
G37*
%TD.AperFunction*%
%TO.P,C11,1*%
%TO.N,/SENSOR_2*%
%TA.AperFunction,SMDPad,CuDef*%
G36*
G01*
X50375000Y-70456250D02*
X50375000Y-69943750D01*
G75*
G02*
X50593750Y-69725000I218750J0D01*
G01*
X51031250Y-69725000D01*
G75*
G02*
X51250000Y-69943750I0J-218750D01*
G01*
X51250000Y-70456250D01*
G75*
G02*
X51031250Y-70675000I-218750J0D01*
G01*
X50593750Y-70675000D01*
G75*
G02*
X50375000Y-70456250I0J218750D01*
G01*
G37*
%TD.AperFunction*%
%TD*%
%TO.P,C10,2*%
%TO.N,GND*%
%TA.AperFunction,SMDPad,CuDef*%
G36*
G01*
X49950000Y-80143750D02*
X49950000Y-80656250D01*
G75*
G02*
X49731250Y-80875000I-218750J0D01*
G01*
X49293750Y-80875000D01*
G75*
G02*
X49075000Y-80656250I0J218750D01*
G01*
X49075000Y-80143750D01*
G75*
G02*
X49293750Y-79925000I218750J0D01*
G01*
X49731250Y-79925000D01*
G75*
G02*
X49950000Y-80143750I0J-218750D01*
G01*
G37*
%TD.AperFunction*%
%TO.P,C10,1*%
%TO.N,VCC*%
%TA.AperFunction,SMDPad,CuDef*%
G36*
G01*
X51525000Y-80143750D02*
X51525000Y-80656250D01*
G75*
G02*
X51306250Y-80875000I-218750J0D01*
G01*
X50868750Y-80875000D01*
G75*
G02*
X50650000Y-80656250I0J218750D01*
G01*
X50650000Y-80143750D01*
G75*
G02*
X50868750Y-79925000I218750J0D01*
G01*
X51306250Y-79925000D01*
G75*
G02*
X51525000Y-80143750I0J-218750D01*
G01*
G37*
%TD.AperFunction*%
%TD*%
%TO.P,C9,2*%
%TO.N,GND*%
%TA.AperFunction,SMDPad,CuDef*%
G36*
G01*
X47450000Y-80656250D02*
X47450000Y-80143750D01*
G75*
G02*
X47668750Y-79925000I218750J0D01*
G01*
X48106250Y-79925000D01*
G75*
G02*
X48325000Y-80143750I0J-218750D01*
G01*
X48325000Y-80656250D01*
G75*
G02*
X48106250Y-80875000I-218750J0D01*
G01*
X47668750Y-80875000D01*
G75*
G02*
X47450000Y-80656250I0J218750D01*
G01*
G37*
%TD.AperFunction*%
%TO.P,C9,1*%
%TO.N,+5V*%
%TA.AperFunction,SMDPad,CuDef*%
G36*
G01*
X45875000Y-80656250D02*
X45875000Y-80143750D01*
G75*
G02*
X46093750Y-79925000I218750J0D01*
G01*
X46531250Y-79925000D01*
G75*
G02*
X46750000Y-80143750I0J-218750D01*
G01*
X46750000Y-80656250D01*
G75*
G02*
X46531250Y-80875000I-218750J0D01*
G01*
X46093750Y-80875000D01*
G75*
G02*
X45875000Y-80656250I0J218750D01*
G01*
G37*
%TD.AperFunction*%
%TD*%
%TO.P,C8,2*%
%TO.N,/MOTOR_OUT_3B*%
%TA.AperFunction,SMDPad,CuDef*%
G36*
G01*
X100656250Y-64350000D02*
X100143750Y-64350000D01*
G75*
G02*
X99925000Y-64131250I0J218750D01*
G01*
X99925000Y-63693750D01*
G75*
G02*
X100143750Y-63475000I218750J0D01*
G01*
X100656250Y-63475000D01*
G75*
G02*
X100875000Y-63693750I0J-218750D01*
G01*
X100875000Y-64131250D01*
G75*
G02*
X100656250Y-64350000I-218750J0D01*
G01*
G37*
%TD.AperFunction*%
%TO.P,C8,1*%
%TO.N,/MOTOR_OUT_3A*%
%TA.AperFunction,SMDPad,CuDef*%
G36*
G01*
X100656250Y-65925000D02*
X100143750Y-65925000D01*
G75*
G02*
X99925000Y-65706250I0J218750D01*
G01*
X99925000Y-65268750D01*
G75*
G02*
X100143750Y-65050000I218750J0D01*
G01*
X100656250Y-65050000D01*
G75*
G02*
X100875000Y-65268750I0J-218750D01*
G01*
X100875000Y-65706250D01*
G75*
G02*
X100656250Y-65925000I-218750J0D01*
G01*
G37*
%TD.AperFunction*%
%TD*%
%TO.P,C7,2*%
%TO.N,/MOTOR_OUT_2B*%
%TA.AperFunction,SMDPad,CuDef*%
G36*
G01*
X91056250Y-64350000D02*
X90543750Y-64350000D01*
G75*
G02*
X90325000Y-64131250I0J218750D01*
G01*
X90325000Y-63693750D01*
G75*
G02*
X90543750Y-63475000I218750J0D01*
G01*
X91056250Y-63475000D01*
G75*
G02*
X91275000Y-63693750I0J-218750D01*
G01*
X91275000Y-64131250D01*
G75*
G02*
X91056250Y-64350000I-218750J0D01*
G01*
G37*
%TD.AperFunction*%
%TO.P,C7,1*%
%TO.N,/MOTOR_OUT_2A*%
%TA.AperFunction,SMDPad,CuDef*%
G36*
G01*
X91056250Y-65925000D02*
X90543750Y-65925000D01*
G75*
G02*
X90325000Y-65706250I0J218750D01*
G01*
X90325000Y-65268750D01*
G75*
G02*
X90543750Y-65050000I218750J0D01*
G01*
X91056250Y-65050000D01*
G75*
G02*
X91275000Y-65268750I0J-218750D01*
G01*
X91275000Y-65706250D01*
G75*
G02*
X91056250Y-65925000I-218750J0D01*
G01*
G37*
%TD.AperFunction*%
%TD*%
%TO.P,C6,2*%
%TO.N,/MOTOR_OUT_1B*%
%TA.AperFunction,SMDPad,CuDef*%
G36*
G01*
X81456250Y-64350000D02*
X80943750Y-64350000D01*
G75*
G02*
X80725000Y-64131250I0J218750D01*
G01*
X80725000Y-63693750D01*
G75*
G02*
X80943750Y-63475000I218750J0D01*
G01*
X81456250Y-63475000D01*
G75*
G02*
X81675000Y-63693750I0J-218750D01*
G01*
X81675000Y-64131250D01*
G75*
G02*
X81456250Y-64350000I-218750J0D01*
G01*
G37*
%TD.AperFunction*%
%TO.P,C6,1*%
%TO.N,/MOTOR_OUT_1A*%
%TA.AperFunction,SMDPad,CuDef*%
G36*
G01*
X81456250Y-65925000D02*
X80943750Y-65925000D01*
G75*
G02*
X80725000Y-65706250I0J218750D01*
G01*
X80725000Y-65268750D01*
G75*
G02*
X80943750Y-65050000I218750J0D01*
G01*
X81456250Y-65050000D01*
G75*
G02*
X81675000Y-65268750I0J-218750D01*
G01*
X81675000Y-65706250D01*
G75*
G02*
X81456250Y-65925000I-218750J0D01*
G01*
G37*
%TD.AperFunction*%
%TD*%
%TO.P,C5,2*%
%TO.N,GND*%
%TA.AperFunction,SMDPad,CuDef*%
G36*
G01*
X62043750Y-75650000D02*
X62556250Y-75650000D01*
G75*
G02*
X62775000Y-75868750I0J-218750D01*
G01*
X62775000Y-76306250D01*
G75*
G02*
X62556250Y-76525000I-218750J0D01*
G01*
X62043750Y-76525000D01*
G75*
G02*
X61825000Y-76306250I0J218750D01*
G01*
X61825000Y-75868750D01*
G75*
G02*
X62043750Y-75650000I218750J0D01*
G01*
G37*
%TD.AperFunction*%
%TO.P,C5,1*%
%TO.N,VCC*%
%TA.AperFunction,SMDPad,CuDef*%
G36*
G01*
X62043750Y-74075000D02*
X62556250Y-74075000D01*
G75*
G02*
X62775000Y-74293750I0J-218750D01*
G01*
X62775000Y-74731250D01*
G75*
G02*
X62556250Y-74950000I-218750J0D01*
G01*
X62043750Y-74950000D01*
G75*
G02*
X61825000Y-74731250I0J218750D01*
G01*
X61825000Y-74293750D01*
G75*
G02*
X62043750Y-74075000I218750J0D01*
G01*
G37*
%TD.AperFunction*%
%TD*%
%TO.P,C4,2*%
%TO.N,GND*%
%TA.AperFunction,SMDPad,CuDef*%
G36*
G01*
X99443750Y-72850000D02*
X99956250Y-72850000D01*
G75*
G02*
X100175000Y-73068750I0J-218750D01*
G01*
X100175000Y-73506250D01*
G75*
G02*
X99956250Y-73725000I-218750J0D01*
G01*
X99443750Y-73725000D01*
G75*
G02*
X99225000Y-73506250I0J218750D01*
G01*
X99225000Y-73068750D01*
G75*
G02*
X99443750Y-72850000I218750J0D01*
G01*
G37*
%TD.AperFunction*%
%TO.P,C4,1*%
%TO.N,VCC*%
%TA.AperFunction,SMDPad,CuDef*%
G36*
G01*
X99443750Y-71275000D02*
X99956250Y-71275000D01*
G75*
G02*
X100175000Y-71493750I0J-218750D01*
G01*
X100175000Y-71931250D01*
G75*
G02*
X99956250Y-72150000I-218750J0D01*
G01*
X99443750Y-72150000D01*
G75*
G02*
X99225000Y-71931250I0J218750D01*
G01*
X99225000Y-71493750D01*
G75*
G02*
X99443750Y-71275000I218750J0D01*
G01*
G37*
%TD.AperFunction*%
%TD*%
%TO.P,C3,2*%
%TO.N,GND*%
%TA.AperFunction,SMDPad,CuDef*%
G36*
G01*
X90643750Y-72750000D02*
X91156250Y-72750000D01*
G75*
G02*
X91375000Y-72968750I0J-218750D01*
G01*
X91375000Y-73406250D01*
G75*
G02*
X91156250Y-73625000I-218750J0D01*
G01*
X90643750Y-73625000D01*
G75*
G02*
X90425000Y-73406250I0J218750D01*
G01*
X90425000Y-72968750D01*
G75*
G02*
X90643750Y-72750000I218750J0D01*
G01*
G37*
%TD.AperFunction*%
%TO.P,C3,1*%
%TO.N,VCC*%
%TA.AperFunction,SMDPad,CuDef*%
G36*
G01*
X90643750Y-71175000D02*
X91156250Y-71175000D01*
G75*
G02*
X91375000Y-71393750I0J-218750D01*
G01*
X91375000Y-71831250D01*
G75*
G02*
X91156250Y-72050000I-218750J0D01*
G01*
X90643750Y-72050000D01*
G75*
G02*
X90425000Y-71831250I0J218750D01*
G01*
X90425000Y-71393750D01*
G75*
G02*
X90643750Y-71175000I218750J0D01*
G01*
G37*
%TD.AperFunction*%
%TD*%
%TO.P,C2,2*%
%TO.N,GND*%
%TA.AperFunction,SMDPad,CuDef*%
G36*
G01*
X82243750Y-72750000D02*
X82756250Y-72750000D01*
G75*
G02*
X82975000Y-72968750I0J-218750D01*
G01*
X82975000Y-73406250D01*
G75*
G02*
X82756250Y-73625000I-218750J0D01*
G01*
X82243750Y-73625000D01*
G75*
G02*
X82025000Y-73406250I0J218750D01*
G01*
X82025000Y-72968750D01*
G75*
G02*
X82243750Y-72750000I218750J0D01*
G01*
G37*
%TD.AperFunction*%
%TO.P,C2,1*%
%TO.N,VCC*%
%TA.AperFunction,SMDPad,CuDef*%
G36*
G01*
X82243750Y-71175000D02*
X82756250Y-71175000D01*
G75*
G02*
X82975000Y-71393750I0J-218750D01*
G01*
X82975000Y-71831250D01*
G75*
G02*
X82756250Y-72050000I-218750J0D01*
G01*
X82243750Y-72050000D01*
G75*
G02*
X82025000Y-71831250I0J218750D01*
G01*
X82025000Y-71393750D01*
G75*
G02*
X82243750Y-71175000I218750J0D01*
G01*
G37*
%TD.AperFunction*%
%TD*%
%TO.P,C1,2*%
%TO.N,GND*%
%TA.AperFunction,SMDPad,CuDef*%
G36*
G01*
X56675000Y-75625000D02*
X56675000Y-74375000D01*
G75*
G02*
X56925000Y-74125000I250000J0D01*
G01*
X57675000Y-74125000D01*
G75*
G02*
X57925000Y-74375000I0J-250000D01*
G01*
X57925000Y-75625000D01*
G75*
G02*
X57675000Y-75875000I-250000J0D01*
G01*
X56925000Y-75875000D01*
G75*
G02*
X56675000Y-75625000I0J250000D01*
G01*
G37*
%TD.AperFunction*%
%TO.P,C1,1*%
%TO.N,VCC*%
%TA.AperFunction,SMDPad,CuDef*%
G36*
G01*
X53875000Y-75625000D02*
X53875000Y-74375000D01*
G75*
G02*
X54125000Y-74125000I250000J0D01*
G01*
X54875000Y-74125000D01*
G75*
G02*
X55125000Y-74375000I0J-250000D01*
G01*
X55125000Y-75625000D01*
G75*
G02*
X54875000Y-75875000I-250000J0D01*
G01*
X54125000Y-75875000D01*
G75*
G02*
X53875000Y-75625000I0J250000D01*
G01*
G37*
%TD.AperFunction*%
%TD*%
D22*
%TO.P,BT1,1*%
%TO.N,VCC*%
X52200000Y-75000000D03*
D23*
%TO.P,BT1,2*%
%TO.N,GND*%
X104190000Y-75000000D03*
%TD*%
D24*
%TO.N,VCC*%
X53400000Y-86500000D03*
X53400000Y-82300000D03*
X52200000Y-80400000D03*
X76400000Y-67400000D03*
X95600000Y-67500000D03*
X86100000Y-67400000D03*
X87700000Y-80400000D03*
X86400000Y-72800000D03*
X96600000Y-79800000D03*
X95200000Y-72700000D03*
X103200000Y-71200000D03*
%TO.N,GND*%
X73700000Y-80800000D03*
X83800000Y-86000000D03*
X74100000Y-86000000D03*
X83700000Y-80700000D03*
X87800000Y-86100000D03*
X92400000Y-86000000D03*
X90100000Y-80900000D03*
X95100000Y-81600000D03*
X96500000Y-86000000D03*
X101000000Y-86000000D03*
X98700000Y-80800000D03*
X101100000Y-72100000D03*
X94000000Y-73000000D03*
X92600000Y-77300000D03*
X90100000Y-77300000D03*
X87500000Y-73900000D03*
X85500000Y-74200000D03*
X78600000Y-72900000D03*
X81900000Y-76300000D03*
X103700000Y-81600000D03*
X105300000Y-85800000D03*
X115000000Y-86000000D03*
X115100000Y-64100000D03*
X115000000Y-74400000D03*
X112600000Y-64000000D03*
X108700000Y-77600000D03*
X58600000Y-79300000D03*
X65800000Y-79000000D03*
X67500000Y-77700000D03*
X62300000Y-77000000D03*
X60800000Y-71100000D03*
X55300000Y-78700000D03*
X53300000Y-79400000D03*
X75500000Y-76400000D03*
X72700000Y-74000000D03*
X46800000Y-71500000D03*
X44900000Y-72500000D03*
X53600000Y-68800000D03*
%TO.N,/MOTOR_OUT_1B*%
X80000000Y-63900000D03*
X74400000Y-63900000D03*
%TO.N,/MOTOR_OUT_2B*%
X89700000Y-63900000D03*
X84200000Y-63900000D03*
%TO.N,/MOTOR_OUT_3B*%
X99200000Y-63800000D03*
X93700000Y-63800000D03*
%TO.N,+5V*%
X45400000Y-86100000D03*
X45400000Y-80400000D03*
%TO.N,/SENSOR_2*%
X50900000Y-73000000D03*
X49800000Y-70200000D03*
%TO.N,/SENSOR_3*%
X58800000Y-72400000D03*
X58600000Y-70200000D03*
%TO.N,/SERIAL*%
X99400000Y-70300000D03*
X64800000Y-69300000D03*
%TO.N,/SWCLK*%
X65400000Y-68200000D03*
X101600000Y-67100000D03*
%TO.N,/SWDIO*%
X99800000Y-68000000D03*
X66200000Y-68500020D03*
%TO.N,/SW1*%
X101976697Y-71175011D03*
X71300000Y-71900000D03*
%TO.N,Net-(R2-Pad1)*%
X72700000Y-83100000D03*
X67300000Y-75200000D03*
%TO.N,Net-(R8-Pad2)*%
X45530073Y-82865699D03*
X47062510Y-79007755D03*
%TO.N,Net-(R9-Pad1)*%
X68800000Y-77600000D03*
X71500000Y-81900000D03*
%TO.N,/SENSOR_ENABLE*%
X65500000Y-75300000D03*
X62187500Y-71687500D03*
%TD*%
D25*
%TO.N,VCC*%
X77965000Y-71000000D02*
X79235000Y-71000000D01*
X86365000Y-71000000D02*
X87635000Y-71000000D01*
X95165000Y-71000000D02*
X96435000Y-71000000D01*
X96435000Y-71940002D02*
X96435000Y-71000000D01*
X97044999Y-72550001D02*
X96435000Y-71940002D01*
X98862499Y-72550001D02*
X97044999Y-72550001D01*
X99700000Y-71712500D02*
X98862499Y-72550001D01*
X87635000Y-71940002D02*
X87635000Y-71000000D01*
X88244999Y-72550001D02*
X87635000Y-71940002D01*
X89962499Y-72550001D02*
X88244999Y-72550001D01*
X90900000Y-71612500D02*
X89962499Y-72550001D01*
X79235000Y-71940002D02*
X79235000Y-71000000D01*
X79844999Y-72550001D02*
X79235000Y-71940002D01*
X81562499Y-72550001D02*
X79844999Y-72550001D01*
X82500000Y-71612500D02*
X81562499Y-72550001D01*
X51087500Y-81357500D02*
X52025000Y-82295000D01*
X51087500Y-80400000D02*
X51087500Y-81357500D01*
X53050612Y-86105000D02*
X53286996Y-86341384D01*
X52025000Y-86105000D02*
X53050612Y-86105000D01*
X52030000Y-82300000D02*
X52025000Y-82295000D01*
X53400000Y-82300000D02*
X52030000Y-82300000D01*
X52200000Y-80400000D02*
X51087500Y-80400000D01*
D26*
X55486810Y-75000000D02*
X54500000Y-75000000D01*
X56686820Y-73799990D02*
X55486810Y-75000000D01*
X57913180Y-73799990D02*
X56686820Y-73799990D01*
X58263179Y-74149989D02*
X57913180Y-73799990D01*
X66825000Y-75664998D02*
X65309991Y-74149989D01*
X66825000Y-76550000D02*
X66825000Y-75664998D01*
X63150011Y-74149989D02*
X62662511Y-74149989D01*
X62662511Y-74149989D02*
X62300000Y-74512500D01*
X65309991Y-74149989D02*
X63150011Y-74149989D01*
X63150011Y-74149989D02*
X58263179Y-74149989D01*
D25*
X52200000Y-75000000D02*
X54500000Y-75000000D01*
X77965000Y-69664967D02*
X77965000Y-71000000D01*
X76400000Y-68099967D02*
X77965000Y-69664967D01*
X76400000Y-67400000D02*
X76400000Y-68099967D01*
X95600000Y-70565000D02*
X95165000Y-71000000D01*
X95600000Y-67500000D02*
X95600000Y-70565000D01*
X86365000Y-71000000D02*
X86365000Y-67665000D01*
X86365000Y-67665000D02*
X86100000Y-67400000D01*
D27*
X87100000Y-79800000D02*
X87700000Y-80400000D01*
X86487500Y-79800000D02*
X87100000Y-79800000D01*
X86400000Y-71035000D02*
X86365000Y-71000000D01*
X86400000Y-72800000D02*
X86400000Y-71035000D01*
X95287500Y-79800000D02*
X96600000Y-79800000D01*
X95200000Y-71035000D02*
X95165000Y-71000000D01*
X95200000Y-72700000D02*
X95200000Y-71035000D01*
X102914999Y-71485001D02*
X103200000Y-71200000D01*
X102914999Y-78927499D02*
X102914999Y-71485001D01*
X103787500Y-79800000D02*
X102914999Y-78927499D01*
%TO.N,GND*%
X72587500Y-86087500D02*
X72700000Y-85975000D01*
X69000000Y-86087500D02*
X72587500Y-86087500D01*
D25*
X99700000Y-74205000D02*
X97705000Y-76200000D01*
X99700000Y-73287500D02*
X99700000Y-74205000D01*
X90900000Y-74205000D02*
X88905000Y-76200000D01*
X90900000Y-73187500D02*
X90900000Y-74205000D01*
X82500000Y-74205000D02*
X80505000Y-76200000D01*
X82500000Y-73187500D02*
X82500000Y-74205000D01*
X42800000Y-81685000D02*
X42800000Y-80850000D01*
X45950000Y-84835000D02*
X42800000Y-81685000D01*
X46775000Y-84835000D02*
X45950000Y-84835000D01*
X43945000Y-81995000D02*
X42800000Y-80850000D01*
X46775000Y-82295000D02*
X46475000Y-81995000D01*
X46475000Y-81995000D02*
X43945000Y-81995000D01*
X46775000Y-81512500D02*
X47887500Y-80400000D01*
X46775000Y-82295000D02*
X46775000Y-81512500D01*
X47887500Y-80400000D02*
X49512500Y-80400000D01*
X49512500Y-78725000D02*
X49387500Y-78600000D01*
X49512500Y-80400000D02*
X49512500Y-78725000D01*
D26*
X58387500Y-76087500D02*
X57300000Y-75000000D01*
X62300000Y-76087500D02*
X58387500Y-76087500D01*
X59430000Y-80130000D02*
X58600000Y-79300000D01*
X59430000Y-80305000D02*
X59430000Y-80130000D01*
X65930000Y-79130000D02*
X65800000Y-79000000D01*
X65930000Y-80305000D02*
X65930000Y-79130000D01*
X67475000Y-77675000D02*
X67500000Y-77700000D01*
X67475000Y-76550000D02*
X67475000Y-77675000D01*
X62300000Y-77000000D02*
X62300000Y-76087500D01*
X61287500Y-70612500D02*
X60800000Y-71100000D01*
X61287500Y-70200000D02*
X61287500Y-70612500D01*
X46687500Y-71387500D02*
X46800000Y-71500000D01*
X46687500Y-70200000D02*
X46687500Y-71387500D01*
X52387500Y-70012500D02*
X53600000Y-68800000D01*
X52387500Y-70200000D02*
X52387500Y-70012500D01*
D25*
%TO.N,/MOTOR_OUT_1B*%
X75650000Y-69955000D02*
X75650000Y-65200000D01*
X76695000Y-71000000D02*
X75650000Y-69955000D01*
X80012500Y-63912500D02*
X80000000Y-63900000D01*
X81200000Y-63912500D02*
X80012500Y-63912500D01*
X74400000Y-63900000D02*
X75200000Y-63900000D01*
X75200000Y-64750000D02*
X75650000Y-65200000D01*
X75200000Y-63900000D02*
X75200000Y-64750000D01*
%TO.N,/MOTOR_OUT_1A*%
X77150000Y-67860002D02*
X77150000Y-65200000D01*
X78089999Y-68800001D02*
X77150000Y-67860002D01*
X79905001Y-68800001D02*
X78089999Y-68800001D01*
X80505000Y-69400000D02*
X79905001Y-68800001D01*
X80505000Y-71000000D02*
X80505000Y-69400000D01*
X77437500Y-65487500D02*
X77150000Y-65200000D01*
X81200000Y-65487500D02*
X77437500Y-65487500D01*
%TO.N,/MOTOR_OUT_2B*%
X85095000Y-65355000D02*
X85250000Y-65200000D01*
X85095000Y-71000000D02*
X85095000Y-65355000D01*
X89712500Y-63912500D02*
X89700000Y-63900000D01*
X90800000Y-63912500D02*
X89712500Y-63912500D01*
X84200000Y-64150000D02*
X85250000Y-65200000D01*
X84200000Y-63900000D02*
X84200000Y-64150000D01*
%TO.N,/MOTOR_OUT_2A*%
X90512500Y-65200000D02*
X90800000Y-65487500D01*
X86750000Y-65200000D02*
X90512500Y-65200000D01*
X88905000Y-71000000D02*
X88905000Y-70200000D01*
X87065011Y-65515011D02*
X86750000Y-65200000D01*
X88905000Y-70200000D02*
X87065011Y-68360011D01*
X87065011Y-68360011D02*
X87065011Y-65515011D01*
%TO.N,/MOTOR_OUT_3B*%
X94850000Y-68445000D02*
X94850000Y-65200000D01*
X93895000Y-69400000D02*
X94850000Y-68445000D01*
X93895000Y-71000000D02*
X93895000Y-69400000D01*
X99312500Y-63912500D02*
X99200000Y-63800000D01*
X100400000Y-63912500D02*
X99312500Y-63912500D01*
X93700000Y-64050000D02*
X94850000Y-65200000D01*
X93700000Y-63800000D02*
X93700000Y-64050000D01*
%TO.N,/MOTOR_OUT_3A*%
X96637500Y-65487500D02*
X96350000Y-65200000D01*
X100400000Y-65487500D02*
X96637500Y-65487500D01*
X97705000Y-70200000D02*
X96350000Y-68845000D01*
X97705000Y-71000000D02*
X97705000Y-70200000D01*
X96350000Y-68845000D02*
X96350000Y-65200000D01*
D27*
%TO.N,+5V*%
X59100000Y-78300000D02*
X58200000Y-78300000D01*
X60230000Y-79430000D02*
X59100000Y-78300000D01*
X60230000Y-80305000D02*
X60230000Y-79430000D01*
D25*
X43755000Y-86105000D02*
X42800000Y-85150000D01*
X45405000Y-86105000D02*
X45400000Y-86100000D01*
X46775000Y-86105000D02*
X45405000Y-86105000D01*
X45400000Y-86100000D02*
X43755000Y-86105000D01*
X45400000Y-80400000D02*
X46312500Y-80400000D01*
X47616738Y-77374990D02*
X46312500Y-78679228D01*
X58200000Y-78300000D02*
X57274990Y-77374990D01*
X46312500Y-78679228D02*
X46312500Y-80400000D01*
X60230000Y-79080000D02*
X58524990Y-77374990D01*
X60230000Y-80305000D02*
X60230000Y-79080000D01*
X55825010Y-77374990D02*
X47616738Y-77374990D01*
X58524990Y-77374990D02*
X55825010Y-77374990D01*
X57274990Y-77374990D02*
X55825010Y-77374990D01*
X65030001Y-80205001D02*
X65030001Y-79219999D01*
D27*
X68812500Y-81161496D02*
X68812500Y-81800000D01*
X66076002Y-78424998D02*
X68812500Y-81161496D01*
X65452597Y-78424998D02*
X66076002Y-78424998D01*
X65130000Y-80305000D02*
X65130000Y-78747595D01*
X65130000Y-78747595D02*
X65452597Y-78424998D01*
D25*
X64890002Y-79080000D02*
X60230000Y-79080000D01*
X65030001Y-79219999D02*
X64890002Y-79080000D01*
X65130000Y-80305000D02*
X65030001Y-80205001D01*
D27*
%TO.N,/SENSOR_2*%
X49800000Y-70200000D02*
X50812500Y-70200000D01*
X51850000Y-69162500D02*
X51850000Y-65200000D01*
X50812500Y-70200000D02*
X51850000Y-69162500D01*
X70075000Y-75675000D02*
X69500020Y-75100020D01*
X68610040Y-75100020D02*
X66510020Y-73000000D01*
X69500020Y-75100020D02*
X68610040Y-75100020D01*
X66510020Y-73000000D02*
X50900000Y-73000000D01*
X70075000Y-76550000D02*
X70075000Y-75675000D01*
%TO.N,/SENSOR_3*%
X58600000Y-70200000D02*
X59712500Y-70200000D01*
X59712500Y-65937500D02*
X60450000Y-65200000D01*
X59712500Y-70200000D02*
X59712500Y-65937500D01*
X70725000Y-76550000D02*
X70725000Y-75675000D01*
X69800010Y-74750010D02*
X68755020Y-74750010D01*
X66405010Y-72400000D02*
X58800000Y-72400000D01*
X70725000Y-75675000D02*
X69800010Y-74750010D01*
X68755020Y-74750010D02*
X66405010Y-72400000D01*
%TO.N,/SENSOR_1*%
X43250000Y-68337500D02*
X43250000Y-65200000D01*
X45112500Y-70200000D02*
X43250000Y-68337500D01*
X45112500Y-70675000D02*
X45112500Y-70200000D01*
X56196111Y-73724999D02*
X48162499Y-73724999D01*
X58078869Y-73399979D02*
X56521131Y-73399979D01*
X58403889Y-73724999D02*
X58078869Y-73399979D01*
X68535020Y-75519990D02*
X66740029Y-73724999D01*
X66740029Y-73724999D02*
X58403889Y-73724999D01*
X56521131Y-73399979D02*
X56196111Y-73724999D01*
X69269990Y-75519990D02*
X68535020Y-75519990D01*
X69425000Y-75675000D02*
X69269990Y-75519990D01*
X69425000Y-76550000D02*
X69425000Y-75675000D01*
X48162499Y-73724999D02*
X45112500Y-70675000D01*
%TO.N,Net-(D2-Pad2)*%
X55687500Y-85700000D02*
X55687500Y-83600000D01*
X56625000Y-82662500D02*
X56625000Y-78300000D01*
X55687500Y-83600000D02*
X56625000Y-82662500D01*
%TO.N,Net-(D2-Pad1)*%
X53247500Y-84835000D02*
X54112500Y-85700000D01*
X52025000Y-84835000D02*
X53247500Y-84835000D01*
%TO.N,Net-(D3-Pad1)*%
X54077500Y-83565000D02*
X54112500Y-83600000D01*
X52025000Y-83565000D02*
X54077500Y-83565000D01*
%TO.N,/SERIAL*%
X99700001Y-70600001D02*
X99400000Y-70300000D01*
X64800000Y-70575000D02*
X64875000Y-70650000D01*
X64800000Y-69300000D02*
X64800000Y-70575000D01*
X107760000Y-74752500D02*
X107400000Y-75112500D01*
X111460000Y-68900000D02*
X109759999Y-70600001D01*
X105799999Y-70600001D02*
X99700001Y-70600001D01*
X106059999Y-70600001D02*
X105799999Y-70600001D01*
X107400000Y-71500002D02*
X108300001Y-70600001D01*
X108300001Y-70600001D02*
X105799999Y-70600001D01*
X107400000Y-75112500D02*
X107400000Y-71500002D01*
X109759999Y-70600001D02*
X108300001Y-70600001D01*
%TO.N,Net-(D4-Pad1)*%
X107400000Y-78287500D02*
X107287500Y-78400000D01*
X107400000Y-76687500D02*
X107400000Y-78287500D01*
%TO.N,Net-(J4-PadB5)*%
X70112476Y-83724977D02*
X66584977Y-83724977D01*
X64430000Y-81630000D02*
X64430000Y-81570000D01*
X70900000Y-84512500D02*
X70112476Y-83724977D01*
X64430000Y-81570000D02*
X64430000Y-80305000D01*
X66584977Y-83724977D02*
X64430000Y-81570000D01*
%TO.N,Net-(J4-PadA5)*%
X69000000Y-84512500D02*
X68762490Y-84274990D01*
X64250000Y-84000000D02*
X61430000Y-81180000D01*
X69000000Y-84512500D02*
X68562487Y-84074987D01*
X68562487Y-84074987D02*
X66439997Y-84074987D01*
X66439997Y-84074987D02*
X66365010Y-84000000D01*
X66365010Y-84000000D02*
X64250000Y-84000000D01*
X61430000Y-81180000D02*
X61430000Y-80305000D01*
%TO.N,/SWCLK*%
X65525000Y-68325000D02*
X65400000Y-68200000D01*
X65525000Y-70650000D02*
X65525000Y-68325000D01*
X108820000Y-67100000D02*
X111020000Y-64900000D01*
X101600000Y-67100000D02*
X108820000Y-67100000D01*
%TO.N,/SWDIO*%
X101774999Y-66025001D02*
X99800000Y-68000000D01*
X107354999Y-66025001D02*
X101774999Y-66025001D01*
X108480000Y-64900000D02*
X107354999Y-66025001D01*
X66175000Y-70650000D02*
X66175000Y-68525020D01*
X66175000Y-68525020D02*
X66200000Y-68500020D01*
%TO.N,/SW1*%
X102250000Y-79837500D02*
X102212500Y-79800000D01*
X102250000Y-84800000D02*
X102250000Y-79837500D01*
X70700000Y-70625000D02*
X70725000Y-70650000D01*
X102212500Y-79800000D02*
X102212500Y-71410814D01*
X102212500Y-71410814D02*
X101976697Y-71175011D01*
X71300000Y-71225000D02*
X70725000Y-70650000D01*
X71300000Y-71900000D02*
X71300000Y-71225000D01*
%TO.N,/SW2*%
X93650000Y-79862500D02*
X93712500Y-79800000D01*
X93650000Y-84800000D02*
X93650000Y-79862500D01*
X93712500Y-79800000D02*
X87660784Y-79800000D01*
X86860784Y-79000000D02*
X73000000Y-79000000D01*
X73000000Y-79000000D02*
X71550001Y-77550001D01*
X69701003Y-77550001D02*
X68976002Y-78275002D01*
X67025002Y-78275002D02*
X66175000Y-77425000D01*
X87660784Y-79800000D02*
X86860784Y-79000000D01*
X68976002Y-78275002D02*
X67025002Y-78275002D01*
X71550001Y-77550001D02*
X69701003Y-77550001D01*
X66175000Y-77425000D02*
X66175000Y-76550000D01*
%TO.N,Net-(J10-Pad2)*%
X54200000Y-66050000D02*
X53350000Y-65200000D01*
X54200000Y-70112500D02*
X54200000Y-66050000D01*
%TO.N,Net-(J11-Pad2)*%
X61950000Y-68962500D02*
X61950000Y-65200000D01*
X63100000Y-70112500D02*
X61950000Y-68962500D01*
%TO.N,Net-(J12-Pad2)*%
X47195002Y-65200000D02*
X44750000Y-65200000D01*
X48500000Y-66504998D02*
X47195002Y-65200000D01*
X48500000Y-70112500D02*
X48500000Y-66504998D01*
%TO.N,/SW3*%
X85050000Y-79937500D02*
X84912500Y-79800000D01*
X85050000Y-84800000D02*
X85050000Y-79937500D01*
X64875000Y-77425000D02*
X64875000Y-76550000D01*
X65511006Y-78061006D02*
X64875000Y-77425000D01*
X66207000Y-78061006D02*
X65511006Y-78061006D01*
X67945994Y-79800000D02*
X66207000Y-78061006D01*
X84912500Y-79800000D02*
X67945994Y-79800000D01*
%TO.N,Net-(R2-Pad1)*%
X72700000Y-84225000D02*
X72700000Y-83100000D01*
X68125000Y-75675000D02*
X68125000Y-76550000D01*
X67650000Y-75200000D02*
X68125000Y-75675000D01*
X67300000Y-75200000D02*
X67650000Y-75200000D01*
D26*
%TO.N,Net-(R8-Pad2)*%
X46229374Y-83565000D02*
X45530073Y-82865699D01*
X46775000Y-83565000D02*
X46229374Y-83565000D01*
X47470265Y-78600000D02*
X47062510Y-79007755D01*
X47812500Y-78600000D02*
X47470265Y-78600000D01*
D27*
%TO.N,Net-(R9-Pad1)*%
X68775000Y-77575000D02*
X68800000Y-77600000D01*
X68775000Y-76550000D02*
X68775000Y-77575000D01*
X70487500Y-81900000D02*
X70387500Y-81800000D01*
X71500000Y-81900000D02*
X70487500Y-81900000D01*
%TO.N,/SENSOR_ENABLE*%
X54200000Y-71687500D02*
X48500000Y-71687500D01*
X65525000Y-75325000D02*
X65500000Y-75300000D01*
X65525000Y-76550000D02*
X65525000Y-75325000D01*
X62187500Y-71687500D02*
X54200000Y-71687500D01*
X63100000Y-71687500D02*
X62187500Y-71687500D01*
%TO.N,/MOTOR_SIGNAL_3B*%
X87055774Y-78700000D02*
X95185000Y-78700000D01*
X70020001Y-74399999D02*
X74269991Y-78649989D01*
X74269991Y-78649989D02*
X87005763Y-78649989D01*
X95185000Y-78700000D02*
X96435000Y-77450000D01*
X87005763Y-78649989D02*
X87055774Y-78700000D01*
X66825000Y-71725000D02*
X69499999Y-74399999D01*
X69499999Y-74399999D02*
X70020001Y-74399999D01*
X96435000Y-77450000D02*
X96435000Y-76200000D01*
X66825000Y-70650000D02*
X66825000Y-71725000D01*
%TO.N,/MOTOR_SIGNAL_3A*%
X87150743Y-78299979D02*
X87200753Y-78349989D01*
X87200753Y-78349989D02*
X94265011Y-78349989D01*
X94265011Y-78349989D02*
X95165000Y-77450000D01*
X95165000Y-77450000D02*
X95165000Y-76200000D01*
X67475000Y-70650000D02*
X67475000Y-71360008D01*
X67475000Y-71360008D02*
X74414971Y-78299979D01*
X74414971Y-78299979D02*
X87150743Y-78299979D01*
%TO.N,/MOTOR_SIGNAL_2B*%
X68125000Y-71515018D02*
X74559950Y-77949968D01*
X87635000Y-77450000D02*
X87635000Y-76200000D01*
X74559950Y-77949968D02*
X87135032Y-77949968D01*
X87135032Y-77949968D02*
X87635000Y-77450000D01*
X68125000Y-70650000D02*
X68125000Y-71515018D01*
%TO.N,/MOTOR_SIGNAL_2A*%
X80945039Y-77575001D02*
X81220080Y-77299960D01*
X75989959Y-77499979D02*
X76064981Y-77575001D01*
X84279920Y-77299960D02*
X84554961Y-77575001D01*
X81220080Y-77299960D02*
X84279920Y-77299960D01*
X76064981Y-77575001D02*
X80945039Y-77575001D01*
X68775000Y-71525000D02*
X74749979Y-77499979D01*
X86239999Y-77575001D02*
X86365000Y-77450000D01*
X68775000Y-70650000D02*
X68775000Y-71525000D01*
X86365000Y-77450000D02*
X86365000Y-76200000D01*
X84554961Y-77575001D02*
X86239999Y-77575001D01*
X74749979Y-77499979D02*
X75989959Y-77499979D01*
%TO.N,/MOTOR_SIGNAL_1A*%
X69425000Y-71525000D02*
X71000000Y-73100000D01*
X69425000Y-70650000D02*
X69425000Y-71525000D01*
X77965000Y-74950000D02*
X77965000Y-76200000D01*
X76115000Y-73100000D02*
X77965000Y-74950000D01*
X71000000Y-73100000D02*
X76115000Y-73100000D01*
%TO.N,/MOTOR_SIGNAL_1B*%
X76994990Y-72700000D02*
X79235000Y-74940010D01*
X70075000Y-70650000D02*
X70075000Y-71525000D01*
X70075000Y-71525000D02*
X71250000Y-72700000D01*
X71250000Y-72700000D02*
X76994990Y-72700000D01*
X79235000Y-74940010D02*
X79235000Y-74950000D01*
X79235000Y-74950000D02*
X79235000Y-76200000D01*
%TD*%
D28*
%TO.N,GND*%
X91411928Y-68350000D02*
X91424188Y-68474482D01*
X91460498Y-68594180D01*
X91519463Y-68704494D01*
X91598815Y-68801185D01*
X91695506Y-68880537D01*
X91805820Y-68939502D01*
X91925518Y-68975812D01*
X92050000Y-68988072D01*
X93111691Y-68988072D01*
X93073412Y-69059687D01*
X93022805Y-69226510D01*
X93005719Y-69400000D01*
X93010001Y-69443479D01*
X93010001Y-69647396D01*
X93005498Y-69655820D01*
X92969188Y-69775518D01*
X92956928Y-69900000D01*
X92956928Y-72100000D01*
X92969188Y-72224482D01*
X93005498Y-72344180D01*
X93064463Y-72454494D01*
X93143815Y-72551185D01*
X93240506Y-72630537D01*
X93350820Y-72689502D01*
X93470518Y-72725812D01*
X93595000Y-72738072D01*
X94195000Y-72738072D01*
X94265000Y-72731178D01*
X94265000Y-72792089D01*
X94300932Y-72972729D01*
X94371414Y-73142889D01*
X94473738Y-73296028D01*
X94603972Y-73426262D01*
X94757111Y-73528586D01*
X94927271Y-73599068D01*
X95107911Y-73635000D01*
X95292089Y-73635000D01*
X95472729Y-73599068D01*
X95642889Y-73528586D01*
X95796028Y-73426262D01*
X95926262Y-73296028D01*
X96028586Y-73142889D01*
X96099068Y-72972729D01*
X96118493Y-72875074D01*
X96388469Y-73145050D01*
X96416182Y-73178818D01*
X96449950Y-73206531D01*
X96449952Y-73206533D01*
X96516070Y-73260795D01*
X96550940Y-73289412D01*
X96704686Y-73371590D01*
X96871509Y-73422196D01*
X97001522Y-73435001D01*
X97001530Y-73435001D01*
X97044999Y-73439282D01*
X97088468Y-73435001D01*
X98728249Y-73435001D01*
X98590000Y-73573250D01*
X98586928Y-73725000D01*
X98599188Y-73849482D01*
X98635498Y-73969180D01*
X98694463Y-74079494D01*
X98773815Y-74176185D01*
X98870506Y-74255537D01*
X98980820Y-74314502D01*
X99100518Y-74350812D01*
X99225000Y-74363072D01*
X99414250Y-74360000D01*
X99573000Y-74201250D01*
X99573000Y-73414500D01*
X99827000Y-73414500D01*
X99827000Y-74201250D01*
X99985750Y-74360000D01*
X100175000Y-74363072D01*
X100299482Y-74350812D01*
X100419180Y-74314502D01*
X100529494Y-74255537D01*
X100626185Y-74176185D01*
X100705537Y-74079494D01*
X100764502Y-73969180D01*
X100800812Y-73849482D01*
X100813072Y-73725000D01*
X100810000Y-73573250D01*
X100651250Y-73414500D01*
X99827000Y-73414500D01*
X99573000Y-73414500D01*
X99553000Y-73414500D01*
X99553000Y-73160500D01*
X99573000Y-73160500D01*
X99573000Y-73140500D01*
X99827000Y-73140500D01*
X99827000Y-73160500D01*
X100651250Y-73160500D01*
X100810000Y-73001750D01*
X100813072Y-72850000D01*
X100800812Y-72725518D01*
X100764502Y-72605820D01*
X100705537Y-72495506D01*
X100650900Y-72428930D01*
X100668671Y-72407275D01*
X100747850Y-72259142D01*
X100796608Y-72098408D01*
X100813072Y-71931250D01*
X100813072Y-71493750D01*
X100796608Y-71326592D01*
X100791575Y-71310001D01*
X101050231Y-71310001D01*
X101077629Y-71447740D01*
X101148111Y-71617900D01*
X101250435Y-71771039D01*
X101380669Y-71901273D01*
X101502501Y-71982678D01*
X101502500Y-78843824D01*
X101387885Y-78937885D01*
X101281329Y-79067725D01*
X101202150Y-79215858D01*
X101153392Y-79376592D01*
X101136928Y-79543750D01*
X101136928Y-80056250D01*
X101153392Y-80223408D01*
X101202150Y-80384142D01*
X101281329Y-80532275D01*
X101387885Y-80662115D01*
X101517725Y-80768671D01*
X101540001Y-80780578D01*
X101540001Y-81407464D01*
X101539502Y-81405820D01*
X101480537Y-81295506D01*
X101401185Y-81198815D01*
X101304494Y-81119463D01*
X101194180Y-81060498D01*
X101074482Y-81024188D01*
X100950000Y-81011928D01*
X99450000Y-81011928D01*
X99325518Y-81024188D01*
X99205820Y-81060498D01*
X99095506Y-81119463D01*
X98998815Y-81198815D01*
X98919463Y-81295506D01*
X98860498Y-81405820D01*
X98824188Y-81525518D01*
X98811928Y-81650000D01*
X98811928Y-83950000D01*
X98824188Y-84074482D01*
X98860498Y-84194180D01*
X98919463Y-84304494D01*
X98998815Y-84401185D01*
X99095506Y-84480537D01*
X99205820Y-84539502D01*
X99325518Y-84575812D01*
X99450000Y-84588072D01*
X100950000Y-84588072D01*
X101074482Y-84575812D01*
X101194180Y-84539502D01*
X101261928Y-84503289D01*
X101261928Y-86340000D01*
X96137631Y-86340000D01*
X96135000Y-85085750D01*
X95976250Y-84927000D01*
X95277000Y-84927000D01*
X95277000Y-84947000D01*
X95023000Y-84947000D01*
X95023000Y-84927000D01*
X95003000Y-84927000D01*
X95003000Y-84673000D01*
X95023000Y-84673000D01*
X95023000Y-82573750D01*
X95277000Y-82573750D01*
X95277000Y-84673000D01*
X95976250Y-84673000D01*
X96135000Y-84514250D01*
X96135026Y-84501661D01*
X96205820Y-84539502D01*
X96325518Y-84575812D01*
X96450000Y-84588072D01*
X97950000Y-84588072D01*
X98074482Y-84575812D01*
X98194180Y-84539502D01*
X98304494Y-84480537D01*
X98401185Y-84401185D01*
X98480537Y-84304494D01*
X98539502Y-84194180D01*
X98575812Y-84074482D01*
X98588072Y-83950000D01*
X98588072Y-81650000D01*
X98575812Y-81525518D01*
X98539502Y-81405820D01*
X98480537Y-81295506D01*
X98401185Y-81198815D01*
X98304494Y-81119463D01*
X98194180Y-81060498D01*
X98074482Y-81024188D01*
X97950000Y-81011928D01*
X96450000Y-81011928D01*
X96325518Y-81024188D01*
X96205820Y-81060498D01*
X96095506Y-81119463D01*
X95998815Y-81198815D01*
X95919463Y-81295506D01*
X95860498Y-81405820D01*
X95824188Y-81525518D01*
X95811928Y-81650000D01*
X95811928Y-82496711D01*
X95744180Y-82460498D01*
X95624482Y-82424188D01*
X95500000Y-82411928D01*
X95435750Y-82415000D01*
X95277000Y-82573750D01*
X95023000Y-82573750D01*
X94864250Y-82415000D01*
X94800000Y-82411928D01*
X94675518Y-82424188D01*
X94555820Y-82460498D01*
X94445506Y-82519463D01*
X94400000Y-82556809D01*
X94360000Y-82523982D01*
X94360000Y-80793940D01*
X94407275Y-80768671D01*
X94500000Y-80692574D01*
X94592725Y-80768671D01*
X94740858Y-80847850D01*
X94901592Y-80896608D01*
X95068750Y-80913072D01*
X95506250Y-80913072D01*
X95673408Y-80896608D01*
X95834142Y-80847850D01*
X95982275Y-80768671D01*
X96112115Y-80662115D01*
X96145822Y-80621043D01*
X96157111Y-80628586D01*
X96327271Y-80699068D01*
X96507911Y-80735000D01*
X96692089Y-80735000D01*
X96872729Y-80699068D01*
X97042889Y-80628586D01*
X97196028Y-80526262D01*
X97326262Y-80396028D01*
X97428586Y-80242889D01*
X97499068Y-80072729D01*
X97535000Y-79892089D01*
X97535000Y-79707911D01*
X97499068Y-79527271D01*
X97428586Y-79357111D01*
X97326262Y-79203972D01*
X97196028Y-79073738D01*
X97042889Y-78971414D01*
X96872729Y-78900932D01*
X96692089Y-78865000D01*
X96507911Y-78865000D01*
X96327271Y-78900932D01*
X96157111Y-78971414D01*
X96145822Y-78978957D01*
X96112115Y-78937885D01*
X96023736Y-78865355D01*
X96912389Y-77976703D01*
X96939474Y-77954475D01*
X96961704Y-77927388D01*
X96961707Y-77927385D01*
X97003438Y-77876536D01*
X97070000Y-77840957D01*
X97160820Y-77889502D01*
X97280518Y-77925812D01*
X97405000Y-77938072D01*
X97419250Y-77935000D01*
X97578000Y-77776250D01*
X97578000Y-76327000D01*
X97832000Y-76327000D01*
X97832000Y-77776250D01*
X97990750Y-77935000D01*
X98005000Y-77938072D01*
X98129482Y-77925812D01*
X98249180Y-77889502D01*
X98359494Y-77830537D01*
X98456185Y-77751185D01*
X98535537Y-77654494D01*
X98594502Y-77544180D01*
X98630812Y-77424482D01*
X98643072Y-77300000D01*
X98640000Y-76485750D01*
X98481250Y-76327000D01*
X97832000Y-76327000D01*
X97578000Y-76327000D01*
X97558000Y-76327000D01*
X97558000Y-76073000D01*
X97578000Y-76073000D01*
X97578000Y-74623750D01*
X97832000Y-74623750D01*
X97832000Y-76073000D01*
X98481250Y-76073000D01*
X98640000Y-75914250D01*
X98643072Y-75100000D01*
X98630812Y-74975518D01*
X98594502Y-74855820D01*
X98535537Y-74745506D01*
X98456185Y-74648815D01*
X98359494Y-74569463D01*
X98249180Y-74510498D01*
X98129482Y-74474188D01*
X98005000Y-74461928D01*
X97990750Y-74465000D01*
X97832000Y-74623750D01*
X97578000Y-74623750D01*
X97419250Y-74465000D01*
X97405000Y-74461928D01*
X97280518Y-74474188D01*
X97160820Y-74510498D01*
X97070000Y-74559043D01*
X96979180Y-74510498D01*
X96859482Y-74474188D01*
X96735000Y-74461928D01*
X96135000Y-74461928D01*
X96010518Y-74474188D01*
X95890820Y-74510498D01*
X95800000Y-74559043D01*
X95709180Y-74510498D01*
X95589482Y-74474188D01*
X95465000Y-74461928D01*
X94865000Y-74461928D01*
X94740518Y-74474188D01*
X94620820Y-74510498D01*
X94530000Y-74559043D01*
X94439180Y-74510498D01*
X94319482Y-74474188D01*
X94195000Y-74461928D01*
X94180750Y-74465000D01*
X94022000Y-74623750D01*
X94022000Y-76073000D01*
X94042000Y-76073000D01*
X94042000Y-76327000D01*
X94022000Y-76327000D01*
X94022000Y-76347000D01*
X93768000Y-76347000D01*
X93768000Y-76327000D01*
X93118750Y-76327000D01*
X92960000Y-76485750D01*
X92956928Y-77300000D01*
X92969188Y-77424482D01*
X93005498Y-77544180D01*
X93056710Y-77639989D01*
X89743290Y-77639989D01*
X89794502Y-77544180D01*
X89830812Y-77424482D01*
X89843072Y-77300000D01*
X89840000Y-76485750D01*
X89681250Y-76327000D01*
X89032000Y-76327000D01*
X89032000Y-76347000D01*
X88778000Y-76347000D01*
X88778000Y-76327000D01*
X88758000Y-76327000D01*
X88758000Y-76073000D01*
X88778000Y-76073000D01*
X88778000Y-74623750D01*
X89032000Y-74623750D01*
X89032000Y-76073000D01*
X89681250Y-76073000D01*
X89840000Y-75914250D01*
X89843072Y-75100000D01*
X92956928Y-75100000D01*
X92960000Y-75914250D01*
X93118750Y-76073000D01*
X93768000Y-76073000D01*
X93768000Y-74623750D01*
X93609250Y-74465000D01*
X93595000Y-74461928D01*
X93470518Y-74474188D01*
X93350820Y-74510498D01*
X93240506Y-74569463D01*
X93143815Y-74648815D01*
X93064463Y-74745506D01*
X93005498Y-74855820D01*
X92969188Y-74975518D01*
X92956928Y-75100000D01*
X89843072Y-75100000D01*
X89830812Y-74975518D01*
X89794502Y-74855820D01*
X89735537Y-74745506D01*
X89656185Y-74648815D01*
X89559494Y-74569463D01*
X89449180Y-74510498D01*
X89329482Y-74474188D01*
X89205000Y-74461928D01*
X89190750Y-74465000D01*
X89032000Y-74623750D01*
X88778000Y-74623750D01*
X88619250Y-74465000D01*
X88605000Y-74461928D01*
X88480518Y-74474188D01*
X88360820Y-74510498D01*
X88270000Y-74559043D01*
X88179180Y-74510498D01*
X88059482Y-74474188D01*
X87935000Y-74461928D01*
X87335000Y-74461928D01*
X87210518Y-74474188D01*
X87090820Y-74510498D01*
X87000000Y-74559043D01*
X86909180Y-74510498D01*
X86789482Y-74474188D01*
X86665000Y-74461928D01*
X86065000Y-74461928D01*
X85940518Y-74474188D01*
X85820820Y-74510498D01*
X85730000Y-74559043D01*
X85639180Y-74510498D01*
X85519482Y-74474188D01*
X85395000Y-74461928D01*
X85380750Y-74465000D01*
X85222000Y-74623750D01*
X85222000Y-76073000D01*
X85242000Y-76073000D01*
X85242000Y-76327000D01*
X85222000Y-76327000D01*
X85222000Y-76347000D01*
X84968000Y-76347000D01*
X84968000Y-76327000D01*
X84318750Y-76327000D01*
X84160000Y-76485750D01*
X84159607Y-76589960D01*
X81440393Y-76589960D01*
X81440000Y-76485750D01*
X81281250Y-76327000D01*
X80632000Y-76327000D01*
X80632000Y-76347000D01*
X80378000Y-76347000D01*
X80378000Y-76327000D01*
X80358000Y-76327000D01*
X80358000Y-76073000D01*
X80378000Y-76073000D01*
X80378000Y-74623750D01*
X80632000Y-74623750D01*
X80632000Y-76073000D01*
X81281250Y-76073000D01*
X81440000Y-75914250D01*
X81443072Y-75100000D01*
X84156928Y-75100000D01*
X84160000Y-75914250D01*
X84318750Y-76073000D01*
X84968000Y-76073000D01*
X84968000Y-74623750D01*
X84809250Y-74465000D01*
X84795000Y-74461928D01*
X84670518Y-74474188D01*
X84550820Y-74510498D01*
X84440506Y-74569463D01*
X84343815Y-74648815D01*
X84264463Y-74745506D01*
X84205498Y-74855820D01*
X84169188Y-74975518D01*
X84156928Y-75100000D01*
X81443072Y-75100000D01*
X81430812Y-74975518D01*
X81394502Y-74855820D01*
X81335537Y-74745506D01*
X81256185Y-74648815D01*
X81159494Y-74569463D01*
X81049180Y-74510498D01*
X80929482Y-74474188D01*
X80805000Y-74461928D01*
X80790750Y-74465000D01*
X80632000Y-74623750D01*
X80378000Y-74623750D01*
X80219250Y-74465000D01*
X80205000Y-74461928D01*
X80080518Y-74474188D01*
X79960820Y-74510498D01*
X79870000Y-74559043D01*
X79818043Y-74531271D01*
X79739474Y-74435535D01*
X79712383Y-74413302D01*
X78037153Y-72738072D01*
X78265000Y-72738072D01*
X78389482Y-72725812D01*
X78509180Y-72689502D01*
X78600000Y-72640957D01*
X78690820Y-72689502D01*
X78751254Y-72707835D01*
X79188469Y-73145050D01*
X79216182Y-73178818D01*
X79249950Y-73206531D01*
X79249952Y-73206533D01*
X79316070Y-73260795D01*
X79350940Y-73289412D01*
X79504686Y-73371590D01*
X79671509Y-73422196D01*
X79801522Y-73435001D01*
X79801530Y-73435001D01*
X79844999Y-73439282D01*
X79888468Y-73435001D01*
X81428249Y-73435001D01*
X81390000Y-73473250D01*
X81386928Y-73625000D01*
X81399188Y-73749482D01*
X81435498Y-73869180D01*
X81494463Y-73979494D01*
X81573815Y-74076185D01*
X81670506Y-74155537D01*
X81780820Y-74214502D01*
X81900518Y-74250812D01*
X82025000Y-74263072D01*
X82214250Y-74260000D01*
X82373000Y-74101250D01*
X82373000Y-73314500D01*
X82627000Y-73314500D01*
X82627000Y-74101250D01*
X82785750Y-74260000D01*
X82975000Y-74263072D01*
X83099482Y-74250812D01*
X83219180Y-74214502D01*
X83329494Y-74155537D01*
X83426185Y-74076185D01*
X83505537Y-73979494D01*
X83564502Y-73869180D01*
X83600812Y-73749482D01*
X83613072Y-73625000D01*
X83610000Y-73473250D01*
X83451250Y-73314500D01*
X82627000Y-73314500D01*
X82373000Y-73314500D01*
X82353000Y-73314500D01*
X82353000Y-73060500D01*
X82373000Y-73060500D01*
X82373000Y-73040500D01*
X82627000Y-73040500D01*
X82627000Y-73060500D01*
X83451250Y-73060500D01*
X83610000Y-72901750D01*
X83613072Y-72750000D01*
X83600812Y-72625518D01*
X83564502Y-72505820D01*
X83505537Y-72395506D01*
X83450900Y-72328930D01*
X83468671Y-72307275D01*
X83547850Y-72159142D01*
X83596608Y-71998408D01*
X83613072Y-71831250D01*
X83613072Y-71393750D01*
X83596608Y-71226592D01*
X83547850Y-71065858D01*
X83468671Y-70917725D01*
X83362115Y-70787885D01*
X83232275Y-70681329D01*
X83084142Y-70602150D01*
X82923408Y-70553392D01*
X82756250Y-70536928D01*
X82243750Y-70536928D01*
X82076592Y-70553392D01*
X81915858Y-70602150D01*
X81767725Y-70681329D01*
X81637885Y-70787885D01*
X81531329Y-70917725D01*
X81452150Y-71065858D01*
X81443072Y-71095784D01*
X81443072Y-69900000D01*
X81430812Y-69775518D01*
X81394502Y-69655820D01*
X81390000Y-69647397D01*
X81390000Y-69443469D01*
X81394281Y-69400000D01*
X81390000Y-69356531D01*
X81390000Y-69356523D01*
X81377195Y-69226510D01*
X81326589Y-69059687D01*
X81244411Y-68905941D01*
X81201841Y-68854070D01*
X81161532Y-68804953D01*
X81161530Y-68804951D01*
X81133817Y-68771183D01*
X81100049Y-68743470D01*
X80588072Y-68231494D01*
X80588072Y-66482998D01*
X80615858Y-66497850D01*
X80776592Y-66546608D01*
X80943750Y-66563072D01*
X81456250Y-66563072D01*
X81623408Y-66546608D01*
X81784142Y-66497850D01*
X81811928Y-66482998D01*
X81811928Y-68350000D01*
X81824188Y-68474482D01*
X81860498Y-68594180D01*
X81919463Y-68704494D01*
X81998815Y-68801185D01*
X82095506Y-68880537D01*
X82205820Y-68939502D01*
X82325518Y-68975812D01*
X82450000Y-68988072D01*
X83950000Y-68988072D01*
X84074482Y-68975812D01*
X84194180Y-68939502D01*
X84210000Y-68931046D01*
X84210000Y-69647397D01*
X84205498Y-69655820D01*
X84169188Y-69775518D01*
X84156928Y-69900000D01*
X84156928Y-72100000D01*
X84169188Y-72224482D01*
X84205498Y-72344180D01*
X84264463Y-72454494D01*
X84343815Y-72551185D01*
X84440506Y-72630537D01*
X84550820Y-72689502D01*
X84670518Y-72725812D01*
X84795000Y-72738072D01*
X85395000Y-72738072D01*
X85465000Y-72731178D01*
X85465000Y-72892089D01*
X85500932Y-73072729D01*
X85571414Y-73242889D01*
X85673738Y-73396028D01*
X85803972Y-73526262D01*
X85957111Y-73628586D01*
X86127271Y-73699068D01*
X86307911Y-73735000D01*
X86492089Y-73735000D01*
X86672729Y-73699068D01*
X86842889Y-73628586D01*
X86996028Y-73526262D01*
X87126262Y-73396028D01*
X87228586Y-73242889D01*
X87299068Y-73072729D01*
X87335000Y-72892089D01*
X87335000Y-72891581D01*
X87588469Y-73145050D01*
X87616182Y-73178818D01*
X87649950Y-73206531D01*
X87649952Y-73206533D01*
X87716070Y-73260795D01*
X87750940Y-73289412D01*
X87904686Y-73371590D01*
X88071509Y-73422196D01*
X88201522Y-73435001D01*
X88201530Y-73435001D01*
X88244999Y-73439282D01*
X88288468Y-73435001D01*
X89828249Y-73435001D01*
X89790000Y-73473250D01*
X89786928Y-73625000D01*
X89799188Y-73749482D01*
X89835498Y-73869180D01*
X89894463Y-73979494D01*
X89973815Y-74076185D01*
X90070506Y-74155537D01*
X90180820Y-74214502D01*
X90300518Y-74250812D01*
X90425000Y-74263072D01*
X90614250Y-74260000D01*
X90773000Y-74101250D01*
X90773000Y-73314500D01*
X91027000Y-73314500D01*
X91027000Y-74101250D01*
X91185750Y-74260000D01*
X91375000Y-74263072D01*
X91499482Y-74250812D01*
X91619180Y-74214502D01*
X91729494Y-74155537D01*
X91826185Y-74076185D01*
X91905537Y-73979494D01*
X91964502Y-73869180D01*
X92000812Y-73749482D01*
X92013072Y-73625000D01*
X92010000Y-73473250D01*
X91851250Y-73314500D01*
X91027000Y-73314500D01*
X90773000Y-73314500D01*
X90753000Y-73314500D01*
X90753000Y-73060500D01*
X90773000Y-73060500D01*
X90773000Y-73040500D01*
X91027000Y-73040500D01*
X91027000Y-73060500D01*
X91851250Y-73060500D01*
X92010000Y-72901750D01*
X92013072Y-72750000D01*
X92000812Y-72625518D01*
X91964502Y-72505820D01*
X91905537Y-72395506D01*
X91850900Y-72328930D01*
X91868671Y-72307275D01*
X91947850Y-72159142D01*
X91996608Y-71998408D01*
X92013072Y-71831250D01*
X92013072Y-71393750D01*
X91996608Y-71226592D01*
X91947850Y-71065858D01*
X91868671Y-70917725D01*
X91762115Y-70787885D01*
X91632275Y-70681329D01*
X91484142Y-70602150D01*
X91323408Y-70553392D01*
X91156250Y-70536928D01*
X90643750Y-70536928D01*
X90476592Y-70553392D01*
X90315858Y-70602150D01*
X90167725Y-70681329D01*
X90037885Y-70787885D01*
X89931329Y-70917725D01*
X89852150Y-71065858D01*
X89843072Y-71095784D01*
X89843072Y-69900000D01*
X89830812Y-69775518D01*
X89794502Y-69655820D01*
X89735537Y-69545506D01*
X89656185Y-69448815D01*
X89559494Y-69369463D01*
X89449180Y-69310498D01*
X89329482Y-69274188D01*
X89219982Y-69263404D01*
X88944651Y-68988072D01*
X89550000Y-68988072D01*
X89674482Y-68975812D01*
X89794180Y-68939502D01*
X89904494Y-68880537D01*
X90001185Y-68801185D01*
X90080537Y-68704494D01*
X90139502Y-68594180D01*
X90175812Y-68474482D01*
X90188072Y-68350000D01*
X90188072Y-66482998D01*
X90215858Y-66497850D01*
X90376592Y-66546608D01*
X90543750Y-66563072D01*
X91056250Y-66563072D01*
X91223408Y-66546608D01*
X91384142Y-66497850D01*
X91411928Y-66482998D01*
X91411928Y-68350000D01*
%TA.AperFunction,Conductor*%
D29*
G36*
X91411928Y-68350000D02*
G01*
X91424188Y-68474482D01*
X91460498Y-68594180D01*
X91519463Y-68704494D01*
X91598815Y-68801185D01*
X91695506Y-68880537D01*
X91805820Y-68939502D01*
X91925518Y-68975812D01*
X92050000Y-68988072D01*
X93111691Y-68988072D01*
X93073412Y-69059687D01*
X93022805Y-69226510D01*
X93005719Y-69400000D01*
X93010001Y-69443479D01*
X93010001Y-69647396D01*
X93005498Y-69655820D01*
X92969188Y-69775518D01*
X92956928Y-69900000D01*
X92956928Y-72100000D01*
X92969188Y-72224482D01*
X93005498Y-72344180D01*
X93064463Y-72454494D01*
X93143815Y-72551185D01*
X93240506Y-72630537D01*
X93350820Y-72689502D01*
X93470518Y-72725812D01*
X93595000Y-72738072D01*
X94195000Y-72738072D01*
X94265000Y-72731178D01*
X94265000Y-72792089D01*
X94300932Y-72972729D01*
X94371414Y-73142889D01*
X94473738Y-73296028D01*
X94603972Y-73426262D01*
X94757111Y-73528586D01*
X94927271Y-73599068D01*
X95107911Y-73635000D01*
X95292089Y-73635000D01*
X95472729Y-73599068D01*
X95642889Y-73528586D01*
X95796028Y-73426262D01*
X95926262Y-73296028D01*
X96028586Y-73142889D01*
X96099068Y-72972729D01*
X96118493Y-72875074D01*
X96388469Y-73145050D01*
X96416182Y-73178818D01*
X96449950Y-73206531D01*
X96449952Y-73206533D01*
X96516070Y-73260795D01*
X96550940Y-73289412D01*
X96704686Y-73371590D01*
X96871509Y-73422196D01*
X97001522Y-73435001D01*
X97001530Y-73435001D01*
X97044999Y-73439282D01*
X97088468Y-73435001D01*
X98728249Y-73435001D01*
X98590000Y-73573250D01*
X98586928Y-73725000D01*
X98599188Y-73849482D01*
X98635498Y-73969180D01*
X98694463Y-74079494D01*
X98773815Y-74176185D01*
X98870506Y-74255537D01*
X98980820Y-74314502D01*
X99100518Y-74350812D01*
X99225000Y-74363072D01*
X99414250Y-74360000D01*
X99573000Y-74201250D01*
X99573000Y-73414500D01*
X99827000Y-73414500D01*
X99827000Y-74201250D01*
X99985750Y-74360000D01*
X100175000Y-74363072D01*
X100299482Y-74350812D01*
X100419180Y-74314502D01*
X100529494Y-74255537D01*
X100626185Y-74176185D01*
X100705537Y-74079494D01*
X100764502Y-73969180D01*
X100800812Y-73849482D01*
X100813072Y-73725000D01*
X100810000Y-73573250D01*
X100651250Y-73414500D01*
X99827000Y-73414500D01*
X99573000Y-73414500D01*
X99553000Y-73414500D01*
X99553000Y-73160500D01*
X99573000Y-73160500D01*
X99573000Y-73140500D01*
X99827000Y-73140500D01*
X99827000Y-73160500D01*
X100651250Y-73160500D01*
X100810000Y-73001750D01*
X100813072Y-72850000D01*
X100800812Y-72725518D01*
X100764502Y-72605820D01*
X100705537Y-72495506D01*
X100650900Y-72428930D01*
X100668671Y-72407275D01*
X100747850Y-72259142D01*
X100796608Y-72098408D01*
X100813072Y-71931250D01*
X100813072Y-71493750D01*
X100796608Y-71326592D01*
X100791575Y-71310001D01*
X101050231Y-71310001D01*
X101077629Y-71447740D01*
X101148111Y-71617900D01*
X101250435Y-71771039D01*
X101380669Y-71901273D01*
X101502501Y-71982678D01*
X101502500Y-78843824D01*
X101387885Y-78937885D01*
X101281329Y-79067725D01*
X101202150Y-79215858D01*
X101153392Y-79376592D01*
X101136928Y-79543750D01*
X101136928Y-80056250D01*
X101153392Y-80223408D01*
X101202150Y-80384142D01*
X101281329Y-80532275D01*
X101387885Y-80662115D01*
X101517725Y-80768671D01*
X101540001Y-80780578D01*
X101540001Y-81407464D01*
X101539502Y-81405820D01*
X101480537Y-81295506D01*
X101401185Y-81198815D01*
X101304494Y-81119463D01*
X101194180Y-81060498D01*
X101074482Y-81024188D01*
X100950000Y-81011928D01*
X99450000Y-81011928D01*
X99325518Y-81024188D01*
X99205820Y-81060498D01*
X99095506Y-81119463D01*
X98998815Y-81198815D01*
X98919463Y-81295506D01*
X98860498Y-81405820D01*
X98824188Y-81525518D01*
X98811928Y-81650000D01*
X98811928Y-83950000D01*
X98824188Y-84074482D01*
X98860498Y-84194180D01*
X98919463Y-84304494D01*
X98998815Y-84401185D01*
X99095506Y-84480537D01*
X99205820Y-84539502D01*
X99325518Y-84575812D01*
X99450000Y-84588072D01*
X100950000Y-84588072D01*
X101074482Y-84575812D01*
X101194180Y-84539502D01*
X101261928Y-84503289D01*
X101261928Y-86340000D01*
X96137631Y-86340000D01*
X96135000Y-85085750D01*
X95976250Y-84927000D01*
X95277000Y-84927000D01*
X95277000Y-84947000D01*
X95023000Y-84947000D01*
X95023000Y-84927000D01*
X95003000Y-84927000D01*
X95003000Y-84673000D01*
X95023000Y-84673000D01*
X95023000Y-82573750D01*
X95277000Y-82573750D01*
X95277000Y-84673000D01*
X95976250Y-84673000D01*
X96135000Y-84514250D01*
X96135026Y-84501661D01*
X96205820Y-84539502D01*
X96325518Y-84575812D01*
X96450000Y-84588072D01*
X97950000Y-84588072D01*
X98074482Y-84575812D01*
X98194180Y-84539502D01*
X98304494Y-84480537D01*
X98401185Y-84401185D01*
X98480537Y-84304494D01*
X98539502Y-84194180D01*
X98575812Y-84074482D01*
X98588072Y-83950000D01*
X98588072Y-81650000D01*
X98575812Y-81525518D01*
X98539502Y-81405820D01*
X98480537Y-81295506D01*
X98401185Y-81198815D01*
X98304494Y-81119463D01*
X98194180Y-81060498D01*
X98074482Y-81024188D01*
X97950000Y-81011928D01*
X96450000Y-81011928D01*
X96325518Y-81024188D01*
X96205820Y-81060498D01*
X96095506Y-81119463D01*
X95998815Y-81198815D01*
X95919463Y-81295506D01*
X95860498Y-81405820D01*
X95824188Y-81525518D01*
X95811928Y-81650000D01*
X95811928Y-82496711D01*
X95744180Y-82460498D01*
X95624482Y-82424188D01*
X95500000Y-82411928D01*
X95435750Y-82415000D01*
X95277000Y-82573750D01*
X95023000Y-82573750D01*
X94864250Y-82415000D01*
X94800000Y-82411928D01*
X94675518Y-82424188D01*
X94555820Y-82460498D01*
X94445506Y-82519463D01*
X94400000Y-82556809D01*
X94360000Y-82523982D01*
X94360000Y-80793940D01*
X94407275Y-80768671D01*
X94500000Y-80692574D01*
X94592725Y-80768671D01*
X94740858Y-80847850D01*
X94901592Y-80896608D01*
X95068750Y-80913072D01*
X95506250Y-80913072D01*
X95673408Y-80896608D01*
X95834142Y-80847850D01*
X95982275Y-80768671D01*
X96112115Y-80662115D01*
X96145822Y-80621043D01*
X96157111Y-80628586D01*
X96327271Y-80699068D01*
X96507911Y-80735000D01*
X96692089Y-80735000D01*
X96872729Y-80699068D01*
X97042889Y-80628586D01*
X97196028Y-80526262D01*
X97326262Y-80396028D01*
X97428586Y-80242889D01*
X97499068Y-80072729D01*
X97535000Y-79892089D01*
X97535000Y-79707911D01*
X97499068Y-79527271D01*
X97428586Y-79357111D01*
X97326262Y-79203972D01*
X97196028Y-79073738D01*
X97042889Y-78971414D01*
X96872729Y-78900932D01*
X96692089Y-78865000D01*
X96507911Y-78865000D01*
X96327271Y-78900932D01*
X96157111Y-78971414D01*
X96145822Y-78978957D01*
X96112115Y-78937885D01*
X96023736Y-78865355D01*
X96912389Y-77976703D01*
X96939474Y-77954475D01*
X96961704Y-77927388D01*
X96961707Y-77927385D01*
X97003438Y-77876536D01*
X97070000Y-77840957D01*
X97160820Y-77889502D01*
X97280518Y-77925812D01*
X97405000Y-77938072D01*
X97419250Y-77935000D01*
X97578000Y-77776250D01*
X97578000Y-76327000D01*
X97832000Y-76327000D01*
X97832000Y-77776250D01*
X97990750Y-77935000D01*
X98005000Y-77938072D01*
X98129482Y-77925812D01*
X98249180Y-77889502D01*
X98359494Y-77830537D01*
X98456185Y-77751185D01*
X98535537Y-77654494D01*
X98594502Y-77544180D01*
X98630812Y-77424482D01*
X98643072Y-77300000D01*
X98640000Y-76485750D01*
X98481250Y-76327000D01*
X97832000Y-76327000D01*
X97578000Y-76327000D01*
X97558000Y-76327000D01*
X97558000Y-76073000D01*
X97578000Y-76073000D01*
X97578000Y-74623750D01*
X97832000Y-74623750D01*
X97832000Y-76073000D01*
X98481250Y-76073000D01*
X98640000Y-75914250D01*
X98643072Y-75100000D01*
X98630812Y-74975518D01*
X98594502Y-74855820D01*
X98535537Y-74745506D01*
X98456185Y-74648815D01*
X98359494Y-74569463D01*
X98249180Y-74510498D01*
X98129482Y-74474188D01*
X98005000Y-74461928D01*
X97990750Y-74465000D01*
X97832000Y-74623750D01*
X97578000Y-74623750D01*
X97419250Y-74465000D01*
X97405000Y-74461928D01*
X97280518Y-74474188D01*
X97160820Y-74510498D01*
X97070000Y-74559043D01*
X96979180Y-74510498D01*
X96859482Y-74474188D01*
X96735000Y-74461928D01*
X96135000Y-74461928D01*
X96010518Y-74474188D01*
X95890820Y-74510498D01*
X95800000Y-74559043D01*
X95709180Y-74510498D01*
X95589482Y-74474188D01*
X95465000Y-74461928D01*
X94865000Y-74461928D01*
X94740518Y-74474188D01*
X94620820Y-74510498D01*
X94530000Y-74559043D01*
X94439180Y-74510498D01*
X94319482Y-74474188D01*
X94195000Y-74461928D01*
X94180750Y-74465000D01*
X94022000Y-74623750D01*
X94022000Y-76073000D01*
X94042000Y-76073000D01*
X94042000Y-76327000D01*
X94022000Y-76327000D01*
X94022000Y-76347000D01*
X93768000Y-76347000D01*
X93768000Y-76327000D01*
X93118750Y-76327000D01*
X92960000Y-76485750D01*
X92956928Y-77300000D01*
X92969188Y-77424482D01*
X93005498Y-77544180D01*
X93056710Y-77639989D01*
X89743290Y-77639989D01*
X89794502Y-77544180D01*
X89830812Y-77424482D01*
X89843072Y-77300000D01*
X89840000Y-76485750D01*
X89681250Y-76327000D01*
X89032000Y-76327000D01*
X89032000Y-76347000D01*
X88778000Y-76347000D01*
X88778000Y-76327000D01*
X88758000Y-76327000D01*
X88758000Y-76073000D01*
X88778000Y-76073000D01*
X88778000Y-74623750D01*
X89032000Y-74623750D01*
X89032000Y-76073000D01*
X89681250Y-76073000D01*
X89840000Y-75914250D01*
X89843072Y-75100000D01*
X92956928Y-75100000D01*
X92960000Y-75914250D01*
X93118750Y-76073000D01*
X93768000Y-76073000D01*
X93768000Y-74623750D01*
X93609250Y-74465000D01*
X93595000Y-74461928D01*
X93470518Y-74474188D01*
X93350820Y-74510498D01*
X93240506Y-74569463D01*
X93143815Y-74648815D01*
X93064463Y-74745506D01*
X93005498Y-74855820D01*
X92969188Y-74975518D01*
X92956928Y-75100000D01*
X89843072Y-75100000D01*
X89830812Y-74975518D01*
X89794502Y-74855820D01*
X89735537Y-74745506D01*
X89656185Y-74648815D01*
X89559494Y-74569463D01*
X89449180Y-74510498D01*
X89329482Y-74474188D01*
X89205000Y-74461928D01*
X89190750Y-74465000D01*
X89032000Y-74623750D01*
X88778000Y-74623750D01*
X88619250Y-74465000D01*
X88605000Y-74461928D01*
X88480518Y-74474188D01*
X88360820Y-74510498D01*
X88270000Y-74559043D01*
X88179180Y-74510498D01*
X88059482Y-74474188D01*
X87935000Y-74461928D01*
X87335000Y-74461928D01*
X87210518Y-74474188D01*
X87090820Y-74510498D01*
X87000000Y-74559043D01*
X86909180Y-74510498D01*
X86789482Y-74474188D01*
X86665000Y-74461928D01*
X86065000Y-74461928D01*
X85940518Y-74474188D01*
X85820820Y-74510498D01*
X85730000Y-74559043D01*
X85639180Y-74510498D01*
X85519482Y-74474188D01*
X85395000Y-74461928D01*
X85380750Y-74465000D01*
X85222000Y-74623750D01*
X85222000Y-76073000D01*
X85242000Y-76073000D01*
X85242000Y-76327000D01*
X85222000Y-76327000D01*
X85222000Y-76347000D01*
X84968000Y-76347000D01*
X84968000Y-76327000D01*
X84318750Y-76327000D01*
X84160000Y-76485750D01*
X84159607Y-76589960D01*
X81440393Y-76589960D01*
X81440000Y-76485750D01*
X81281250Y-76327000D01*
X80632000Y-76327000D01*
X80632000Y-76347000D01*
X80378000Y-76347000D01*
X80378000Y-76327000D01*
X80358000Y-76327000D01*
X80358000Y-76073000D01*
X80378000Y-76073000D01*
X80378000Y-74623750D01*
X80632000Y-74623750D01*
X80632000Y-76073000D01*
X81281250Y-76073000D01*
X81440000Y-75914250D01*
X81443072Y-75100000D01*
X84156928Y-75100000D01*
X84160000Y-75914250D01*
X84318750Y-76073000D01*
X84968000Y-76073000D01*
X84968000Y-74623750D01*
X84809250Y-74465000D01*
X84795000Y-74461928D01*
X84670518Y-74474188D01*
X84550820Y-74510498D01*
X84440506Y-74569463D01*
X84343815Y-74648815D01*
X84264463Y-74745506D01*
X84205498Y-74855820D01*
X84169188Y-74975518D01*
X84156928Y-75100000D01*
X81443072Y-75100000D01*
X81430812Y-74975518D01*
X81394502Y-74855820D01*
X81335537Y-74745506D01*
X81256185Y-74648815D01*
X81159494Y-74569463D01*
X81049180Y-74510498D01*
X80929482Y-74474188D01*
X80805000Y-74461928D01*
X80790750Y-74465000D01*
X80632000Y-74623750D01*
X80378000Y-74623750D01*
X80219250Y-74465000D01*
X80205000Y-74461928D01*
X80080518Y-74474188D01*
X79960820Y-74510498D01*
X79870000Y-74559043D01*
X79818043Y-74531271D01*
X79739474Y-74435535D01*
X79712383Y-74413302D01*
X78037153Y-72738072D01*
X78265000Y-72738072D01*
X78389482Y-72725812D01*
X78509180Y-72689502D01*
X78600000Y-72640957D01*
X78690820Y-72689502D01*
X78751254Y-72707835D01*
X79188469Y-73145050D01*
X79216182Y-73178818D01*
X79249950Y-73206531D01*
X79249952Y-73206533D01*
X79316070Y-73260795D01*
X79350940Y-73289412D01*
X79504686Y-73371590D01*
X79671509Y-73422196D01*
X79801522Y-73435001D01*
X79801530Y-73435001D01*
X79844999Y-73439282D01*
X79888468Y-73435001D01*
X81428249Y-73435001D01*
X81390000Y-73473250D01*
X81386928Y-73625000D01*
X81399188Y-73749482D01*
X81435498Y-73869180D01*
X81494463Y-73979494D01*
X81573815Y-74076185D01*
X81670506Y-74155537D01*
X81780820Y-74214502D01*
X81900518Y-74250812D01*
X82025000Y-74263072D01*
X82214250Y-74260000D01*
X82373000Y-74101250D01*
X82373000Y-73314500D01*
X82627000Y-73314500D01*
X82627000Y-74101250D01*
X82785750Y-74260000D01*
X82975000Y-74263072D01*
X83099482Y-74250812D01*
X83219180Y-74214502D01*
X83329494Y-74155537D01*
X83426185Y-74076185D01*
X83505537Y-73979494D01*
X83564502Y-73869180D01*
X83600812Y-73749482D01*
X83613072Y-73625000D01*
X83610000Y-73473250D01*
X83451250Y-73314500D01*
X82627000Y-73314500D01*
X82373000Y-73314500D01*
X82353000Y-73314500D01*
X82353000Y-73060500D01*
X82373000Y-73060500D01*
X82373000Y-73040500D01*
X82627000Y-73040500D01*
X82627000Y-73060500D01*
X83451250Y-73060500D01*
X83610000Y-72901750D01*
X83613072Y-72750000D01*
X83600812Y-72625518D01*
X83564502Y-72505820D01*
X83505537Y-72395506D01*
X83450900Y-72328930D01*
X83468671Y-72307275D01*
X83547850Y-72159142D01*
X83596608Y-71998408D01*
X83613072Y-71831250D01*
X83613072Y-71393750D01*
X83596608Y-71226592D01*
X83547850Y-71065858D01*
X83468671Y-70917725D01*
X83362115Y-70787885D01*
X83232275Y-70681329D01*
X83084142Y-70602150D01*
X82923408Y-70553392D01*
X82756250Y-70536928D01*
X82243750Y-70536928D01*
X82076592Y-70553392D01*
X81915858Y-70602150D01*
X81767725Y-70681329D01*
X81637885Y-70787885D01*
X81531329Y-70917725D01*
X81452150Y-71065858D01*
X81443072Y-71095784D01*
X81443072Y-69900000D01*
X81430812Y-69775518D01*
X81394502Y-69655820D01*
X81390000Y-69647397D01*
X81390000Y-69443469D01*
X81394281Y-69400000D01*
X81390000Y-69356531D01*
X81390000Y-69356523D01*
X81377195Y-69226510D01*
X81326589Y-69059687D01*
X81244411Y-68905941D01*
X81201841Y-68854070D01*
X81161532Y-68804953D01*
X81161530Y-68804951D01*
X81133817Y-68771183D01*
X81100049Y-68743470D01*
X80588072Y-68231494D01*
X80588072Y-66482998D01*
X80615858Y-66497850D01*
X80776592Y-66546608D01*
X80943750Y-66563072D01*
X81456250Y-66563072D01*
X81623408Y-66546608D01*
X81784142Y-66497850D01*
X81811928Y-66482998D01*
X81811928Y-68350000D01*
X81824188Y-68474482D01*
X81860498Y-68594180D01*
X81919463Y-68704494D01*
X81998815Y-68801185D01*
X82095506Y-68880537D01*
X82205820Y-68939502D01*
X82325518Y-68975812D01*
X82450000Y-68988072D01*
X83950000Y-68988072D01*
X84074482Y-68975812D01*
X84194180Y-68939502D01*
X84210000Y-68931046D01*
X84210000Y-69647397D01*
X84205498Y-69655820D01*
X84169188Y-69775518D01*
X84156928Y-69900000D01*
X84156928Y-72100000D01*
X84169188Y-72224482D01*
X84205498Y-72344180D01*
X84264463Y-72454494D01*
X84343815Y-72551185D01*
X84440506Y-72630537D01*
X84550820Y-72689502D01*
X84670518Y-72725812D01*
X84795000Y-72738072D01*
X85395000Y-72738072D01*
X85465000Y-72731178D01*
X85465000Y-72892089D01*
X85500932Y-73072729D01*
X85571414Y-73242889D01*
X85673738Y-73396028D01*
X85803972Y-73526262D01*
X85957111Y-73628586D01*
X86127271Y-73699068D01*
X86307911Y-73735000D01*
X86492089Y-73735000D01*
X86672729Y-73699068D01*
X86842889Y-73628586D01*
X86996028Y-73526262D01*
X87126262Y-73396028D01*
X87228586Y-73242889D01*
X87299068Y-73072729D01*
X87335000Y-72892089D01*
X87335000Y-72891581D01*
X87588469Y-73145050D01*
X87616182Y-73178818D01*
X87649950Y-73206531D01*
X87649952Y-73206533D01*
X87716070Y-73260795D01*
X87750940Y-73289412D01*
X87904686Y-73371590D01*
X88071509Y-73422196D01*
X88201522Y-73435001D01*
X88201530Y-73435001D01*
X88244999Y-73439282D01*
X88288468Y-73435001D01*
X89828249Y-73435001D01*
X89790000Y-73473250D01*
X89786928Y-73625000D01*
X89799188Y-73749482D01*
X89835498Y-73869180D01*
X89894463Y-73979494D01*
X89973815Y-74076185D01*
X90070506Y-74155537D01*
X90180820Y-74214502D01*
X90300518Y-74250812D01*
X90425000Y-74263072D01*
X90614250Y-74260000D01*
X90773000Y-74101250D01*
X90773000Y-73314500D01*
X91027000Y-73314500D01*
X91027000Y-74101250D01*
X91185750Y-74260000D01*
X91375000Y-74263072D01*
X91499482Y-74250812D01*
X91619180Y-74214502D01*
X91729494Y-74155537D01*
X91826185Y-74076185D01*
X91905537Y-73979494D01*
X91964502Y-73869180D01*
X92000812Y-73749482D01*
X92013072Y-73625000D01*
X92010000Y-73473250D01*
X91851250Y-73314500D01*
X91027000Y-73314500D01*
X90773000Y-73314500D01*
X90753000Y-73314500D01*
X90753000Y-73060500D01*
X90773000Y-73060500D01*
X90773000Y-73040500D01*
X91027000Y-73040500D01*
X91027000Y-73060500D01*
X91851250Y-73060500D01*
X92010000Y-72901750D01*
X92013072Y-72750000D01*
X92000812Y-72625518D01*
X91964502Y-72505820D01*
X91905537Y-72395506D01*
X91850900Y-72328930D01*
X91868671Y-72307275D01*
X91947850Y-72159142D01*
X91996608Y-71998408D01*
X92013072Y-71831250D01*
X92013072Y-71393750D01*
X91996608Y-71226592D01*
X91947850Y-71065858D01*
X91868671Y-70917725D01*
X91762115Y-70787885D01*
X91632275Y-70681329D01*
X91484142Y-70602150D01*
X91323408Y-70553392D01*
X91156250Y-70536928D01*
X90643750Y-70536928D01*
X90476592Y-70553392D01*
X90315858Y-70602150D01*
X90167725Y-70681329D01*
X90037885Y-70787885D01*
X89931329Y-70917725D01*
X89852150Y-71065858D01*
X89843072Y-71095784D01*
X89843072Y-69900000D01*
X89830812Y-69775518D01*
X89794502Y-69655820D01*
X89735537Y-69545506D01*
X89656185Y-69448815D01*
X89559494Y-69369463D01*
X89449180Y-69310498D01*
X89329482Y-69274188D01*
X89219982Y-69263404D01*
X88944651Y-68988072D01*
X89550000Y-68988072D01*
X89674482Y-68975812D01*
X89794180Y-68939502D01*
X89904494Y-68880537D01*
X90001185Y-68801185D01*
X90080537Y-68704494D01*
X90139502Y-68594180D01*
X90175812Y-68474482D01*
X90188072Y-68350000D01*
X90188072Y-66482998D01*
X90215858Y-66497850D01*
X90376592Y-66546608D01*
X90543750Y-66563072D01*
X91056250Y-66563072D01*
X91223408Y-66546608D01*
X91384142Y-66497850D01*
X91411928Y-66482998D01*
X91411928Y-68350000D01*
G37*
%TD.AperFunction*%
D28*
X83981329Y-80532275D02*
X84087885Y-80662115D01*
X84217725Y-80768671D01*
X84340001Y-80834029D01*
X84340001Y-81407464D01*
X84339502Y-81405820D01*
X84280537Y-81295506D01*
X84201185Y-81198815D01*
X84104494Y-81119463D01*
X83994180Y-81060498D01*
X83874482Y-81024188D01*
X83750000Y-81011928D01*
X82250000Y-81011928D01*
X82125518Y-81024188D01*
X82005820Y-81060498D01*
X81895506Y-81119463D01*
X81798815Y-81198815D01*
X81719463Y-81295506D01*
X81660498Y-81405820D01*
X81624188Y-81525518D01*
X81611928Y-81650000D01*
X81611928Y-83950000D01*
X81624188Y-84074482D01*
X81660498Y-84194180D01*
X81719463Y-84304494D01*
X81798815Y-84401185D01*
X81895506Y-84480537D01*
X82005820Y-84539502D01*
X82125518Y-84575812D01*
X82250000Y-84588072D01*
X83750000Y-84588072D01*
X83874482Y-84575812D01*
X83994180Y-84539502D01*
X84061928Y-84503289D01*
X84061928Y-86340000D01*
X73811018Y-86340000D01*
X73810000Y-86260750D01*
X73651250Y-86102000D01*
X72827000Y-86102000D01*
X72827000Y-86122000D01*
X72573000Y-86122000D01*
X72573000Y-86102000D01*
X71748750Y-86102000D01*
X71636250Y-86214500D01*
X71027000Y-86214500D01*
X71027000Y-86234500D01*
X70773000Y-86234500D01*
X70773000Y-86214500D01*
X69127000Y-86214500D01*
X69127000Y-86234500D01*
X68873000Y-86234500D01*
X68873000Y-86214500D01*
X68853000Y-86214500D01*
X68853000Y-85960500D01*
X68873000Y-85960500D01*
X68873000Y-85940500D01*
X69127000Y-85940500D01*
X69127000Y-85960500D01*
X70773000Y-85960500D01*
X70773000Y-85940500D01*
X71027000Y-85940500D01*
X71027000Y-85960500D01*
X71851250Y-85960500D01*
X71963750Y-85848000D01*
X72573000Y-85848000D01*
X72573000Y-85828000D01*
X72827000Y-85828000D01*
X72827000Y-85848000D01*
X73651250Y-85848000D01*
X73810000Y-85689250D01*
X73813072Y-85450000D01*
X73800812Y-85325518D01*
X73764502Y-85205820D01*
X73705537Y-85095506D01*
X73645901Y-85022839D01*
X73665512Y-84998942D01*
X73746423Y-84847567D01*
X73796248Y-84683316D01*
X73813072Y-84512500D01*
X73813072Y-83937500D01*
X73796248Y-83766684D01*
X73746423Y-83602433D01*
X73665512Y-83451058D01*
X73599490Y-83370610D01*
X73635000Y-83192089D01*
X73635000Y-83007911D01*
X73599068Y-82827271D01*
X73528586Y-82657111D01*
X73426262Y-82503972D01*
X73296028Y-82373738D01*
X73142889Y-82271414D01*
X72972729Y-82200932D01*
X72792089Y-82165000D01*
X72607911Y-82165000D01*
X72427271Y-82200932D01*
X72379126Y-82220874D01*
X72399068Y-82172729D01*
X72435000Y-81992089D01*
X72435000Y-81807911D01*
X72399068Y-81627271D01*
X72328586Y-81457111D01*
X72226262Y-81303972D01*
X72096028Y-81173738D01*
X71942889Y-81071414D01*
X71772729Y-81000932D01*
X71592089Y-80965000D01*
X71407911Y-80965000D01*
X71258722Y-80994676D01*
X71212115Y-80937885D01*
X71082275Y-80831329D01*
X70934142Y-80752150D01*
X70773408Y-80703392D01*
X70606250Y-80686928D01*
X70168750Y-80686928D01*
X70001592Y-80703392D01*
X69840858Y-80752150D01*
X69692725Y-80831329D01*
X69600000Y-80907426D01*
X69507275Y-80831329D01*
X69414607Y-80781797D01*
X69405700Y-80765133D01*
X69316974Y-80657021D01*
X69289883Y-80634788D01*
X69165095Y-80510000D01*
X83969423Y-80510000D01*
X83981329Y-80532275D01*
%TA.AperFunction,Conductor*%
D29*
G36*
X83981329Y-80532275D02*
G01*
X84087885Y-80662115D01*
X84217725Y-80768671D01*
X84340001Y-80834029D01*
X84340001Y-81407464D01*
X84339502Y-81405820D01*
X84280537Y-81295506D01*
X84201185Y-81198815D01*
X84104494Y-81119463D01*
X83994180Y-81060498D01*
X83874482Y-81024188D01*
X83750000Y-81011928D01*
X82250000Y-81011928D01*
X82125518Y-81024188D01*
X82005820Y-81060498D01*
X81895506Y-81119463D01*
X81798815Y-81198815D01*
X81719463Y-81295506D01*
X81660498Y-81405820D01*
X81624188Y-81525518D01*
X81611928Y-81650000D01*
X81611928Y-83950000D01*
X81624188Y-84074482D01*
X81660498Y-84194180D01*
X81719463Y-84304494D01*
X81798815Y-84401185D01*
X81895506Y-84480537D01*
X82005820Y-84539502D01*
X82125518Y-84575812D01*
X82250000Y-84588072D01*
X83750000Y-84588072D01*
X83874482Y-84575812D01*
X83994180Y-84539502D01*
X84061928Y-84503289D01*
X84061928Y-86340000D01*
X73811018Y-86340000D01*
X73810000Y-86260750D01*
X73651250Y-86102000D01*
X72827000Y-86102000D01*
X72827000Y-86122000D01*
X72573000Y-86122000D01*
X72573000Y-86102000D01*
X71748750Y-86102000D01*
X71636250Y-86214500D01*
X71027000Y-86214500D01*
X71027000Y-86234500D01*
X70773000Y-86234500D01*
X70773000Y-86214500D01*
X69127000Y-86214500D01*
X69127000Y-86234500D01*
X68873000Y-86234500D01*
X68873000Y-86214500D01*
X68853000Y-86214500D01*
X68853000Y-85960500D01*
X68873000Y-85960500D01*
X68873000Y-85940500D01*
X69127000Y-85940500D01*
X69127000Y-85960500D01*
X70773000Y-85960500D01*
X70773000Y-85940500D01*
X71027000Y-85940500D01*
X71027000Y-85960500D01*
X71851250Y-85960500D01*
X71963750Y-85848000D01*
X72573000Y-85848000D01*
X72573000Y-85828000D01*
X72827000Y-85828000D01*
X72827000Y-85848000D01*
X73651250Y-85848000D01*
X73810000Y-85689250D01*
X73813072Y-85450000D01*
X73800812Y-85325518D01*
X73764502Y-85205820D01*
X73705537Y-85095506D01*
X73645901Y-85022839D01*
X73665512Y-84998942D01*
X73746423Y-84847567D01*
X73796248Y-84683316D01*
X73813072Y-84512500D01*
X73813072Y-83937500D01*
X73796248Y-83766684D01*
X73746423Y-83602433D01*
X73665512Y-83451058D01*
X73599490Y-83370610D01*
X73635000Y-83192089D01*
X73635000Y-83007911D01*
X73599068Y-82827271D01*
X73528586Y-82657111D01*
X73426262Y-82503972D01*
X73296028Y-82373738D01*
X73142889Y-82271414D01*
X72972729Y-82200932D01*
X72792089Y-82165000D01*
X72607911Y-82165000D01*
X72427271Y-82200932D01*
X72379126Y-82220874D01*
X72399068Y-82172729D01*
X72435000Y-81992089D01*
X72435000Y-81807911D01*
X72399068Y-81627271D01*
X72328586Y-81457111D01*
X72226262Y-81303972D01*
X72096028Y-81173738D01*
X71942889Y-81071414D01*
X71772729Y-81000932D01*
X71592089Y-80965000D01*
X71407911Y-80965000D01*
X71258722Y-80994676D01*
X71212115Y-80937885D01*
X71082275Y-80831329D01*
X70934142Y-80752150D01*
X70773408Y-80703392D01*
X70606250Y-80686928D01*
X70168750Y-80686928D01*
X70001592Y-80703392D01*
X69840858Y-80752150D01*
X69692725Y-80831329D01*
X69600000Y-80907426D01*
X69507275Y-80831329D01*
X69414607Y-80781797D01*
X69405700Y-80765133D01*
X69316974Y-80657021D01*
X69289883Y-80634788D01*
X69165095Y-80510000D01*
X83969423Y-80510000D01*
X83981329Y-80532275D01*
G37*
%TD.AperFunction*%
D28*
X42590872Y-68610519D02*
X42656800Y-68733862D01*
X42745525Y-68841974D01*
X42772617Y-68864208D01*
X44036928Y-70128519D01*
X44036928Y-70456250D01*
X44053392Y-70623408D01*
X44102150Y-70784142D01*
X44181329Y-70932275D01*
X44287885Y-71062115D01*
X44417725Y-71168671D01*
X44565858Y-71247850D01*
X44726592Y-71296608D01*
X44730391Y-71296982D01*
X47635791Y-74202383D01*
X47658024Y-74229474D01*
X47766136Y-74318199D01*
X47889479Y-74384127D01*
X48023315Y-74424726D01*
X48127622Y-74434999D01*
X48127624Y-74434999D01*
X48162499Y-74438434D01*
X48197374Y-74434999D01*
X50561928Y-74434999D01*
X50561928Y-76000000D01*
X50574188Y-76124482D01*
X50610498Y-76244180D01*
X50669463Y-76354494D01*
X50748815Y-76451185D01*
X50796099Y-76489990D01*
X47660204Y-76489990D01*
X47616737Y-76485709D01*
X47573271Y-76489990D01*
X47573261Y-76489990D01*
X47443248Y-76502795D01*
X47276425Y-76553401D01*
X47122679Y-76635579D01*
X47122677Y-76635580D01*
X47122678Y-76635580D01*
X47021691Y-76718458D01*
X47021689Y-76718460D01*
X46987921Y-76746173D01*
X46960208Y-76779941D01*
X45717456Y-78022694D01*
X45683683Y-78050411D01*
X45573089Y-78185170D01*
X45490911Y-78338916D01*
X45460501Y-78439163D01*
X45442329Y-78499068D01*
X45440305Y-78505739D01*
X45427500Y-78635752D01*
X45427500Y-78635759D01*
X45423219Y-78679228D01*
X45427500Y-78722697D01*
X45427500Y-79465000D01*
X45307911Y-79465000D01*
X45127271Y-79500932D01*
X44957111Y-79571414D01*
X44803972Y-79673738D01*
X44673738Y-79803972D01*
X44587009Y-79933772D01*
X44588072Y-79600000D01*
X44575812Y-79475518D01*
X44539502Y-79355820D01*
X44480537Y-79245506D01*
X44401185Y-79148815D01*
X44304494Y-79069463D01*
X44194180Y-79010498D01*
X44074482Y-78974188D01*
X43950000Y-78961928D01*
X43085750Y-78965000D01*
X42927000Y-79123750D01*
X42927000Y-80723000D01*
X42947000Y-80723000D01*
X42947000Y-80977000D01*
X42927000Y-80977000D01*
X42927000Y-82576250D01*
X43085750Y-82735000D01*
X43950000Y-82738072D01*
X44074482Y-82725812D01*
X44194180Y-82689502D01*
X44304494Y-82630537D01*
X44401185Y-82551185D01*
X44480537Y-82454494D01*
X44539502Y-82344180D01*
X44575812Y-82224482D01*
X44588072Y-82100000D01*
X44585000Y-81135750D01*
X44426252Y-80977002D01*
X44585000Y-80977002D01*
X44585000Y-80863222D01*
X44673738Y-80996028D01*
X44803972Y-81126262D01*
X44957111Y-81228586D01*
X45127271Y-81299068D01*
X45307911Y-81335000D01*
X45492089Y-81335000D01*
X45560190Y-81321454D01*
X45617725Y-81368671D01*
X45696222Y-81410628D01*
X45595506Y-81464463D01*
X45498815Y-81543815D01*
X45419463Y-81640506D01*
X45360498Y-81750820D01*
X45324188Y-81870518D01*
X45315869Y-81954990D01*
X45257344Y-81966631D01*
X45087184Y-82037113D01*
X44934045Y-82139437D01*
X44803811Y-82269671D01*
X44701487Y-82422810D01*
X44631005Y-82592970D01*
X44595073Y-82773610D01*
X44595073Y-82957788D01*
X44631005Y-83138428D01*
X44701487Y-83308588D01*
X44803811Y-83461727D01*
X44934045Y-83591961D01*
X45087184Y-83694285D01*
X45257344Y-83764767D01*
X45318018Y-83776836D01*
X45327071Y-83868745D01*
X45371916Y-84016582D01*
X45443730Y-84150936D01*
X45419463Y-84180506D01*
X45360498Y-84290820D01*
X45324188Y-84410518D01*
X45311928Y-84535000D01*
X45315000Y-84549250D01*
X45473750Y-84708000D01*
X46648000Y-84708000D01*
X46648000Y-84688000D01*
X46902000Y-84688000D01*
X46902000Y-84708000D01*
X46922000Y-84708000D01*
X46922000Y-84962000D01*
X46902000Y-84962000D01*
X46902000Y-84982000D01*
X46648000Y-84982000D01*
X46648000Y-84962000D01*
X45473750Y-84962000D01*
X45315000Y-85120750D01*
X45311928Y-85135000D01*
X45314883Y-85165000D01*
X45307911Y-85165000D01*
X45127271Y-85200932D01*
X45091050Y-85215935D01*
X44588072Y-85217464D01*
X44588072Y-83900000D01*
X44575812Y-83775518D01*
X44539502Y-83655820D01*
X44480537Y-83545506D01*
X44401185Y-83448815D01*
X44304494Y-83369463D01*
X44194180Y-83310498D01*
X44074482Y-83274188D01*
X43950000Y-83261928D01*
X41650000Y-83261928D01*
X41525518Y-83274188D01*
X41405820Y-83310498D01*
X41295506Y-83369463D01*
X41198815Y-83448815D01*
X41119463Y-83545506D01*
X41060498Y-83655820D01*
X41024188Y-83775518D01*
X41011928Y-83900000D01*
X41011928Y-86340000D01*
X40660000Y-86340000D01*
X40660000Y-82100000D01*
X41011928Y-82100000D01*
X41024188Y-82224482D01*
X41060498Y-82344180D01*
X41119463Y-82454494D01*
X41198815Y-82551185D01*
X41295506Y-82630537D01*
X41405820Y-82689502D01*
X41525518Y-82725812D01*
X41650000Y-82738072D01*
X42514250Y-82735000D01*
X42673000Y-82576250D01*
X42673000Y-80977000D01*
X41173750Y-80977000D01*
X41015000Y-81135750D01*
X41011928Y-82100000D01*
X40660000Y-82100000D01*
X40660000Y-79600000D01*
X41011928Y-79600000D01*
X41015000Y-80564250D01*
X41173750Y-80723000D01*
X42673000Y-80723000D01*
X42673000Y-79123750D01*
X42514250Y-78965000D01*
X41650000Y-78961928D01*
X41525518Y-78974188D01*
X41405820Y-79010498D01*
X41295506Y-79069463D01*
X41198815Y-79148815D01*
X41119463Y-79245506D01*
X41060498Y-79355820D01*
X41024188Y-79475518D01*
X41011928Y-79600000D01*
X40660000Y-79600000D01*
X40660000Y-74779872D01*
X42165000Y-74779872D01*
X42165000Y-75220128D01*
X42250890Y-75651925D01*
X42419369Y-76058669D01*
X42663962Y-76424729D01*
X42975271Y-76736038D01*
X43341331Y-76980631D01*
X43748075Y-77149110D01*
X44179872Y-77235000D01*
X44620128Y-77235000D01*
X45051925Y-77149110D01*
X45458669Y-76980631D01*
X45824729Y-76736038D01*
X46136038Y-76424729D01*
X46380631Y-76058669D01*
X46549110Y-75651925D01*
X46635000Y-75220128D01*
X46635000Y-74779872D01*
X46549110Y-74348075D01*
X46380631Y-73941331D01*
X46136038Y-73575271D01*
X45824729Y-73263962D01*
X45458669Y-73019369D01*
X45051925Y-72850890D01*
X44620128Y-72765000D01*
X44179872Y-72765000D01*
X43748075Y-72850890D01*
X43341331Y-73019369D01*
X42975271Y-73263962D01*
X42663962Y-73575271D01*
X42419369Y-73941331D01*
X42250890Y-74348075D01*
X42165000Y-74779872D01*
X40660000Y-74779872D01*
X40660000Y-68988072D01*
X41950000Y-68988072D01*
X42074482Y-68975812D01*
X42194180Y-68939502D01*
X42304494Y-68880537D01*
X42401185Y-68801185D01*
X42480537Y-68704494D01*
X42539502Y-68594180D01*
X42562709Y-68517678D01*
X42590872Y-68610519D01*
%TA.AperFunction,Conductor*%
D29*
G36*
X42590872Y-68610519D02*
G01*
X42656800Y-68733862D01*
X42745525Y-68841974D01*
X42772617Y-68864208D01*
X44036928Y-70128519D01*
X44036928Y-70456250D01*
X44053392Y-70623408D01*
X44102150Y-70784142D01*
X44181329Y-70932275D01*
X44287885Y-71062115D01*
X44417725Y-71168671D01*
X44565858Y-71247850D01*
X44726592Y-71296608D01*
X44730391Y-71296982D01*
X47635791Y-74202383D01*
X47658024Y-74229474D01*
X47766136Y-74318199D01*
X47889479Y-74384127D01*
X48023315Y-74424726D01*
X48127622Y-74434999D01*
X48127624Y-74434999D01*
X48162499Y-74438434D01*
X48197374Y-74434999D01*
X50561928Y-74434999D01*
X50561928Y-76000000D01*
X50574188Y-76124482D01*
X50610498Y-76244180D01*
X50669463Y-76354494D01*
X50748815Y-76451185D01*
X50796099Y-76489990D01*
X47660204Y-76489990D01*
X47616737Y-76485709D01*
X47573271Y-76489990D01*
X47573261Y-76489990D01*
X47443248Y-76502795D01*
X47276425Y-76553401D01*
X47122679Y-76635579D01*
X47122677Y-76635580D01*
X47122678Y-76635580D01*
X47021691Y-76718458D01*
X47021689Y-76718460D01*
X46987921Y-76746173D01*
X46960208Y-76779941D01*
X45717456Y-78022694D01*
X45683683Y-78050411D01*
X45573089Y-78185170D01*
X45490911Y-78338916D01*
X45460501Y-78439163D01*
X45442329Y-78499068D01*
X45440305Y-78505739D01*
X45427500Y-78635752D01*
X45427500Y-78635759D01*
X45423219Y-78679228D01*
X45427500Y-78722697D01*
X45427500Y-79465000D01*
X45307911Y-79465000D01*
X45127271Y-79500932D01*
X44957111Y-79571414D01*
X44803972Y-79673738D01*
X44673738Y-79803972D01*
X44587009Y-79933772D01*
X44588072Y-79600000D01*
X44575812Y-79475518D01*
X44539502Y-79355820D01*
X44480537Y-79245506D01*
X44401185Y-79148815D01*
X44304494Y-79069463D01*
X44194180Y-79010498D01*
X44074482Y-78974188D01*
X43950000Y-78961928D01*
X43085750Y-78965000D01*
X42927000Y-79123750D01*
X42927000Y-80723000D01*
X42947000Y-80723000D01*
X42947000Y-80977000D01*
X42927000Y-80977000D01*
X42927000Y-82576250D01*
X43085750Y-82735000D01*
X43950000Y-82738072D01*
X44074482Y-82725812D01*
X44194180Y-82689502D01*
X44304494Y-82630537D01*
X44401185Y-82551185D01*
X44480537Y-82454494D01*
X44539502Y-82344180D01*
X44575812Y-82224482D01*
X44588072Y-82100000D01*
X44585000Y-81135750D01*
X44426252Y-80977002D01*
X44585000Y-80977002D01*
X44585000Y-80863222D01*
X44673738Y-80996028D01*
X44803972Y-81126262D01*
X44957111Y-81228586D01*
X45127271Y-81299068D01*
X45307911Y-81335000D01*
X45492089Y-81335000D01*
X45560190Y-81321454D01*
X45617725Y-81368671D01*
X45696222Y-81410628D01*
X45595506Y-81464463D01*
X45498815Y-81543815D01*
X45419463Y-81640506D01*
X45360498Y-81750820D01*
X45324188Y-81870518D01*
X45315869Y-81954990D01*
X45257344Y-81966631D01*
X45087184Y-82037113D01*
X44934045Y-82139437D01*
X44803811Y-82269671D01*
X44701487Y-82422810D01*
X44631005Y-82592970D01*
X44595073Y-82773610D01*
X44595073Y-82957788D01*
X44631005Y-83138428D01*
X44701487Y-83308588D01*
X44803811Y-83461727D01*
X44934045Y-83591961D01*
X45087184Y-83694285D01*
X45257344Y-83764767D01*
X45318018Y-83776836D01*
X45327071Y-83868745D01*
X45371916Y-84016582D01*
X45443730Y-84150936D01*
X45419463Y-84180506D01*
X45360498Y-84290820D01*
X45324188Y-84410518D01*
X45311928Y-84535000D01*
X45315000Y-84549250D01*
X45473750Y-84708000D01*
X46648000Y-84708000D01*
X46648000Y-84688000D01*
X46902000Y-84688000D01*
X46902000Y-84708000D01*
X46922000Y-84708000D01*
X46922000Y-84962000D01*
X46902000Y-84962000D01*
X46902000Y-84982000D01*
X46648000Y-84982000D01*
X46648000Y-84962000D01*
X45473750Y-84962000D01*
X45315000Y-85120750D01*
X45311928Y-85135000D01*
X45314883Y-85165000D01*
X45307911Y-85165000D01*
X45127271Y-85200932D01*
X45091050Y-85215935D01*
X44588072Y-85217464D01*
X44588072Y-83900000D01*
X44575812Y-83775518D01*
X44539502Y-83655820D01*
X44480537Y-83545506D01*
X44401185Y-83448815D01*
X44304494Y-83369463D01*
X44194180Y-83310498D01*
X44074482Y-83274188D01*
X43950000Y-83261928D01*
X41650000Y-83261928D01*
X41525518Y-83274188D01*
X41405820Y-83310498D01*
X41295506Y-83369463D01*
X41198815Y-83448815D01*
X41119463Y-83545506D01*
X41060498Y-83655820D01*
X41024188Y-83775518D01*
X41011928Y-83900000D01*
X41011928Y-86340000D01*
X40660000Y-86340000D01*
X40660000Y-82100000D01*
X41011928Y-82100000D01*
X41024188Y-82224482D01*
X41060498Y-82344180D01*
X41119463Y-82454494D01*
X41198815Y-82551185D01*
X41295506Y-82630537D01*
X41405820Y-82689502D01*
X41525518Y-82725812D01*
X41650000Y-82738072D01*
X42514250Y-82735000D01*
X42673000Y-82576250D01*
X42673000Y-80977000D01*
X41173750Y-80977000D01*
X41015000Y-81135750D01*
X41011928Y-82100000D01*
X40660000Y-82100000D01*
X40660000Y-79600000D01*
X41011928Y-79600000D01*
X41015000Y-80564250D01*
X41173750Y-80723000D01*
X42673000Y-80723000D01*
X42673000Y-79123750D01*
X42514250Y-78965000D01*
X41650000Y-78961928D01*
X41525518Y-78974188D01*
X41405820Y-79010498D01*
X41295506Y-79069463D01*
X41198815Y-79148815D01*
X41119463Y-79245506D01*
X41060498Y-79355820D01*
X41024188Y-79475518D01*
X41011928Y-79600000D01*
X40660000Y-79600000D01*
X40660000Y-74779872D01*
X42165000Y-74779872D01*
X42165000Y-75220128D01*
X42250890Y-75651925D01*
X42419369Y-76058669D01*
X42663962Y-76424729D01*
X42975271Y-76736038D01*
X43341331Y-76980631D01*
X43748075Y-77149110D01*
X44179872Y-77235000D01*
X44620128Y-77235000D01*
X45051925Y-77149110D01*
X45458669Y-76980631D01*
X45824729Y-76736038D01*
X46136038Y-76424729D01*
X46380631Y-76058669D01*
X46549110Y-75651925D01*
X46635000Y-75220128D01*
X46635000Y-74779872D01*
X46549110Y-74348075D01*
X46380631Y-73941331D01*
X46136038Y-73575271D01*
X45824729Y-73263962D01*
X45458669Y-73019369D01*
X45051925Y-72850890D01*
X44620128Y-72765000D01*
X44179872Y-72765000D01*
X43748075Y-72850890D01*
X43341331Y-73019369D01*
X42975271Y-73263962D01*
X42663962Y-73575271D01*
X42419369Y-73941331D01*
X42250890Y-74348075D01*
X42165000Y-74779872D01*
X40660000Y-74779872D01*
X40660000Y-68988072D01*
X41950000Y-68988072D01*
X42074482Y-68975812D01*
X42194180Y-68939502D01*
X42304494Y-68880537D01*
X42401185Y-68801185D01*
X42480537Y-68704494D01*
X42539502Y-68594180D01*
X42562709Y-68517678D01*
X42590872Y-68610519D01*
G37*
%TD.AperFunction*%
D28*
X115340000Y-67646112D02*
X115301185Y-67598815D01*
X115204494Y-67519463D01*
X115094180Y-67460498D01*
X114974482Y-67424188D01*
X114850000Y-67411928D01*
X114285750Y-67415000D01*
X114127000Y-67573750D01*
X114127000Y-68773000D01*
X114147000Y-68773000D01*
X114147000Y-69027000D01*
X114127000Y-69027000D01*
X114127000Y-70226250D01*
X114285750Y-70385000D01*
X114850000Y-70388072D01*
X114974482Y-70375812D01*
X115094180Y-70339502D01*
X115204494Y-70280537D01*
X115301185Y-70201185D01*
X115340000Y-70153888D01*
X115340001Y-86340000D01*
X104737631Y-86340000D01*
X104735000Y-85085750D01*
X104576250Y-84927000D01*
X103877000Y-84927000D01*
X103877000Y-84947000D01*
X103623000Y-84947000D01*
X103623000Y-84927000D01*
X103603000Y-84927000D01*
X103603000Y-84673000D01*
X103623000Y-84673000D01*
X103623000Y-82573750D01*
X103877000Y-82573750D01*
X103877000Y-84673000D01*
X104576250Y-84673000D01*
X104735000Y-84514250D01*
X104735026Y-84501661D01*
X104805820Y-84539502D01*
X104925518Y-84575812D01*
X105050000Y-84588072D01*
X106550000Y-84588072D01*
X106674482Y-84575812D01*
X106794180Y-84539502D01*
X106904494Y-84480537D01*
X107001185Y-84401185D01*
X107080537Y-84304494D01*
X107139502Y-84194180D01*
X107175812Y-84074482D01*
X107188072Y-83950000D01*
X107188072Y-81650000D01*
X107175812Y-81525518D01*
X107139502Y-81405820D01*
X107080537Y-81295506D01*
X107001185Y-81198815D01*
X106904494Y-81119463D01*
X106794180Y-81060498D01*
X106674482Y-81024188D01*
X106550000Y-81011928D01*
X105050000Y-81011928D01*
X104925518Y-81024188D01*
X104805820Y-81060498D01*
X104695506Y-81119463D01*
X104598815Y-81198815D01*
X104519463Y-81295506D01*
X104460498Y-81405820D01*
X104424188Y-81525518D01*
X104411928Y-81650000D01*
X104411928Y-82496711D01*
X104344180Y-82460498D01*
X104224482Y-82424188D01*
X104100000Y-82411928D01*
X104035750Y-82415000D01*
X103877000Y-82573750D01*
X103623000Y-82573750D01*
X103464250Y-82415000D01*
X103400000Y-82411928D01*
X103275518Y-82424188D01*
X103155820Y-82460498D01*
X103045506Y-82519463D01*
X103000000Y-82556809D01*
X102960000Y-82523982D01*
X102960000Y-80725401D01*
X103000000Y-80692574D01*
X103092725Y-80768671D01*
X103240858Y-80847850D01*
X103401592Y-80896608D01*
X103568750Y-80913072D01*
X104006250Y-80913072D01*
X104173408Y-80896608D01*
X104334142Y-80847850D01*
X104482275Y-80768671D01*
X104612115Y-80662115D01*
X104718671Y-80532275D01*
X104797850Y-80384142D01*
X104846608Y-80223408D01*
X104863072Y-80056250D01*
X104863072Y-79543750D01*
X104846608Y-79376592D01*
X104833804Y-79334383D01*
X104920506Y-79405537D01*
X105030820Y-79464502D01*
X105150518Y-79500812D01*
X105275000Y-79513072D01*
X105426750Y-79510000D01*
X105585500Y-79351250D01*
X105585500Y-78527000D01*
X104798750Y-78527000D01*
X104640000Y-78685750D01*
X104636928Y-78875000D01*
X104647350Y-78980819D01*
X104612115Y-78937885D01*
X104482275Y-78831329D01*
X104334142Y-78752150D01*
X104173408Y-78703392D01*
X104006250Y-78686928D01*
X103678519Y-78686928D01*
X103624999Y-78633408D01*
X103624999Y-77925000D01*
X104636928Y-77925000D01*
X104640000Y-78114250D01*
X104798750Y-78273000D01*
X105585500Y-78273000D01*
X105585500Y-77448750D01*
X105426750Y-77290000D01*
X105275000Y-77286928D01*
X105150518Y-77299188D01*
X105030820Y-77335498D01*
X104920506Y-77394463D01*
X104823815Y-77473815D01*
X104744463Y-77570506D01*
X104685498Y-77680820D01*
X104649188Y-77800518D01*
X104636928Y-77925000D01*
X103624999Y-77925000D01*
X103624999Y-76542127D01*
X103931108Y-76622384D01*
X104252595Y-76641718D01*
X104571675Y-76597961D01*
X104876088Y-76492795D01*
X105050044Y-76399814D01*
X105145808Y-76135413D01*
X104190000Y-75179605D01*
X104175858Y-75193748D01*
X103996253Y-75014143D01*
X104010395Y-75000000D01*
X104369605Y-75000000D01*
X105325413Y-75955808D01*
X105589814Y-75860044D01*
X105730704Y-75570429D01*
X105812384Y-75258892D01*
X105831718Y-74937405D01*
X105787961Y-74618325D01*
X105682795Y-74313912D01*
X105589814Y-74139956D01*
X105325413Y-74044192D01*
X104369605Y-75000000D01*
X104010395Y-75000000D01*
X103996253Y-74985858D01*
X104175858Y-74806253D01*
X104190000Y-74820395D01*
X105145808Y-73864587D01*
X105050044Y-73600186D01*
X104760429Y-73459296D01*
X104448892Y-73377616D01*
X104127405Y-73358282D01*
X103808325Y-73402039D01*
X103624999Y-73465373D01*
X103624999Y-72035996D01*
X103642889Y-72028586D01*
X103796028Y-71926262D01*
X103926262Y-71796028D01*
X104028586Y-71642889D01*
X104099068Y-71472729D01*
X104131437Y-71310001D01*
X106715689Y-71310001D01*
X106700274Y-71360818D01*
X106686565Y-71500002D01*
X106690001Y-71534887D01*
X106690000Y-74169423D01*
X106667725Y-74181329D01*
X106537885Y-74287885D01*
X106431329Y-74417725D01*
X106352150Y-74565858D01*
X106303392Y-74726592D01*
X106286928Y-74893750D01*
X106286928Y-75331250D01*
X106303392Y-75498408D01*
X106352150Y-75659142D01*
X106431329Y-75807275D01*
X106507426Y-75900000D01*
X106431329Y-75992725D01*
X106352150Y-76140858D01*
X106303392Y-76301592D01*
X106286928Y-76468750D01*
X106286928Y-76906250D01*
X106303392Y-77073408D01*
X106352150Y-77234142D01*
X106411184Y-77344587D01*
X106394180Y-77335498D01*
X106274482Y-77299188D01*
X106150000Y-77286928D01*
X105998250Y-77290000D01*
X105839500Y-77448750D01*
X105839500Y-78273000D01*
X105859500Y-78273000D01*
X105859500Y-78527000D01*
X105839500Y-78527000D01*
X105839500Y-79351250D01*
X105998250Y-79510000D01*
X106150000Y-79513072D01*
X106274482Y-79500812D01*
X106394180Y-79464502D01*
X106504494Y-79405537D01*
X106571070Y-79350900D01*
X106592725Y-79368671D01*
X106740858Y-79447850D01*
X106901592Y-79496608D01*
X107068750Y-79513072D01*
X107506250Y-79513072D01*
X107673408Y-79496608D01*
X107834142Y-79447850D01*
X107982275Y-79368671D01*
X108112115Y-79262115D01*
X108218671Y-79132275D01*
X108297850Y-78984142D01*
X108346608Y-78823408D01*
X108363072Y-78656250D01*
X108363072Y-78143750D01*
X108346608Y-77976592D01*
X108297850Y-77815858D01*
X108218671Y-77667725D01*
X108159845Y-77596045D01*
X108262115Y-77512115D01*
X108368671Y-77382275D01*
X108447850Y-77234142D01*
X108496608Y-77073408D01*
X108513072Y-76906250D01*
X108513072Y-76468750D01*
X108496608Y-76301592D01*
X108447850Y-76140858D01*
X108368671Y-75992725D01*
X108292574Y-75900000D01*
X108368671Y-75807275D01*
X108447850Y-75659142D01*
X108496608Y-75498408D01*
X108513072Y-75331250D01*
X108513072Y-74893750D01*
X108501856Y-74779872D01*
X109665000Y-74779872D01*
X109665000Y-75220128D01*
X109750890Y-75651925D01*
X109919369Y-76058669D01*
X110163962Y-76424729D01*
X110475271Y-76736038D01*
X110841331Y-76980631D01*
X111248075Y-77149110D01*
X111679872Y-77235000D01*
X112120128Y-77235000D01*
X112551925Y-77149110D01*
X112958669Y-76980631D01*
X113324729Y-76736038D01*
X113636038Y-76424729D01*
X113880631Y-76058669D01*
X114049110Y-75651925D01*
X114135000Y-75220128D01*
X114135000Y-74779872D01*
X114049110Y-74348075D01*
X113880631Y-73941331D01*
X113636038Y-73575271D01*
X113324729Y-73263962D01*
X112958669Y-73019369D01*
X112551925Y-72850890D01*
X112120128Y-72765000D01*
X111679872Y-72765000D01*
X111248075Y-72850890D01*
X110841331Y-73019369D01*
X110475271Y-73263962D01*
X110163962Y-73575271D01*
X109919369Y-73941331D01*
X109750890Y-74348075D01*
X109665000Y-74779872D01*
X108501856Y-74779872D01*
X108496608Y-74726592D01*
X108447850Y-74565858D01*
X108442023Y-74554957D01*
X108419128Y-74479481D01*
X108353199Y-74356137D01*
X108264474Y-74248026D01*
X108156363Y-74159301D01*
X108110000Y-74134519D01*
X108110000Y-71794093D01*
X108594092Y-71310001D01*
X109725124Y-71310001D01*
X109759999Y-71313436D01*
X109794874Y-71310001D01*
X109794876Y-71310001D01*
X109899183Y-71299728D01*
X110033019Y-71259129D01*
X110156362Y-71193201D01*
X110264474Y-71104476D01*
X110286711Y-71077380D01*
X111034614Y-70329478D01*
X111313740Y-70385000D01*
X111606260Y-70385000D01*
X111893158Y-70327932D01*
X112163411Y-70215990D01*
X112406632Y-70053475D01*
X112538487Y-69921620D01*
X112560498Y-69994180D01*
X112619463Y-70104494D01*
X112698815Y-70201185D01*
X112795506Y-70280537D01*
X112905820Y-70339502D01*
X113025518Y-70375812D01*
X113150000Y-70388072D01*
X113714250Y-70385000D01*
X113873000Y-70226250D01*
X113873000Y-69027000D01*
X113853000Y-69027000D01*
X113853000Y-68773000D01*
X113873000Y-68773000D01*
X113873000Y-67573750D01*
X113714250Y-67415000D01*
X113150000Y-67411928D01*
X113025518Y-67424188D01*
X112905820Y-67460498D01*
X112795506Y-67519463D01*
X112698815Y-67598815D01*
X112619463Y-67695506D01*
X112560498Y-67805820D01*
X112538487Y-67878380D01*
X112406632Y-67746525D01*
X112163411Y-67584010D01*
X111893158Y-67472068D01*
X111606260Y-67415000D01*
X111313740Y-67415000D01*
X111026842Y-67472068D01*
X110756589Y-67584010D01*
X110513368Y-67746525D01*
X110306525Y-67953368D01*
X110190000Y-68127760D01*
X110073475Y-67953368D01*
X109866632Y-67746525D01*
X109623411Y-67584010D01*
X109423066Y-67501025D01*
X110594613Y-66329478D01*
X110873740Y-66385000D01*
X111166260Y-66385000D01*
X111453158Y-66327932D01*
X111723411Y-66215990D01*
X111966632Y-66053475D01*
X112173475Y-65846632D01*
X112335990Y-65603411D01*
X112447932Y-65333158D01*
X112505000Y-65046260D01*
X112505000Y-64753740D01*
X112447932Y-64466842D01*
X112335990Y-64196589D01*
X112173475Y-63953368D01*
X111966632Y-63746525D01*
X111837138Y-63660000D01*
X115340000Y-63660000D01*
X115340000Y-67646112D01*
%TA.AperFunction,Conductor*%
D29*
G36*
X115340000Y-67646112D02*
G01*
X115301185Y-67598815D01*
X115204494Y-67519463D01*
X115094180Y-67460498D01*
X114974482Y-67424188D01*
X114850000Y-67411928D01*
X114285750Y-67415000D01*
X114127000Y-67573750D01*
X114127000Y-68773000D01*
X114147000Y-68773000D01*
X114147000Y-69027000D01*
X114127000Y-69027000D01*
X114127000Y-70226250D01*
X114285750Y-70385000D01*
X114850000Y-70388072D01*
X114974482Y-70375812D01*
X115094180Y-70339502D01*
X115204494Y-70280537D01*
X115301185Y-70201185D01*
X115340000Y-70153888D01*
X115340001Y-86340000D01*
X104737631Y-86340000D01*
X104735000Y-85085750D01*
X104576250Y-84927000D01*
X103877000Y-84927000D01*
X103877000Y-84947000D01*
X103623000Y-84947000D01*
X103623000Y-84927000D01*
X103603000Y-84927000D01*
X103603000Y-84673000D01*
X103623000Y-84673000D01*
X103623000Y-82573750D01*
X103877000Y-82573750D01*
X103877000Y-84673000D01*
X104576250Y-84673000D01*
X104735000Y-84514250D01*
X104735026Y-84501661D01*
X104805820Y-84539502D01*
X104925518Y-84575812D01*
X105050000Y-84588072D01*
X106550000Y-84588072D01*
X106674482Y-84575812D01*
X106794180Y-84539502D01*
X106904494Y-84480537D01*
X107001185Y-84401185D01*
X107080537Y-84304494D01*
X107139502Y-84194180D01*
X107175812Y-84074482D01*
X107188072Y-83950000D01*
X107188072Y-81650000D01*
X107175812Y-81525518D01*
X107139502Y-81405820D01*
X107080537Y-81295506D01*
X107001185Y-81198815D01*
X106904494Y-81119463D01*
X106794180Y-81060498D01*
X106674482Y-81024188D01*
X106550000Y-81011928D01*
X105050000Y-81011928D01*
X104925518Y-81024188D01*
X104805820Y-81060498D01*
X104695506Y-81119463D01*
X104598815Y-81198815D01*
X104519463Y-81295506D01*
X104460498Y-81405820D01*
X104424188Y-81525518D01*
X104411928Y-81650000D01*
X104411928Y-82496711D01*
X104344180Y-82460498D01*
X104224482Y-82424188D01*
X104100000Y-82411928D01*
X104035750Y-82415000D01*
X103877000Y-82573750D01*
X103623000Y-82573750D01*
X103464250Y-82415000D01*
X103400000Y-82411928D01*
X103275518Y-82424188D01*
X103155820Y-82460498D01*
X103045506Y-82519463D01*
X103000000Y-82556809D01*
X102960000Y-82523982D01*
X102960000Y-80725401D01*
X103000000Y-80692574D01*
X103092725Y-80768671D01*
X103240858Y-80847850D01*
X103401592Y-80896608D01*
X103568750Y-80913072D01*
X104006250Y-80913072D01*
X104173408Y-80896608D01*
X104334142Y-80847850D01*
X104482275Y-80768671D01*
X104612115Y-80662115D01*
X104718671Y-80532275D01*
X104797850Y-80384142D01*
X104846608Y-80223408D01*
X104863072Y-80056250D01*
X104863072Y-79543750D01*
X104846608Y-79376592D01*
X104833804Y-79334383D01*
X104920506Y-79405537D01*
X105030820Y-79464502D01*
X105150518Y-79500812D01*
X105275000Y-79513072D01*
X105426750Y-79510000D01*
X105585500Y-79351250D01*
X105585500Y-78527000D01*
X104798750Y-78527000D01*
X104640000Y-78685750D01*
X104636928Y-78875000D01*
X104647350Y-78980819D01*
X104612115Y-78937885D01*
X104482275Y-78831329D01*
X104334142Y-78752150D01*
X104173408Y-78703392D01*
X104006250Y-78686928D01*
X103678519Y-78686928D01*
X103624999Y-78633408D01*
X103624999Y-77925000D01*
X104636928Y-77925000D01*
X104640000Y-78114250D01*
X104798750Y-78273000D01*
X105585500Y-78273000D01*
X105585500Y-77448750D01*
X105426750Y-77290000D01*
X105275000Y-77286928D01*
X105150518Y-77299188D01*
X105030820Y-77335498D01*
X104920506Y-77394463D01*
X104823815Y-77473815D01*
X104744463Y-77570506D01*
X104685498Y-77680820D01*
X104649188Y-77800518D01*
X104636928Y-77925000D01*
X103624999Y-77925000D01*
X103624999Y-76542127D01*
X103931108Y-76622384D01*
X104252595Y-76641718D01*
X104571675Y-76597961D01*
X104876088Y-76492795D01*
X105050044Y-76399814D01*
X105145808Y-76135413D01*
X104190000Y-75179605D01*
X104175858Y-75193748D01*
X103996253Y-75014143D01*
X104010395Y-75000000D01*
X104369605Y-75000000D01*
X105325413Y-75955808D01*
X105589814Y-75860044D01*
X105730704Y-75570429D01*
X105812384Y-75258892D01*
X105831718Y-74937405D01*
X105787961Y-74618325D01*
X105682795Y-74313912D01*
X105589814Y-74139956D01*
X105325413Y-74044192D01*
X104369605Y-75000000D01*
X104010395Y-75000000D01*
X103996253Y-74985858D01*
X104175858Y-74806253D01*
X104190000Y-74820395D01*
X105145808Y-73864587D01*
X105050044Y-73600186D01*
X104760429Y-73459296D01*
X104448892Y-73377616D01*
X104127405Y-73358282D01*
X103808325Y-73402039D01*
X103624999Y-73465373D01*
X103624999Y-72035996D01*
X103642889Y-72028586D01*
X103796028Y-71926262D01*
X103926262Y-71796028D01*
X104028586Y-71642889D01*
X104099068Y-71472729D01*
X104131437Y-71310001D01*
X106715689Y-71310001D01*
X106700274Y-71360818D01*
X106686565Y-71500002D01*
X106690001Y-71534887D01*
X106690000Y-74169423D01*
X106667725Y-74181329D01*
X106537885Y-74287885D01*
X106431329Y-74417725D01*
X106352150Y-74565858D01*
X106303392Y-74726592D01*
X106286928Y-74893750D01*
X106286928Y-75331250D01*
X106303392Y-75498408D01*
X106352150Y-75659142D01*
X106431329Y-75807275D01*
X106507426Y-75900000D01*
X106431329Y-75992725D01*
X106352150Y-76140858D01*
X106303392Y-76301592D01*
X106286928Y-76468750D01*
X106286928Y-76906250D01*
X106303392Y-77073408D01*
X106352150Y-77234142D01*
X106411184Y-77344587D01*
X106394180Y-77335498D01*
X106274482Y-77299188D01*
X106150000Y-77286928D01*
X105998250Y-77290000D01*
X105839500Y-77448750D01*
X105839500Y-78273000D01*
X105859500Y-78273000D01*
X105859500Y-78527000D01*
X105839500Y-78527000D01*
X105839500Y-79351250D01*
X105998250Y-79510000D01*
X106150000Y-79513072D01*
X106274482Y-79500812D01*
X106394180Y-79464502D01*
X106504494Y-79405537D01*
X106571070Y-79350900D01*
X106592725Y-79368671D01*
X106740858Y-79447850D01*
X106901592Y-79496608D01*
X107068750Y-79513072D01*
X107506250Y-79513072D01*
X107673408Y-79496608D01*
X107834142Y-79447850D01*
X107982275Y-79368671D01*
X108112115Y-79262115D01*
X108218671Y-79132275D01*
X108297850Y-78984142D01*
X108346608Y-78823408D01*
X108363072Y-78656250D01*
X108363072Y-78143750D01*
X108346608Y-77976592D01*
X108297850Y-77815858D01*
X108218671Y-77667725D01*
X108159845Y-77596045D01*
X108262115Y-77512115D01*
X108368671Y-77382275D01*
X108447850Y-77234142D01*
X108496608Y-77073408D01*
X108513072Y-76906250D01*
X108513072Y-76468750D01*
X108496608Y-76301592D01*
X108447850Y-76140858D01*
X108368671Y-75992725D01*
X108292574Y-75900000D01*
X108368671Y-75807275D01*
X108447850Y-75659142D01*
X108496608Y-75498408D01*
X108513072Y-75331250D01*
X108513072Y-74893750D01*
X108501856Y-74779872D01*
X109665000Y-74779872D01*
X109665000Y-75220128D01*
X109750890Y-75651925D01*
X109919369Y-76058669D01*
X110163962Y-76424729D01*
X110475271Y-76736038D01*
X110841331Y-76980631D01*
X111248075Y-77149110D01*
X111679872Y-77235000D01*
X112120128Y-77235000D01*
X112551925Y-77149110D01*
X112958669Y-76980631D01*
X113324729Y-76736038D01*
X113636038Y-76424729D01*
X113880631Y-76058669D01*
X114049110Y-75651925D01*
X114135000Y-75220128D01*
X114135000Y-74779872D01*
X114049110Y-74348075D01*
X113880631Y-73941331D01*
X113636038Y-73575271D01*
X113324729Y-73263962D01*
X112958669Y-73019369D01*
X112551925Y-72850890D01*
X112120128Y-72765000D01*
X111679872Y-72765000D01*
X111248075Y-72850890D01*
X110841331Y-73019369D01*
X110475271Y-73263962D01*
X110163962Y-73575271D01*
X109919369Y-73941331D01*
X109750890Y-74348075D01*
X109665000Y-74779872D01*
X108501856Y-74779872D01*
X108496608Y-74726592D01*
X108447850Y-74565858D01*
X108442023Y-74554957D01*
X108419128Y-74479481D01*
X108353199Y-74356137D01*
X108264474Y-74248026D01*
X108156363Y-74159301D01*
X108110000Y-74134519D01*
X108110000Y-71794093D01*
X108594092Y-71310001D01*
X109725124Y-71310001D01*
X109759999Y-71313436D01*
X109794874Y-71310001D01*
X109794876Y-71310001D01*
X109899183Y-71299728D01*
X110033019Y-71259129D01*
X110156362Y-71193201D01*
X110264474Y-71104476D01*
X110286711Y-71077380D01*
X111034614Y-70329478D01*
X111313740Y-70385000D01*
X111606260Y-70385000D01*
X111893158Y-70327932D01*
X112163411Y-70215990D01*
X112406632Y-70053475D01*
X112538487Y-69921620D01*
X112560498Y-69994180D01*
X112619463Y-70104494D01*
X112698815Y-70201185D01*
X112795506Y-70280537D01*
X112905820Y-70339502D01*
X113025518Y-70375812D01*
X113150000Y-70388072D01*
X113714250Y-70385000D01*
X113873000Y-70226250D01*
X113873000Y-69027000D01*
X113853000Y-69027000D01*
X113853000Y-68773000D01*
X113873000Y-68773000D01*
X113873000Y-67573750D01*
X113714250Y-67415000D01*
X113150000Y-67411928D01*
X113025518Y-67424188D01*
X112905820Y-67460498D01*
X112795506Y-67519463D01*
X112698815Y-67598815D01*
X112619463Y-67695506D01*
X112560498Y-67805820D01*
X112538487Y-67878380D01*
X112406632Y-67746525D01*
X112163411Y-67584010D01*
X111893158Y-67472068D01*
X111606260Y-67415000D01*
X111313740Y-67415000D01*
X111026842Y-67472068D01*
X110756589Y-67584010D01*
X110513368Y-67746525D01*
X110306525Y-67953368D01*
X110190000Y-68127760D01*
X110073475Y-67953368D01*
X109866632Y-67746525D01*
X109623411Y-67584010D01*
X109423066Y-67501025D01*
X110594613Y-66329478D01*
X110873740Y-66385000D01*
X111166260Y-66385000D01*
X111453158Y-66327932D01*
X111723411Y-66215990D01*
X111966632Y-66053475D01*
X112173475Y-65846632D01*
X112335990Y-65603411D01*
X112447932Y-65333158D01*
X112505000Y-65046260D01*
X112505000Y-64753740D01*
X112447932Y-64466842D01*
X112335990Y-64196589D01*
X112173475Y-63953368D01*
X111966632Y-63746525D01*
X111837138Y-63660000D01*
X115340000Y-63660000D01*
X115340000Y-67646112D01*
G37*
%TD.AperFunction*%
D28*
X92781329Y-80532275D02*
X92887885Y-80662115D01*
X92940001Y-80704885D01*
X92940001Y-81407464D01*
X92939502Y-81405820D01*
X92880537Y-81295506D01*
X92801185Y-81198815D01*
X92704494Y-81119463D01*
X92594180Y-81060498D01*
X92474482Y-81024188D01*
X92350000Y-81011928D01*
X90850000Y-81011928D01*
X90725518Y-81024188D01*
X90605820Y-81060498D01*
X90495506Y-81119463D01*
X90398815Y-81198815D01*
X90319463Y-81295506D01*
X90260498Y-81405820D01*
X90224188Y-81525518D01*
X90211928Y-81650000D01*
X90211928Y-83950000D01*
X90224188Y-84074482D01*
X90260498Y-84194180D01*
X90319463Y-84304494D01*
X90398815Y-84401185D01*
X90495506Y-84480537D01*
X90605820Y-84539502D01*
X90725518Y-84575812D01*
X90850000Y-84588072D01*
X92350000Y-84588072D01*
X92474482Y-84575812D01*
X92594180Y-84539502D01*
X92661928Y-84503289D01*
X92661928Y-86340000D01*
X87537631Y-86340000D01*
X87535000Y-85085750D01*
X87376250Y-84927000D01*
X86677000Y-84927000D01*
X86677000Y-84947000D01*
X86423000Y-84947000D01*
X86423000Y-84927000D01*
X86403000Y-84927000D01*
X86403000Y-84673000D01*
X86423000Y-84673000D01*
X86423000Y-82573750D01*
X86264250Y-82415000D01*
X86200000Y-82411928D01*
X86075518Y-82424188D01*
X85955820Y-82460498D01*
X85845506Y-82519463D01*
X85800000Y-82556809D01*
X85760000Y-82523982D01*
X85760000Y-80741815D01*
X85792725Y-80768671D01*
X85940858Y-80847850D01*
X86101592Y-80896608D01*
X86268750Y-80913072D01*
X86706250Y-80913072D01*
X86873408Y-80896608D01*
X86901595Y-80888058D01*
X86973738Y-80996028D01*
X87103972Y-81126262D01*
X87257111Y-81228586D01*
X87344632Y-81264838D01*
X87319463Y-81295506D01*
X87260498Y-81405820D01*
X87224188Y-81525518D01*
X87211928Y-81650000D01*
X87211928Y-82496711D01*
X87144180Y-82460498D01*
X87024482Y-82424188D01*
X86900000Y-82411928D01*
X86835750Y-82415000D01*
X86677000Y-82573750D01*
X86677000Y-84673000D01*
X87376250Y-84673000D01*
X87535000Y-84514250D01*
X87535026Y-84501661D01*
X87605820Y-84539502D01*
X87725518Y-84575812D01*
X87850000Y-84588072D01*
X89350000Y-84588072D01*
X89474482Y-84575812D01*
X89594180Y-84539502D01*
X89704494Y-84480537D01*
X89801185Y-84401185D01*
X89880537Y-84304494D01*
X89939502Y-84194180D01*
X89975812Y-84074482D01*
X89988072Y-83950000D01*
X89988072Y-81650000D01*
X89975812Y-81525518D01*
X89939502Y-81405820D01*
X89880537Y-81295506D01*
X89801185Y-81198815D01*
X89704494Y-81119463D01*
X89594180Y-81060498D01*
X89474482Y-81024188D01*
X89350000Y-81011928D01*
X88410362Y-81011928D01*
X88426262Y-80996028D01*
X88528586Y-80842889D01*
X88599068Y-80672729D01*
X88631437Y-80510000D01*
X92769423Y-80510000D01*
X92781329Y-80532275D01*
%TA.AperFunction,Conductor*%
D29*
G36*
X92781329Y-80532275D02*
G01*
X92887885Y-80662115D01*
X92940001Y-80704885D01*
X92940001Y-81407464D01*
X92939502Y-81405820D01*
X92880537Y-81295506D01*
X92801185Y-81198815D01*
X92704494Y-81119463D01*
X92594180Y-81060498D01*
X92474482Y-81024188D01*
X92350000Y-81011928D01*
X90850000Y-81011928D01*
X90725518Y-81024188D01*
X90605820Y-81060498D01*
X90495506Y-81119463D01*
X90398815Y-81198815D01*
X90319463Y-81295506D01*
X90260498Y-81405820D01*
X90224188Y-81525518D01*
X90211928Y-81650000D01*
X90211928Y-83950000D01*
X90224188Y-84074482D01*
X90260498Y-84194180D01*
X90319463Y-84304494D01*
X90398815Y-84401185D01*
X90495506Y-84480537D01*
X90605820Y-84539502D01*
X90725518Y-84575812D01*
X90850000Y-84588072D01*
X92350000Y-84588072D01*
X92474482Y-84575812D01*
X92594180Y-84539502D01*
X92661928Y-84503289D01*
X92661928Y-86340000D01*
X87537631Y-86340000D01*
X87535000Y-85085750D01*
X87376250Y-84927000D01*
X86677000Y-84927000D01*
X86677000Y-84947000D01*
X86423000Y-84947000D01*
X86423000Y-84927000D01*
X86403000Y-84927000D01*
X86403000Y-84673000D01*
X86423000Y-84673000D01*
X86423000Y-82573750D01*
X86264250Y-82415000D01*
X86200000Y-82411928D01*
X86075518Y-82424188D01*
X85955820Y-82460498D01*
X85845506Y-82519463D01*
X85800000Y-82556809D01*
X85760000Y-82523982D01*
X85760000Y-80741815D01*
X85792725Y-80768671D01*
X85940858Y-80847850D01*
X86101592Y-80896608D01*
X86268750Y-80913072D01*
X86706250Y-80913072D01*
X86873408Y-80896608D01*
X86901595Y-80888058D01*
X86973738Y-80996028D01*
X87103972Y-81126262D01*
X87257111Y-81228586D01*
X87344632Y-81264838D01*
X87319463Y-81295506D01*
X87260498Y-81405820D01*
X87224188Y-81525518D01*
X87211928Y-81650000D01*
X87211928Y-82496711D01*
X87144180Y-82460498D01*
X87024482Y-82424188D01*
X86900000Y-82411928D01*
X86835750Y-82415000D01*
X86677000Y-82573750D01*
X86677000Y-84673000D01*
X87376250Y-84673000D01*
X87535000Y-84514250D01*
X87535026Y-84501661D01*
X87605820Y-84539502D01*
X87725518Y-84575812D01*
X87850000Y-84588072D01*
X89350000Y-84588072D01*
X89474482Y-84575812D01*
X89594180Y-84539502D01*
X89704494Y-84480537D01*
X89801185Y-84401185D01*
X89880537Y-84304494D01*
X89939502Y-84194180D01*
X89975812Y-84074482D01*
X89988072Y-83950000D01*
X89988072Y-81650000D01*
X89975812Y-81525518D01*
X89939502Y-81405820D01*
X89880537Y-81295506D01*
X89801185Y-81198815D01*
X89704494Y-81119463D01*
X89594180Y-81060498D01*
X89474482Y-81024188D01*
X89350000Y-81011928D01*
X88410362Y-81011928D01*
X88426262Y-80996028D01*
X88528586Y-80842889D01*
X88599068Y-80672729D01*
X88631437Y-80510000D01*
X92769423Y-80510000D01*
X92781329Y-80532275D01*
G37*
%TD.AperFunction*%
D28*
X46902000Y-82168000D02*
X46922000Y-82168000D01*
X46922000Y-82422000D01*
X46902000Y-82422000D01*
X46902000Y-82442000D01*
X46648000Y-82442000D01*
X46648000Y-82422000D01*
X46628000Y-82422000D01*
X46628000Y-82168000D01*
X46648000Y-82168000D01*
X46648000Y-82148000D01*
X46902000Y-82148000D01*
X46902000Y-82168000D01*
%TA.AperFunction,Conductor*%
D29*
G36*
X46902000Y-82168000D02*
G01*
X46922000Y-82168000D01*
X46922000Y-82422000D01*
X46902000Y-82422000D01*
X46902000Y-82442000D01*
X46648000Y-82442000D01*
X46648000Y-82422000D01*
X46628000Y-82422000D01*
X46628000Y-82168000D01*
X46648000Y-82168000D01*
X46648000Y-82148000D01*
X46902000Y-82148000D01*
X46902000Y-82168000D01*
G37*
%TD.AperFunction*%
D28*
X55549428Y-78556250D02*
X55565892Y-78723408D01*
X55614650Y-78884142D01*
X55693829Y-79032275D01*
X55800385Y-79162115D01*
X55915001Y-79256177D01*
X55915001Y-79288535D01*
X55876040Y-79262502D01*
X55520252Y-79115130D01*
X55142551Y-79040000D01*
X54757449Y-79040000D01*
X54379748Y-79115130D01*
X54023960Y-79262502D01*
X53703760Y-79476453D01*
X53431453Y-79748760D01*
X53217502Y-80068960D01*
X53129655Y-80281041D01*
X53099068Y-80127271D01*
X53028586Y-79957111D01*
X52926262Y-79803972D01*
X52796028Y-79673738D01*
X52642889Y-79571414D01*
X52472729Y-79500932D01*
X52292089Y-79465000D01*
X52107911Y-79465000D01*
X51927271Y-79500932D01*
X51893308Y-79515000D01*
X51884229Y-79515000D01*
X51782275Y-79431329D01*
X51634142Y-79352150D01*
X51473408Y-79303392D01*
X51306250Y-79286928D01*
X50868750Y-79286928D01*
X50701592Y-79303392D01*
X50540858Y-79352150D01*
X50392725Y-79431329D01*
X50371070Y-79449100D01*
X50352174Y-79433592D01*
X50355537Y-79429494D01*
X50414502Y-79319180D01*
X50450812Y-79199482D01*
X50463072Y-79075000D01*
X50460000Y-78885750D01*
X50301250Y-78727000D01*
X49514500Y-78727000D01*
X49514500Y-79551250D01*
X49639500Y-79676250D01*
X49639500Y-80273000D01*
X49659500Y-80273000D01*
X49659500Y-80527000D01*
X49639500Y-80527000D01*
X49639500Y-81351250D01*
X49798250Y-81510000D01*
X49950000Y-81513072D01*
X50074482Y-81500812D01*
X50194180Y-81464502D01*
X50208028Y-81457100D01*
X50215305Y-81530990D01*
X50255026Y-81661928D01*
X48141987Y-81661928D01*
X48130537Y-81640506D01*
X48051185Y-81543815D01*
X48009981Y-81510000D01*
X48014502Y-81510000D01*
X48014502Y-81351252D01*
X48173250Y-81510000D01*
X48325000Y-81513072D01*
X48449482Y-81500812D01*
X48569180Y-81464502D01*
X48679494Y-81405537D01*
X48700000Y-81388708D01*
X48720506Y-81405537D01*
X48830820Y-81464502D01*
X48950518Y-81500812D01*
X49075000Y-81513072D01*
X49226750Y-81510000D01*
X49385500Y-81351250D01*
X49385500Y-80527000D01*
X48014500Y-80527000D01*
X48014500Y-80547000D01*
X47760500Y-80547000D01*
X47760500Y-80527000D01*
X47740500Y-80527000D01*
X47740500Y-80273000D01*
X47760500Y-80273000D01*
X47760500Y-80253000D01*
X48014500Y-80253000D01*
X48014500Y-80273000D01*
X49385500Y-80273000D01*
X49385500Y-79448750D01*
X49260500Y-79323750D01*
X49260500Y-78727000D01*
X49240500Y-78727000D01*
X49240500Y-78473000D01*
X49260500Y-78473000D01*
X49260500Y-78453000D01*
X49514500Y-78453000D01*
X49514500Y-78473000D01*
X50301250Y-78473000D01*
X50460000Y-78314250D01*
X50460881Y-78259990D01*
X55549428Y-78259990D01*
X55549428Y-78556250D01*
%TA.AperFunction,Conductor*%
D29*
G36*
X55549428Y-78556250D02*
G01*
X55565892Y-78723408D01*
X55614650Y-78884142D01*
X55693829Y-79032275D01*
X55800385Y-79162115D01*
X55915001Y-79256177D01*
X55915001Y-79288535D01*
X55876040Y-79262502D01*
X55520252Y-79115130D01*
X55142551Y-79040000D01*
X54757449Y-79040000D01*
X54379748Y-79115130D01*
X54023960Y-79262502D01*
X53703760Y-79476453D01*
X53431453Y-79748760D01*
X53217502Y-80068960D01*
X53129655Y-80281041D01*
X53099068Y-80127271D01*
X53028586Y-79957111D01*
X52926262Y-79803972D01*
X52796028Y-79673738D01*
X52642889Y-79571414D01*
X52472729Y-79500932D01*
X52292089Y-79465000D01*
X52107911Y-79465000D01*
X51927271Y-79500932D01*
X51893308Y-79515000D01*
X51884229Y-79515000D01*
X51782275Y-79431329D01*
X51634142Y-79352150D01*
X51473408Y-79303392D01*
X51306250Y-79286928D01*
X50868750Y-79286928D01*
X50701592Y-79303392D01*
X50540858Y-79352150D01*
X50392725Y-79431329D01*
X50371070Y-79449100D01*
X50352174Y-79433592D01*
X50355537Y-79429494D01*
X50414502Y-79319180D01*
X50450812Y-79199482D01*
X50463072Y-79075000D01*
X50460000Y-78885750D01*
X50301250Y-78727000D01*
X49514500Y-78727000D01*
X49514500Y-79551250D01*
X49639500Y-79676250D01*
X49639500Y-80273000D01*
X49659500Y-80273000D01*
X49659500Y-80527000D01*
X49639500Y-80527000D01*
X49639500Y-81351250D01*
X49798250Y-81510000D01*
X49950000Y-81513072D01*
X50074482Y-81500812D01*
X50194180Y-81464502D01*
X50208028Y-81457100D01*
X50215305Y-81530990D01*
X50255026Y-81661928D01*
X48141987Y-81661928D01*
X48130537Y-81640506D01*
X48051185Y-81543815D01*
X48009981Y-81510000D01*
X48014502Y-81510000D01*
X48014502Y-81351252D01*
X48173250Y-81510000D01*
X48325000Y-81513072D01*
X48449482Y-81500812D01*
X48569180Y-81464502D01*
X48679494Y-81405537D01*
X48700000Y-81388708D01*
X48720506Y-81405537D01*
X48830820Y-81464502D01*
X48950518Y-81500812D01*
X49075000Y-81513072D01*
X49226750Y-81510000D01*
X49385500Y-81351250D01*
X49385500Y-80527000D01*
X48014500Y-80527000D01*
X48014500Y-80547000D01*
X47760500Y-80547000D01*
X47760500Y-80527000D01*
X47740500Y-80527000D01*
X47740500Y-80273000D01*
X47760500Y-80273000D01*
X47760500Y-80253000D01*
X48014500Y-80253000D01*
X48014500Y-80273000D01*
X49385500Y-80273000D01*
X49385500Y-79448750D01*
X49260500Y-79323750D01*
X49260500Y-78727000D01*
X49240500Y-78727000D01*
X49240500Y-78473000D01*
X49260500Y-78473000D01*
X49260500Y-78453000D01*
X49514500Y-78453000D01*
X49514500Y-78473000D01*
X50301250Y-78473000D01*
X50460000Y-78314250D01*
X50460881Y-78259990D01*
X55549428Y-78259990D01*
X55549428Y-78556250D01*
G37*
%TD.AperFunction*%
D28*
X57427000Y-74873000D02*
X58028507Y-74873000D01*
X58114193Y-74898992D01*
X58225846Y-74909989D01*
X58225855Y-74909989D01*
X58263178Y-74913665D01*
X58300501Y-74909989D01*
X61206905Y-74909989D01*
X61252150Y-75059142D01*
X61331329Y-75207275D01*
X61349100Y-75228930D01*
X61294463Y-75295506D01*
X61235498Y-75405820D01*
X61199188Y-75525518D01*
X61186928Y-75650000D01*
X61190000Y-75801750D01*
X61348750Y-75960500D01*
X62173000Y-75960500D01*
X62173000Y-75940500D01*
X62427000Y-75940500D01*
X62427000Y-75960500D01*
X63251250Y-75960500D01*
X63410000Y-75801750D01*
X63413072Y-75650000D01*
X63400812Y-75525518D01*
X63364502Y-75405820D01*
X63305537Y-75295506D01*
X63250900Y-75228930D01*
X63268671Y-75207275D01*
X63347850Y-75059142D01*
X63393095Y-74909989D01*
X64649511Y-74909989D01*
X64600932Y-75027271D01*
X64567559Y-75195047D01*
X64525518Y-75199188D01*
X64405820Y-75235498D01*
X64295506Y-75294463D01*
X64198815Y-75373815D01*
X64119463Y-75470506D01*
X64060498Y-75580820D01*
X64024188Y-75700518D01*
X64011928Y-75825000D01*
X64011928Y-77275000D01*
X64024188Y-77399482D01*
X64060498Y-77519180D01*
X64119463Y-77629494D01*
X64198815Y-77726185D01*
X64256021Y-77773132D01*
X64281800Y-77821362D01*
X64370525Y-77929474D01*
X64397617Y-77951708D01*
X64640909Y-78195000D01*
X60596579Y-78195000D01*
X59181524Y-76779946D01*
X59153807Y-76746173D01*
X59019049Y-76635579D01*
X58865303Y-76553401D01*
X58771679Y-76525000D01*
X61186928Y-76525000D01*
X61199188Y-76649482D01*
X61235498Y-76769180D01*
X61294463Y-76879494D01*
X61373815Y-76976185D01*
X61470506Y-77055537D01*
X61580820Y-77114502D01*
X61700518Y-77150812D01*
X61825000Y-77163072D01*
X62014250Y-77160000D01*
X62173000Y-77001250D01*
X62173000Y-76214500D01*
X62427000Y-76214500D01*
X62427000Y-77001250D01*
X62585750Y-77160000D01*
X62775000Y-77163072D01*
X62899482Y-77150812D01*
X63019180Y-77114502D01*
X63129494Y-77055537D01*
X63226185Y-76976185D01*
X63305537Y-76879494D01*
X63364502Y-76769180D01*
X63400812Y-76649482D01*
X63413072Y-76525000D01*
X63410000Y-76373250D01*
X63251250Y-76214500D01*
X62427000Y-76214500D01*
X62173000Y-76214500D01*
X61348750Y-76214500D01*
X61190000Y-76373250D01*
X61186928Y-76525000D01*
X58771679Y-76525000D01*
X58698480Y-76502795D01*
X58568467Y-76489990D01*
X58568459Y-76489990D01*
X58524990Y-76485709D01*
X58481521Y-76489990D01*
X58085157Y-76489990D01*
X58169180Y-76464502D01*
X58279494Y-76405537D01*
X58376185Y-76326185D01*
X58455537Y-76229494D01*
X58514502Y-76119180D01*
X58550812Y-75999482D01*
X58563072Y-75875000D01*
X58560000Y-75285750D01*
X58401250Y-75127000D01*
X57427000Y-75127000D01*
X57427000Y-75147000D01*
X57173000Y-75147000D01*
X57173000Y-75127000D01*
X57153000Y-75127000D01*
X57153000Y-74873000D01*
X57173000Y-74873000D01*
X57173000Y-74853000D01*
X57427000Y-74853000D01*
X57427000Y-74873000D01*
%TA.AperFunction,Conductor*%
D29*
G36*
X57427000Y-74873000D02*
G01*
X58028507Y-74873000D01*
X58114193Y-74898992D01*
X58225846Y-74909989D01*
X58225855Y-74909989D01*
X58263178Y-74913665D01*
X58300501Y-74909989D01*
X61206905Y-74909989D01*
X61252150Y-75059142D01*
X61331329Y-75207275D01*
X61349100Y-75228930D01*
X61294463Y-75295506D01*
X61235498Y-75405820D01*
X61199188Y-75525518D01*
X61186928Y-75650000D01*
X61190000Y-75801750D01*
X61348750Y-75960500D01*
X62173000Y-75960500D01*
X62173000Y-75940500D01*
X62427000Y-75940500D01*
X62427000Y-75960500D01*
X63251250Y-75960500D01*
X63410000Y-75801750D01*
X63413072Y-75650000D01*
X63400812Y-75525518D01*
X63364502Y-75405820D01*
X63305537Y-75295506D01*
X63250900Y-75228930D01*
X63268671Y-75207275D01*
X63347850Y-75059142D01*
X63393095Y-74909989D01*
X64649511Y-74909989D01*
X64600932Y-75027271D01*
X64567559Y-75195047D01*
X64525518Y-75199188D01*
X64405820Y-75235498D01*
X64295506Y-75294463D01*
X64198815Y-75373815D01*
X64119463Y-75470506D01*
X64060498Y-75580820D01*
X64024188Y-75700518D01*
X64011928Y-75825000D01*
X64011928Y-77275000D01*
X64024188Y-77399482D01*
X64060498Y-77519180D01*
X64119463Y-77629494D01*
X64198815Y-77726185D01*
X64256021Y-77773132D01*
X64281800Y-77821362D01*
X64370525Y-77929474D01*
X64397617Y-77951708D01*
X64640909Y-78195000D01*
X60596579Y-78195000D01*
X59181524Y-76779946D01*
X59153807Y-76746173D01*
X59019049Y-76635579D01*
X58865303Y-76553401D01*
X58771679Y-76525000D01*
X61186928Y-76525000D01*
X61199188Y-76649482D01*
X61235498Y-76769180D01*
X61294463Y-76879494D01*
X61373815Y-76976185D01*
X61470506Y-77055537D01*
X61580820Y-77114502D01*
X61700518Y-77150812D01*
X61825000Y-77163072D01*
X62014250Y-77160000D01*
X62173000Y-77001250D01*
X62173000Y-76214500D01*
X62427000Y-76214500D01*
X62427000Y-77001250D01*
X62585750Y-77160000D01*
X62775000Y-77163072D01*
X62899482Y-77150812D01*
X63019180Y-77114502D01*
X63129494Y-77055537D01*
X63226185Y-76976185D01*
X63305537Y-76879494D01*
X63364502Y-76769180D01*
X63400812Y-76649482D01*
X63413072Y-76525000D01*
X63410000Y-76373250D01*
X63251250Y-76214500D01*
X62427000Y-76214500D01*
X62173000Y-76214500D01*
X61348750Y-76214500D01*
X61190000Y-76373250D01*
X61186928Y-76525000D01*
X58771679Y-76525000D01*
X58698480Y-76502795D01*
X58568467Y-76489990D01*
X58568459Y-76489990D01*
X58524990Y-76485709D01*
X58481521Y-76489990D01*
X58085157Y-76489990D01*
X58169180Y-76464502D01*
X58279494Y-76405537D01*
X58376185Y-76326185D01*
X58455537Y-76229494D01*
X58514502Y-76119180D01*
X58550812Y-75999482D01*
X58563072Y-75875000D01*
X58560000Y-75285750D01*
X58401250Y-75127000D01*
X57427000Y-75127000D01*
X57427000Y-75147000D01*
X57173000Y-75147000D01*
X57173000Y-75127000D01*
X57153000Y-75127000D01*
X57153000Y-74873000D01*
X57173000Y-74873000D01*
X57173000Y-74853000D01*
X57427000Y-74853000D01*
X57427000Y-74873000D01*
G37*
%TD.AperFunction*%
D28*
X76567998Y-74557090D02*
X76567998Y-74623748D01*
X76409250Y-74465000D01*
X76395000Y-74461928D01*
X76270518Y-74474188D01*
X76150820Y-74510498D01*
X76040506Y-74569463D01*
X75943815Y-74648815D01*
X75864463Y-74745506D01*
X75805498Y-74855820D01*
X75769188Y-74975518D01*
X75756928Y-75100000D01*
X75760000Y-75914250D01*
X75918750Y-76073000D01*
X76568000Y-76073000D01*
X76568000Y-76053000D01*
X76822000Y-76053000D01*
X76822000Y-76073000D01*
X76842000Y-76073000D01*
X76842000Y-76327000D01*
X76822000Y-76327000D01*
X76822000Y-76347000D01*
X76568000Y-76347000D01*
X76568000Y-76327000D01*
X75918750Y-76327000D01*
X75760000Y-76485750D01*
X75758852Y-76789979D01*
X75044071Y-76789979D01*
X72064091Y-73810000D01*
X75820909Y-73810000D01*
X76567998Y-74557090D01*
%TA.AperFunction,Conductor*%
D29*
G36*
X76567998Y-74557090D02*
G01*
X76567998Y-74623748D01*
X76409250Y-74465000D01*
X76395000Y-74461928D01*
X76270518Y-74474188D01*
X76150820Y-74510498D01*
X76040506Y-74569463D01*
X75943815Y-74648815D01*
X75864463Y-74745506D01*
X75805498Y-74855820D01*
X75769188Y-74975518D01*
X75756928Y-75100000D01*
X75760000Y-75914250D01*
X75918750Y-76073000D01*
X76568000Y-76073000D01*
X76568000Y-76053000D01*
X76822000Y-76053000D01*
X76822000Y-76073000D01*
X76842000Y-76073000D01*
X76842000Y-76327000D01*
X76822000Y-76327000D01*
X76822000Y-76347000D01*
X76568000Y-76347000D01*
X76568000Y-76327000D01*
X75918750Y-76327000D01*
X75760000Y-76485750D01*
X75758852Y-76789979D01*
X75044071Y-76789979D01*
X72064091Y-73810000D01*
X75820909Y-73810000D01*
X76567998Y-74557090D01*
G37*
%TD.AperFunction*%
D28*
X46973250Y-71310000D02*
X47125000Y-71313072D01*
X47249482Y-71300812D01*
X47369180Y-71264502D01*
X47423441Y-71235498D01*
X47403392Y-71301592D01*
X47386928Y-71468750D01*
X47386928Y-71906250D01*
X47391198Y-71949607D01*
X46751591Y-71310000D01*
X46814502Y-71310000D01*
X46814502Y-71151252D01*
X46973250Y-71310000D01*
%TA.AperFunction,Conductor*%
D29*
G36*
X46973250Y-71310000D02*
G01*
X47125000Y-71313072D01*
X47249482Y-71300812D01*
X47369180Y-71264502D01*
X47423441Y-71235498D01*
X47403392Y-71301592D01*
X47386928Y-71468750D01*
X47386928Y-71906250D01*
X47391198Y-71949607D01*
X46751591Y-71310000D01*
X46814502Y-71310000D01*
X46814502Y-71151252D01*
X46973250Y-71310000D01*
G37*
%TD.AperFunction*%
D28*
X61414500Y-70073000D02*
X61434500Y-70073000D01*
X61434500Y-70327000D01*
X61414500Y-70327000D01*
X61414500Y-70347000D01*
X61160500Y-70347000D01*
X61160500Y-70327000D01*
X61140500Y-70327000D01*
X61140500Y-70073000D01*
X61160500Y-70073000D01*
X61160500Y-70053000D01*
X61414500Y-70053000D01*
X61414500Y-70073000D01*
%TA.AperFunction,Conductor*%
D29*
G36*
X61414500Y-70073000D02*
G01*
X61434500Y-70073000D01*
X61434500Y-70327000D01*
X61414500Y-70327000D01*
X61414500Y-70347000D01*
X61160500Y-70347000D01*
X61160500Y-70327000D01*
X61140500Y-70327000D01*
X61140500Y-70073000D01*
X61160500Y-70073000D01*
X61160500Y-70053000D01*
X61414500Y-70053000D01*
X61414500Y-70073000D01*
G37*
%TD.AperFunction*%
D28*
X52514500Y-70073000D02*
X52534500Y-70073000D01*
X52534500Y-70327000D01*
X52514500Y-70327000D01*
X52514500Y-70347000D01*
X52260500Y-70347000D01*
X52260500Y-70327000D01*
X52240500Y-70327000D01*
X52240500Y-70073000D01*
X52260500Y-70073000D01*
X52260500Y-70053000D01*
X52514500Y-70053000D01*
X52514500Y-70073000D01*
%TA.AperFunction,Conductor*%
D29*
G36*
X52514500Y-70073000D02*
G01*
X52534500Y-70073000D01*
X52534500Y-70327000D01*
X52514500Y-70327000D01*
X52514500Y-70347000D01*
X52260500Y-70347000D01*
X52260500Y-70327000D01*
X52240500Y-70327000D01*
X52240500Y-70073000D01*
X52260500Y-70073000D01*
X52260500Y-70053000D01*
X52514500Y-70053000D01*
X52514500Y-70073000D01*
G37*
%TD.AperFunction*%
D28*
X44045506Y-67480537D02*
X44155820Y-67539502D01*
X44275518Y-67575812D01*
X44400000Y-67588072D01*
X45100000Y-67588072D01*
X45224482Y-67575812D01*
X45344180Y-67539502D01*
X45411928Y-67503289D01*
X45411928Y-68350000D01*
X45424188Y-68474482D01*
X45460498Y-68594180D01*
X45519463Y-68704494D01*
X45598815Y-68801185D01*
X45695506Y-68880537D01*
X45805820Y-68939502D01*
X45925518Y-68975812D01*
X46050000Y-68988072D01*
X47550000Y-68988072D01*
X47674482Y-68975812D01*
X47790000Y-68940770D01*
X47790000Y-69169423D01*
X47767725Y-69181329D01*
X47637885Y-69287885D01*
X47612809Y-69318441D01*
X47576185Y-69273815D01*
X47479494Y-69194463D01*
X47369180Y-69135498D01*
X47249482Y-69099188D01*
X47125000Y-69086928D01*
X46973250Y-69090000D01*
X46814500Y-69248750D01*
X46814500Y-70073000D01*
X46834500Y-70073000D01*
X46834500Y-70327000D01*
X46814500Y-70327000D01*
X46814500Y-70347000D01*
X46560500Y-70347000D01*
X46560500Y-70327000D01*
X46540500Y-70327000D01*
X46540500Y-70073000D01*
X46560500Y-70073000D01*
X46560500Y-69248750D01*
X46401750Y-69090000D01*
X46250000Y-69086928D01*
X46125518Y-69099188D01*
X46005820Y-69135498D01*
X45895506Y-69194463D01*
X45828930Y-69249100D01*
X45807275Y-69231329D01*
X45659142Y-69152150D01*
X45498408Y-69103392D01*
X45331250Y-69086928D01*
X45003519Y-69086928D01*
X43960000Y-68043409D01*
X43960000Y-67476018D01*
X44000000Y-67443191D01*
X44045506Y-67480537D01*
%TA.AperFunction,Conductor*%
D29*
G36*
X44045506Y-67480537D02*
G01*
X44155820Y-67539502D01*
X44275518Y-67575812D01*
X44400000Y-67588072D01*
X45100000Y-67588072D01*
X45224482Y-67575812D01*
X45344180Y-67539502D01*
X45411928Y-67503289D01*
X45411928Y-68350000D01*
X45424188Y-68474482D01*
X45460498Y-68594180D01*
X45519463Y-68704494D01*
X45598815Y-68801185D01*
X45695506Y-68880537D01*
X45805820Y-68939502D01*
X45925518Y-68975812D01*
X46050000Y-68988072D01*
X47550000Y-68988072D01*
X47674482Y-68975812D01*
X47790000Y-68940770D01*
X47790000Y-69169423D01*
X47767725Y-69181329D01*
X47637885Y-69287885D01*
X47612809Y-69318441D01*
X47576185Y-69273815D01*
X47479494Y-69194463D01*
X47369180Y-69135498D01*
X47249482Y-69099188D01*
X47125000Y-69086928D01*
X46973250Y-69090000D01*
X46814500Y-69248750D01*
X46814500Y-70073000D01*
X46834500Y-70073000D01*
X46834500Y-70327000D01*
X46814500Y-70327000D01*
X46814500Y-70347000D01*
X46560500Y-70347000D01*
X46560500Y-70327000D01*
X46540500Y-70327000D01*
X46540500Y-70073000D01*
X46560500Y-70073000D01*
X46560500Y-69248750D01*
X46401750Y-69090000D01*
X46250000Y-69086928D01*
X46125518Y-69099188D01*
X46005820Y-69135498D01*
X45895506Y-69194463D01*
X45828930Y-69249100D01*
X45807275Y-69231329D01*
X45659142Y-69152150D01*
X45498408Y-69103392D01*
X45331250Y-69086928D01*
X45003519Y-69086928D01*
X43960000Y-68043409D01*
X43960000Y-67476018D01*
X44000000Y-67443191D01*
X44045506Y-67480537D01*
G37*
%TD.AperFunction*%
D28*
X52645506Y-67480537D02*
X52755820Y-67539502D01*
X52875518Y-67575812D01*
X53000000Y-67588072D01*
X53490001Y-67588072D01*
X53490000Y-69169423D01*
X53467725Y-69181329D01*
X53337885Y-69287885D01*
X53312809Y-69318441D01*
X53276185Y-69273815D01*
X53179494Y-69194463D01*
X53069180Y-69135498D01*
X52949482Y-69099188D01*
X52825000Y-69086928D01*
X52673250Y-69090000D01*
X52559358Y-69203892D01*
X52563435Y-69162500D01*
X52560000Y-69127623D01*
X52560000Y-67476018D01*
X52600000Y-67443191D01*
X52645506Y-67480537D01*
%TA.AperFunction,Conductor*%
D29*
G36*
X52645506Y-67480537D02*
G01*
X52755820Y-67539502D01*
X52875518Y-67575812D01*
X53000000Y-67588072D01*
X53490001Y-67588072D01*
X53490000Y-69169423D01*
X53467725Y-69181329D01*
X53337885Y-69287885D01*
X53312809Y-69318441D01*
X53276185Y-69273815D01*
X53179494Y-69194463D01*
X53069180Y-69135498D01*
X52949482Y-69099188D01*
X52825000Y-69086928D01*
X52673250Y-69090000D01*
X52559358Y-69203892D01*
X52563435Y-69162500D01*
X52560000Y-69127623D01*
X52560000Y-67476018D01*
X52600000Y-67443191D01*
X52645506Y-67480537D01*
G37*
%TD.AperFunction*%
D28*
X106067000Y-64773000D02*
X106087000Y-64773000D01*
X106087000Y-65027000D01*
X106067000Y-65027000D01*
X106067000Y-65047000D01*
X105813000Y-65047000D01*
X105813000Y-65027000D01*
X105793000Y-65027000D01*
X105793000Y-64773000D01*
X105813000Y-64773000D01*
X105813000Y-64753000D01*
X106067000Y-64753000D01*
X106067000Y-64773000D01*
%TA.AperFunction,Conductor*%
D29*
G36*
X106067000Y-64773000D02*
G01*
X106087000Y-64773000D01*
X106087000Y-65027000D01*
X106067000Y-65027000D01*
X106067000Y-65047000D01*
X105813000Y-65047000D01*
X105813000Y-65027000D01*
X105793000Y-65027000D01*
X105793000Y-64773000D01*
X105813000Y-64773000D01*
X105813000Y-64753000D01*
X106067000Y-64753000D01*
X106067000Y-64773000D01*
G37*
%TD.AperFunction*%
%TD*%
M02*
